<svg width="123" height="118" viewBox="0 0 123 118" fill="none" xmlns="http://www.w3.org/2000/svg">
<g filter="url(#filter0_d_371_201)">
<path d="M44.9898 55.8985C52.1519 51.7005 61.2239 51.7005 68.3861 55.8985C68.6129 56.0315 68.8954 56.1883 69.2167 56.3667C70.6402 57.1568 72.827 58.3708 74.3241 59.8133C75.259 60.714 76.1805 61.9307 76.3487 63.4458C76.529 65.0693 75.8037 66.5674 74.417 67.8679C72.0543 70.0837 69.2015 71.875 65.5062 71.875H47.8697C44.1744 71.875 41.3216 70.0837 38.9589 67.8679C37.5722 66.5674 36.8469 65.0693 37.0272 63.4458C37.1954 61.9307 38.1169 60.714 39.0517 59.8133C40.5489 58.3708 42.7357 57.1568 44.1591 56.3667C44.4805 56.1883 44.7629 56.0315 44.9898 55.8985Z" fill="url(#paint0_linear_371_201)"/>
<path d="M46.0004 38.6875C46.0004 32.785 50.7854 28 56.6879 28C62.5905 28 67.3754 32.785 67.3754 38.6875C67.3754 44.59 62.5905 49.375 56.6879 49.375C50.7854 49.375 46.0004 44.59 46.0004 38.6875Z" fill="url(#paint1_linear_371_201)"/>
<path d="M44.9898 55.8985L44.7369 55.4672L44.7369 55.4672L44.9898 55.8985ZM68.3861 55.8985L68.639 55.4672L68.639 55.4672L68.3861 55.8985ZM69.2167 56.3667L68.9741 56.8038L68.9741 56.8038L69.2167 56.3667ZM74.3241 59.8133L74.671 59.4532L74.671 59.4532L74.3241 59.8133ZM76.3487 63.4458L75.8518 63.501L75.8518 63.501L76.3487 63.4458ZM74.417 67.8679L74.0749 67.5032L74.0749 67.5032L74.417 67.8679ZM38.9589 67.8679L38.6169 68.2326L38.6169 68.2326L38.9589 67.8679ZM37.0272 63.4458L36.5302 63.3906L36.5302 63.3906L37.0272 63.4458ZM39.0517 59.8133L38.7048 59.4532L38.7048 59.4532L39.0517 59.8133ZM44.1591 56.3667L44.4018 56.8038L44.4018 56.8038L44.1591 56.3667ZM45.2426 56.3299C52.2486 52.2234 61.1272 52.2234 68.1333 56.3299L68.639 55.4672C61.3206 51.1776 52.0552 51.1776 44.7369 55.4672L45.2426 56.3299ZM68.1333 56.3299C68.3663 56.4664 68.6545 56.6264 68.9741 56.8038L69.4594 55.9295C69.1363 55.7501 68.8596 55.5965 68.639 55.4672L68.1333 56.3299ZM68.9741 56.8038C70.4101 57.601 72.5357 58.7845 73.9772 60.1734L74.671 59.4532C73.1183 57.9571 70.8703 56.7127 69.4594 55.9295L68.9741 56.8038ZM73.9772 60.1734C74.8787 61.042 75.7025 62.1567 75.8518 63.501L76.8456 63.3906C76.6585 61.7048 75.6392 60.3861 74.671 59.4532L73.9772 60.1734ZM75.8518 63.501C76.0094 64.9207 75.3865 66.2732 74.0749 67.5032L74.759 68.2326C76.2209 66.8616 77.0485 65.2178 76.8456 63.3906L75.8518 63.501ZM74.0749 67.5032C71.7581 69.676 69.0222 71.375 65.5062 71.375V72.375C69.3808 72.375 72.3505 70.4914 74.759 68.2326L74.0749 67.5032ZM65.5062 71.375H47.8697V72.375H65.5062V71.375ZM47.8697 71.375C44.3537 71.375 41.6178 69.676 39.3009 67.5032L38.6169 68.2326C41.0254 70.4914 43.9951 72.375 47.8697 72.375V71.375ZM39.3009 67.5032C37.9894 66.2732 37.3665 64.9207 37.5241 63.501L36.5302 63.3906C36.3273 65.2178 37.155 66.8616 38.6169 68.2326L39.3009 67.5032ZM37.5241 63.501C37.6734 62.1567 38.4971 61.042 39.3987 60.1734L38.7048 59.4532C37.7367 60.3861 36.7174 61.7048 36.5302 63.3906L37.5241 63.501ZM39.3987 60.1734C40.8401 58.7845 42.9658 57.601 44.4018 56.8038L43.9164 55.9295C42.5056 56.7127 40.2576 57.9571 38.7048 59.4532L39.3987 60.1734ZM44.4018 56.8038C44.7213 56.6264 45.0096 56.4664 45.2426 56.3299L44.7369 55.4672C44.5163 55.5965 44.2396 55.7501 43.9164 55.9295L44.4018 56.8038ZM46.5004 38.6875C46.5004 33.0611 51.0615 28.5 56.6879 28.5V27.5C50.5092 27.5 45.5004 32.5088 45.5004 38.6875H46.5004ZM56.6879 28.5C62.3143 28.5 66.8754 33.0611 66.8754 38.6875H67.8754C67.8754 32.5088 62.8666 27.5 56.6879 27.5V28.5ZM66.8754 38.6875C66.8754 44.3139 62.3143 48.875 56.6879 48.875V49.875C62.8666 49.875 67.8754 44.8662 67.8754 38.6875H66.8754ZM56.6879 48.875C51.0615 48.875 46.5004 44.3139 46.5004 38.6875H45.5004C45.5004 44.8662 50.5092 49.875 56.6879 49.875V48.875Z" fill="white"/>
<path fill-rule="evenodd" clip-rule="evenodd" d="M70.8472 31.4715C71.7259 30.5928 73.1505 30.5928 74.0292 31.4715L78.0632 35.5055L82.0972 31.4715C82.9759 30.5928 84.4005 30.5928 85.2792 31.4715C86.1578 32.3502 86.1578 33.7748 85.2792 34.6535L81.2452 38.6875L85.2792 42.7215C86.1578 43.6002 86.1578 45.0248 85.2792 45.9035C84.4005 46.7822 82.9759 46.7822 82.0972 45.9035L78.0632 41.8695L74.0292 45.9035C73.1505 46.7822 71.7259 46.7822 70.8472 45.9035C69.9685 45.0248 69.9685 43.6002 70.8472 42.7215L74.8812 38.6875L70.8472 34.6535C69.9685 33.7748 69.9685 32.3502 70.8472 31.4715Z" fill="url(#paint2_linear_371_201)" stroke="white" stroke-linecap="round" stroke-linejoin="round"/>
</g>
<defs>
<filter id="filter0_d_371_201" x="0.499874" y="0.499997" width="121.938" height="116.875" filterUnits="userSpaceOnUse" color-interpolation-filters="sRGB">
<feFlood flood-opacity="0" result="BackgroundImageFix"/>
<feColorMatrix in="SourceAlpha" type="matrix" values="0 0 0 0 0 0 0 0 0 0 0 0 0 0 0 0 0 0 127 0" result="hardAlpha"/>
<feOffset dy="9"/>
<feGaussianBlur stdDeviation="18"/>
<feColorMatrix type="matrix" values="0 0 0 0 0.901961 0 0 0 0 0.505882 0 0 0 0 0.47451 0 0 0 0.521569 0"/>
<feBlend mode="normal" in2="BackgroundImageFix" result="effect1_dropShadow_371_201"/>
<feBlend mode="normal" in="SourceGraphic" in2="effect1_dropShadow_371_201" result="shape"/>
</filter>
<linearGradient id="paint0_linear_371_201" x1="56.6879" y1="28" x2="56.6879" y2="71.875" gradientUnits="userSpaceOnUse">
<stop stop-color="#F1968E"/>
<stop offset="1" stop-color="#C8493F"/>
</linearGradient>
<linearGradient id="paint1_linear_371_201" x1="56.6879" y1="28" x2="56.6879" y2="71.875" gradientUnits="userSpaceOnUse">
<stop stop-color="#F1968E"/>
<stop offset="1" stop-color="#C8493F"/>
</linearGradient>
<linearGradient id="paint2_linear_371_201" x1="78.0632" y1="30.8125" x2="78.0632" y2="46.5625" gradientUnits="userSpaceOnUse">
<stop stop-color="#F1968E"/>
<stop offset="1" stop-color="#C8493F"/>
</linearGradient>
</defs>
</svg>
