<svg width="44" height="44" viewBox="0 0 44 44" fill="none" xmlns="http://www.w3.org/2000/svg">
<path d="M3.54913 18.0674L3.79221 17.9459C3.7084 17.9668 3.61618 18.0045 3.54913 18.0674ZM7.88211 10.0343C7.83182 9.52721 7.67259 9.04112 7.4002 8.57597C7.13201 8.10664 6.80097 7.76725 6.40707 7.55773C6.11792 7.39849 5.87488 7.36497 5.67792 7.45297H5.67373L5.63603 7.47388C5.58155 7.50321 5.53122 7.54516 5.48513 7.59544C4.9697 8.1444 4.52554 8.81906 4.15678 9.61944C3.78802 10.424 3.50725 11.3165 3.3103 12.3013C3.20972 12.6994 3.29351 13.1394 3.54913 13.6255C3.80894 14.1116 4.1442 14.4762 4.56324 14.7193C4.98229 14.9581 5.35526 15.021 5.68631 14.9036L5.86228 14.8156C6.10114 14.6731 6.26879 14.4217 6.36936 14.0697C6.51601 13.5082 6.69616 12.9885 6.90569 12.515C7.11102 12.0457 7.35411 11.6183 7.6223 11.2411C7.8444 10.9436 7.9282 10.5413 7.88211 10.0343ZM15.844 36.7947C15.5716 36.2751 15.228 35.8225 14.8089 35.4411C14.2684 34.9592 13.7404 34.4396 13.225 33.8906C12.7095 33.3375 12.2066 32.7509 11.7164 32.1307C11.3476 31.6614 10.9537 31.3386 10.5347 31.1501C10.1701 30.9908 9.85582 30.9615 9.58344 31.0663L9.46607 31.1249C9.19369 31.3093 9.08059 31.6446 9.11411 32.1307C9.15182 32.6168 9.34459 33.0861 9.6882 33.5386C10.4718 34.5863 11.2889 35.5501 12.1396 36.4343C12.9861 37.3184 13.8661 38.1356 14.7754 38.8857C15.1652 39.2 15.5129 39.2964 15.8063 39.1874L15.9488 39.1162C16.1499 38.9611 16.2463 38.6972 16.2463 38.2991C16.2463 37.8213 16.1122 37.3185 15.844 36.7947ZM26.0897 40.7253C25.7964 40.2183 25.4318 39.816 25.0044 39.5268C24.5728 39.2335 24.1747 39.112 23.8059 39.1497C23.3114 39.2084 22.8086 39.2042 22.2932 39.1455C21.7777 39.0868 21.2372 38.9821 20.6714 38.8229C20.3949 38.7558 20.1518 38.7558 19.9339 38.8229H19.9255C19.8166 38.8564 19.7118 38.9108 19.6196 38.9779C19.3389 39.1832 19.1964 39.5227 19.1964 40.0004C19.1964 40.4781 19.3514 40.9516 19.6573 41.4084C19.9633 41.8693 20.3153 42.1709 20.7092 42.3133C21.6436 42.6276 22.553 42.8329 23.4372 42.9377C24.3213 43.0383 25.1553 43.0215 25.9431 42.8832C26.0855 42.8707 26.1986 42.8246 26.2866 42.7366C26.4124 42.6192 26.4794 42.4265 26.4962 42.1625C26.5213 41.7143 26.3831 41.2324 26.0897 40.7253Z" fill="#70707B" stroke="white" stroke-width="0.457143" stroke-linecap="round" stroke-linejoin="round"/>
<path d="M32.2833 35.881C32.0863 36.8407 31.7971 37.7039 31.4158 38.4707C31.3823 38.542 31.3446 38.609 31.311 38.6761C30.9548 39.3591 30.5526 39.9542 30.1084 40.4654C30.0581 40.5157 30.0078 40.5576 29.9491 40.5869L29.8737 40.6247C29.6852 40.6959 29.4589 40.6624 29.1865 40.5241C28.7926 40.3271 28.4615 39.9919 28.1934 39.5268C27.921 39.0616 27.7617 38.5671 27.7115 38.0433C27.6696 37.5991 27.724 37.2387 27.8833 36.958C27.9084 36.9077 27.9377 36.8616 27.9713 36.8197C28.2395 36.409 28.4783 35.9774 28.6878 35.5207C28.8135 35.2441 28.9309 34.9466 29.0356 34.6281C29.1027 34.4228 29.1656 34.2132 29.2242 33.9911C29.3457 33.5805 29.572 33.3165 29.9073 33.1991C30.2383 33.0818 30.6113 33.1405 31.0303 33.3835C31.4494 33.6224 31.7846 34.0037 32.0444 34.5191C32.1198 34.67 32.1785 34.8167 32.2204 34.9549C32.3336 35.2944 32.3503 35.6045 32.2833 35.881Z" fill="#70707B" stroke="white" stroke-width="0.457143" stroke-linecap="round" stroke-linejoin="round"/>
<path d="M7.88211 26.616C7.83182 27.0685 7.67259 27.3703 7.40021 27.5253C7.13201 27.6762 6.79259 27.6301 6.38609 27.3828C5.98381 27.1356 5.66953 26.7501 5.44743 26.2263C4.932 25.0278 4.49619 23.8461 4.14 22.6811C3.78381 21.5162 3.50725 20.3386 3.3103 19.1569C3.20972 18.6457 3.29351 18.2853 3.54913 18.0674L3.79221 17.9459L3.82991 17.9291C4.03943 17.883 4.28248 17.9417 4.56324 18.1009C4.98229 18.344 5.35526 18.7169 5.68631 19.2156C6.01736 19.7185 6.24784 20.259 6.36936 20.8373C6.51601 21.5706 6.69616 22.2956 6.90569 23.008C7.11102 23.7204 7.35411 24.4202 7.6223 25.1158C7.8444 25.6647 7.9282 26.1634 7.88211 26.616Z" fill="#70707B" stroke="white" stroke-width="0.457143" stroke-linecap="round" stroke-linejoin="round"/>
<path d="M16.3216 8.05636C16.3216 8.53826 16.1875 8.88188 15.9151 9.09141C15.6553 9.29255 15.3285 9.35122 14.9304 9.26741C14.9178 9.26741 14.901 9.26322 14.8843 9.25903C14.3437 9.11236 13.8199 9.01598 13.317 8.96569C12.8142 8.91541 12.3155 8.91541 11.8252 8.96988C11.7959 8.97407 11.7666 8.97407 11.7372 8.97407C11.3685 8.97826 10.9871 8.84417 10.589 8.57598C10.1616 8.28683 9.79703 7.88455 9.5037 7.3775C9.20618 6.86626 9.07204 6.39693 9.09718 5.95693C9.10137 5.8815 9.1098 5.81026 9.12656 5.74741C9.17265 5.52531 9.27742 5.37445 9.44084 5.28645L9.45765 5.27807C9.51631 5.24874 9.57913 5.23198 9.65037 5.21941C9.88084 5.18588 10.1113 5.16074 10.346 5.14398H10.3502C10.9411 5.09788 11.5487 5.11045 12.173 5.1775C12.3239 5.19426 12.4747 5.21102 12.6298 5.24036C13.3589 5.34512 14.109 5.5295 14.8843 5.78931C15.253 5.91502 15.5841 6.20836 15.8816 6.66093C15.9487 6.7615 16.0074 6.86626 16.0576 6.97103C16.2336 7.32303 16.3216 7.6876 16.3216 8.05636Z" fill="#70707B" stroke="white" stroke-width="0.457143" stroke-linecap="round" stroke-linejoin="round"/>
<path d="M40.2452 25.979C40.3081 25.9622 40.3709 25.9287 40.4254 25.8868L40.2452 25.979ZM23.961 5.06851C24.0826 5.03498 24.1957 4.98051 24.2962 4.90089L23.961 5.06851Z" fill="#70707B" stroke="white" stroke-width="0.457143" stroke-linecap="round" stroke-linejoin="round"/>
<path d="M34.8563 38.1356C34.8186 38.3786 34.7222 38.5421 34.5546 38.6301H34.5504L26.2867 42.7366C26.4125 42.6192 26.4795 42.4265 26.4963 42.1625C26.5214 41.7143 26.3832 41.2324 26.0898 40.7253C25.7965 40.2183 25.4319 39.816 25.0045 39.5268C24.5729 39.2335 24.1748 39.112 23.806 39.1497C23.3115 39.2084 22.8087 39.2042 22.2933 39.1455C21.7778 39.0868 21.2373 38.9821 20.6715 38.8228C20.395 38.7558 20.1519 38.7558 19.934 38.8228L28.0007 34.7874C28.2814 34.5863 28.6251 34.5318 29.0357 34.6282C28.931 34.9466 28.8136 35.2442 28.6879 35.5207C28.4784 35.9775 28.2395 36.4091 27.9714 36.8198C27.9378 36.8617 27.9085 36.9078 27.8834 36.9581C27.7241 37.2388 27.6696 37.5992 27.7115 38.0434C27.7618 38.5672 27.9211 39.0617 28.1934 39.5268C28.4616 39.992 28.7927 40.3272 29.1866 40.5242C29.459 40.6625 29.6853 40.696 29.8738 40.6247H29.8822C29.9074 40.6122 29.9283 40.6038 29.9492 40.587L34.8563 38.1356Z" fill="#70707B" stroke="white" stroke-width="0.457143" stroke-linecap="round" stroke-linejoin="round"/>
<path d="M24.6273 34.1086C24.6273 34.5905 24.4806 34.8838 24.1873 34.997L15.9488 39.1162C16.15 38.9612 16.2464 38.6972 16.2464 38.2991C16.2464 37.8214 16.1123 37.3185 15.8441 36.7947C15.5717 36.2751 15.228 35.8225 14.809 35.4412C14.2684 34.9593 13.7405 34.4396 13.225 33.8907C12.7096 33.3375 12.2067 32.7509 11.7164 32.1307C11.3477 31.6614 10.9538 31.3387 10.5347 31.1501C10.1701 30.9909 9.85585 30.9615 9.58347 31.0663L16.284 27.7181V29.9474C16.284 30.4252 16.4265 30.9071 16.7073 31.3974C16.9922 31.8834 17.34 32.248 17.7591 32.4911C18.1781 32.7299 18.5259 32.7718 18.8109 32.6084L20.2105 31.9086L22.6075 30.7101C22.8003 30.8945 22.993 31.0747 23.1899 31.2507C23.609 31.632 23.9527 32.0846 24.225 32.6042C24.4932 33.128 24.6273 33.6309 24.6273 34.1086Z" fill="#70707B" stroke="white" stroke-width="0.457143" stroke-linecap="round" stroke-linejoin="round"/>
<path d="M16.2631 22.4255C16.2128 22.8781 16.0536 23.1798 15.7812 23.3348L15.7016 23.3725L7.40026 27.5253C7.67264 27.3703 7.83188 27.0685 7.88217 26.616C7.92826 26.1634 7.84445 25.6647 7.62236 25.1158C7.35417 24.4202 7.11108 23.7204 6.90574 23.008C6.69622 22.2956 6.51607 21.5706 6.36941 20.8373C6.24789 20.259 6.01741 19.7185 5.68636 19.2156C5.35531 18.7169 4.98234 18.344 4.56329 18.1009C4.28253 17.9417 4.03948 17.883 3.82996 17.9291L11.9301 13.8769C12.1899 13.659 12.5252 13.6716 12.9442 13.9105C13.3633 14.1535 13.7363 14.5265 14.0673 15.0251C14.3984 15.528 14.6288 16.0685 14.7504 16.6468C14.7881 16.8396 14.8299 17.0365 14.876 17.2293L12.5462 18.5745L11.3812 19.2491C11.0879 19.4167 10.9454 19.7352 10.958 20.2087C10.9705 20.6823 11.1256 21.1725 11.4189 21.6796C11.7164 22.1908 12.0642 22.5596 12.4707 22.7943C12.8772 23.0289 13.225 23.0625 13.5225 22.8948L14.1343 22.5889L16.2003 21.5539C16.2715 21.8598 16.2925 22.1531 16.2631 22.4255Z" fill="#70707B" stroke="white" stroke-width="0.457143" stroke-linecap="round" stroke-linejoin="round"/>
<path d="M27.6151 27.1608V27.4583C27.6151 27.936 27.4726 28.2587 27.1918 28.4179L27.1039 28.4598L22.6075 30.7101L20.2105 31.9086L18.8109 32.6084C19.0916 32.4492 19.2342 32.1265 19.2342 31.6488V22.9786L21.9622 27.6804C22.2555 28.1916 22.6116 28.5646 23.0307 28.8076C23.4497 29.0465 23.8059 29.0842 24.0993 28.9166L25.8006 28.0659L27.6151 27.1608Z" fill="#70707B" stroke="white" stroke-width="0.457143" stroke-linecap="round" stroke-linejoin="round"/>
<path d="M40.4253 25.8869L40.2452 25.9791H40.2284L32.0444 30.0773C32.3 29.8888 32.3922 29.5452 32.3209 29.0507C32.124 27.869 31.839 26.6747 31.4703 25.4762C31.4493 25.405 31.4284 25.3379 31.4033 25.2667C31.3153 24.9859 31.223 24.701 31.1225 24.4202C30.8291 23.5653 30.4897 22.7105 30.1084 21.8514C29.8863 21.3612 29.5804 20.984 29.1865 20.7284C28.9727 20.5901 28.7842 20.5147 28.6082 20.4979C28.4866 20.4812 28.3735 20.4979 28.2687 20.5398L28.5495 20.3973L30.7369 19.3078L36.5743 16.3871C36.8425 16.232 37.1735 16.2823 37.5674 16.5379C37.9613 16.7935 38.2672 17.1707 38.4893 17.661C39.0299 18.8762 39.4825 20.0831 39.8512 21.2857C40.22 22.4842 40.5049 23.6785 40.7019 24.8602C40.7731 25.3547 40.6809 25.6983 40.4253 25.8869Z" fill="#70707B" stroke="white" stroke-width="0.457143" stroke-linecap="round" stroke-linejoin="round"/>
<path d="M26.4963 16.0015C26.5214 16.4667 26.3957 16.7935 26.1275 16.9737C25.8342 17.1413 25.478 17.133 25.059 16.9486C24.6399 16.7642 24.2334 16.4332 23.8437 15.9513C23.3241 15.3143 22.8087 14.7193 22.2933 14.1703C22.1759 14.0446 22.0585 13.9231 21.937 13.8015C21.8867 13.7429 21.8323 13.6884 21.7736 13.6339C21.4258 13.2777 21.0696 12.9425 20.7093 12.6198C20.2902 12.2385 19.9465 11.7859 19.6784 11.2621C19.406 10.7383 19.2719 10.2396 19.2719 9.75773C19.2719 9.27583 19.4186 8.98249 19.7119 8.87354C20.0094 8.7604 20.3405 8.85259 20.7093 9.15011C21.6437 9.91697 22.5531 10.7593 23.4373 11.677C23.6803 11.9284 23.9192 12.1882 24.1496 12.448C24.1664 12.4648 24.1831 12.4815 24.1915 12.4983C24.8033 13.1772 25.3858 13.8853 25.9432 14.6271C26.2868 15.0796 26.4711 15.5364 26.4963 16.0015Z" fill="#70707B" stroke="white" stroke-width="0.457143" stroke-linecap="round" stroke-linejoin="round"/>
<path d="M16.284 21.273V21.516L16.2002 21.5538L14.1343 22.5888L13.5225 22.8947L14.1049 22.5511L16.1499 21.3526L16.284 21.273Z" fill="#70707B" stroke="white" stroke-width="0.457143" stroke-linecap="round" stroke-linejoin="round"/>
<path d="M14.9306 9.26736C14.8635 9.46431 14.8049 9.66965 14.7504 9.87917C14.6289 10.315 14.3984 10.5916 14.0673 10.7131L5.86237 14.8156C6.10123 14.6731 6.26888 14.4216 6.36945 14.0696C6.5161 13.5081 6.69625 12.9885 6.90578 12.515C7.11111 12.0456 7.3542 11.6182 7.62239 11.2411C7.84449 10.9436 7.92829 10.5413 7.8822 10.0342C7.83191 9.52717 7.67268 9.04107 7.40029 8.57593C7.1321 8.1066 6.80106 7.76717 6.40715 7.55765C6.118 7.39841 5.87496 7.36488 5.67801 7.45288L9.12677 5.74736C9.11001 5.81022 9.10159 5.88146 9.0974 5.95688C9.07225 6.39688 9.20639 6.86622 9.50391 7.37746C9.79725 7.8845 10.1618 8.28679 10.5892 8.57593C10.9873 8.84412 11.3687 8.97822 11.7374 8.97403C11.7668 8.97403 11.7961 8.97403 11.8254 8.96984C12.3157 8.91536 12.8144 8.91536 13.3172 8.96565C13.8201 9.01593 14.3439 9.11231 14.8845 9.25898C14.9012 9.26317 14.918 9.26736 14.9306 9.26736Z" fill="#70707B" stroke="white" stroke-width="0.457143" stroke-linecap="round" stroke-linejoin="round"/>
<path d="M24.7026 3.86594C24.7026 4.34787 24.5684 4.69149 24.296 4.90101L23.9608 5.06863L15.9151 9.09149C16.1875 8.88196 16.3216 8.53834 16.3216 8.05644C16.3216 7.68768 16.2336 7.32311 16.0576 6.97111C16.0073 6.86634 15.9487 6.76158 15.8816 6.66101C15.5841 6.20844 15.253 5.91511 14.8843 5.78939C14.109 5.52958 13.3589 5.3452 12.6298 5.24044C12.4748 5.21111 12.3239 5.19435 12.173 5.17758C11.5487 5.11054 10.941 5.09796 10.3502 5.14406H10.346C10.1113 5.16082 9.88085 5.18596 9.65037 5.21949C9.57914 5.23206 9.51628 5.24882 9.45761 5.27815L17.7924 1.11699L17.8595 1.08347C17.9098 1.05832 17.9685 1.04157 18.0313 1.029C18.8401 0.907472 19.6824 0.89071 20.554 0.987091C21.4298 1.07928 22.3308 1.28461 23.2652 1.5989C23.634 1.72461 23.965 2.01795 24.2626 2.47052C24.5559 2.92309 24.7026 3.38823 24.7026 3.86594Z" fill="#70707B" stroke="white" stroke-width="0.457143" stroke-linecap="round" stroke-linejoin="round"/>
<path d="M34.8771 11.8111C34.9023 12.2762 34.7765 12.6031 34.5084 12.7833L34.3911 12.8419L28.6501 15.7124L26.1274 16.9737C26.3956 16.7935 26.5213 16.4667 26.4962 16.0015C26.471 15.5364 26.2866 15.0796 25.943 14.6271C25.3857 13.8854 24.8032 13.1772 24.1914 12.4983C24.183 12.4815 24.1663 12.4648 24.1495 12.448C23.919 12.1882 23.6802 11.9284 23.4372 11.677C22.553 10.7593 21.6436 9.91697 20.7092 9.15011C20.3404 8.85259 20.0093 8.7604 19.7118 8.87354L28.0928 4.68306C28.3903 4.56992 28.7213 4.66211 29.0901 4.95964C30.0246 5.72649 30.9339 6.56878 31.8181 7.48649C32.7023 8.4084 33.5362 9.38897 34.324 10.4366C34.6676 10.8892 34.852 11.3459 34.8771 11.8111Z" fill="#70707B" stroke="white" stroke-width="0.457143" stroke-linecap="round" stroke-linejoin="round"/>
<path d="M32.0443 30.0774C31.7845 30.266 31.4493 30.2409 31.0303 29.9978C30.6112 29.759 30.2383 29.386 29.9072 28.8831C29.572 28.3845 29.3457 27.8439 29.2242 27.2656C29.1697 26.9891 29.111 26.7167 29.044 26.4443C28.9392 25.9917 28.8176 25.5392 28.6877 25.095C28.4782 24.3826 28.2394 23.6786 27.9712 22.9872C27.7491 22.4382 27.6611 21.9353 27.7114 21.487C27.7617 21.0344 27.9209 20.7327 28.1933 20.5776L28.2687 20.5399C28.3735 20.498 28.4866 20.4812 28.6082 20.498C28.7842 20.5148 28.9727 20.5902 29.1864 20.7285C29.5804 20.9841 29.8862 21.3612 30.1083 21.8515C30.4896 22.7106 30.8291 23.5654 31.1224 24.4203C31.223 24.7011 31.3152 24.986 31.4032 25.2668C31.4284 25.338 31.4493 25.4051 31.4702 25.4763C31.839 26.6748 32.124 27.8691 32.3209 29.0508C32.3922 29.5452 32.2999 29.8889 32.0443 30.0774Z" fill="#70707B" stroke="white" stroke-width="0.457143" stroke-linecap="round" stroke-linejoin="round"/>
<path d="M40.6643 31.6908C40.4673 32.6504 40.1781 33.5136 39.7968 34.2805C39.4154 35.0473 38.9796 35.7136 38.4894 36.2751C38.4474 36.317 38.4056 36.3506 38.3595 36.3841L38.3301 36.4009L38.2966 36.4176L34.8563 38.1357L29.9492 40.5871C30.0078 40.5578 30.0581 40.5159 30.1084 40.4656C30.5526 39.9544 30.9549 39.3593 31.3111 38.6763C31.3446 38.6092 31.3823 38.5422 31.4158 38.471C31.7972 37.7041 32.0863 36.8409 32.2833 35.8812C32.3503 35.6047 32.3335 35.2946 32.2204 34.9551C32.1785 34.8169 32.1198 34.6702 32.0444 34.5193C31.7846 34.0039 31.4494 33.6226 31.0303 33.3837C30.6113 33.1407 30.2383 33.082 29.9073 33.1993L38.0578 29.1262L38.2882 29.0089C38.6193 28.8915 38.9923 28.9502 39.4113 29.1932C39.8303 29.4321 40.1655 29.8134 40.4254 30.3289C40.681 30.8443 40.7606 31.2969 40.6643 31.6908Z" fill="#70707B" stroke="white" stroke-width="0.457143" stroke-linecap="round" stroke-linejoin="round"/>
<path d="M26.2866 42.7366L26.2447 42.7575Z" fill="#70707B"/>
<path d="M26.2866 42.7366L26.2447 42.7575" stroke="white" stroke-width="0.457143" stroke-linecap="round" stroke-linejoin="round"/>
<path d="M19.6195 38.9779L19.9254 38.8229H19.9338" fill="#70707B"/>
<path d="M19.6195 38.9779L19.9254 38.8229H19.9338" stroke="white" stroke-width="0.457143" stroke-linecap="round" stroke-linejoin="round"/>
<path d="M15.9489 39.1163L15.8063 39.1875Z" fill="#70707B"/>
<path d="M15.9489 39.1163L15.8063 39.1875" stroke="white" stroke-width="0.457143" stroke-linecap="round" stroke-linejoin="round"/>
<path d="M24.5224 27.9361C24.5349 28.4222 24.3925 28.7491 24.0991 28.9167C23.8058 29.0843 23.4496 29.0466 23.0305 28.8077C22.6115 28.5647 22.2553 28.1917 21.962 27.6805L19.234 22.9788V31.6489C19.234 32.1266 19.0915 32.4492 18.8107 32.6085C18.5258 32.7719 18.178 32.73 17.7589 32.4911C17.3399 32.2481 16.9921 31.8835 16.7071 31.3974C16.4264 30.9071 16.2838 30.4252 16.2838 29.9475V21.2732L16.1498 21.3529L14.1048 22.5513L13.5224 22.895C13.2248 23.0626 12.877 23.0291 12.4706 22.7944C12.0641 22.5597 11.7163 22.191 11.4187 21.6797C11.1254 21.1727 10.9704 20.6824 10.9578 20.2089C10.9452 19.7353 11.0877 19.4169 11.381 19.2492L12.546 18.5746L14.8759 17.2294L16.7281 16.1567L16.8077 16.119C17.0633 16.0142 17.3818 16.0729 17.7589 16.2908C18.178 16.5296 18.5216 16.8858 18.7898 17.351L20.0972 19.6054L24.0614 26.4401C24.3589 26.9513 24.5098 27.45 24.5224 27.9361Z" fill="#70707B" stroke="white" stroke-width="0.457143" stroke-linecap="round" stroke-linejoin="round"/>
<path d="M9.58337 31.0664L9.46603 31.1251Z" fill="#70707B"/>
<path d="M9.58337 31.0664L9.46603 31.1251" stroke="white" stroke-width="0.457143" stroke-linecap="round" stroke-linejoin="round"/>
<path d="M5.86215 14.8156L5.68619 14.9036Z" fill="#70707B"/>
<path d="M5.86215 14.8156L5.68619 14.9036" stroke="white" stroke-width="0.457143" stroke-linecap="round" stroke-linejoin="round"/>
<path d="M5.63608 7.47396L5.67378 7.45301H5.67797" fill="#70707B"/>
<path d="M5.63608 7.47396L5.67378 7.45301H5.67797" stroke="white" stroke-width="0.457143" stroke-linecap="round" stroke-linejoin="round"/>
<path d="M28.6877 25.0949C28.8176 25.5391 28.9392 25.9917 29.0439 26.4443L27.615 27.1608L25.8005 28.066L24.0992 28.9166C24.3925 28.749 24.535 28.4222 24.5224 27.9361C24.5098 27.45 24.359 26.9513 24.0615 26.4401L20.0973 19.6054L18.7898 17.3509C18.5216 16.8858 18.178 16.5296 17.759 16.2907C17.3818 16.0728 17.0634 16.0142 16.8077 16.1189L21.7735 13.634C21.8321 13.6884 21.8866 13.7429 21.9369 13.8016C22.0584 13.9231 22.1758 14.0446 22.2931 14.1703C22.8085 14.7193 23.3239 15.3143 23.8435 15.9513C24.2333 16.4332 24.6397 16.7643 25.0588 16.9486C25.4778 17.133 25.834 17.1414 26.1274 16.9738L28.65 15.7124L30.7369 19.3079L28.5495 20.3974L28.2687 20.5399L28.1933 20.5776C27.9209 20.7326 27.7616 21.0343 27.7114 21.4869C27.6611 21.9353 27.7491 22.4382 27.9712 22.9871C28.2394 23.6785 28.4782 24.3825 28.6877 25.0949Z" fill="#70707B" stroke="white" stroke-width="0.457143" stroke-linecap="round" stroke-linejoin="round"/>
<path d="M29.8737 40.6248L29.8821 40.6206L29.9491 40.5871" fill="#70707B"/>
<path d="M29.8737 40.6248L29.8821 40.6206L29.9491 40.5871" stroke="white" stroke-width="0.457143" stroke-linecap="round" stroke-linejoin="round"/>
<path d="M9.45762 5.2782L9.44086 5.28658Z" fill="#70707B"/>
<path d="M9.45762 5.2782L9.44086 5.28658" stroke="white" stroke-width="0.457143" stroke-linecap="round" stroke-linejoin="round"/>
</svg>
