<svg width="48" height="48" viewBox="0 0 48 48" fill="none" xmlns="http://www.w3.org/2000/svg">
<path d="M12.7881 19.26C12.5138 18.7886 12.1753 18.4372 11.7681 18.2014C11.3653 17.97 11.0267 17.9314 10.7524 18.0857C10.4781 18.2443 10.3409 18.5529 10.3409 19.0157C10.3409 19.4786 10.4781 19.95 10.7524 20.4214C11.0267 20.8972 11.3653 21.2486 11.7681 21.4843C12.1753 21.7157 12.5138 21.7543 12.7881 21.6C13.0624 21.4414 13.1995 21.1329 13.1995 20.6657C13.1995 20.1986 13.0624 19.7357 12.7881 19.26ZM12.7881 19.26C12.5138 18.7886 12.1753 18.4372 11.7681 18.2014C11.3653 17.97 11.0267 17.9314 10.7524 18.0857C10.4781 18.2443 10.3409 18.5529 10.3409 19.0157C10.3409 19.4786 10.4781 19.95 10.7524 20.4214C11.0267 20.8972 11.3653 21.2486 11.7681 21.4843C12.1753 21.7157 12.5138 21.7543 12.7881 21.6C13.0624 21.4414 13.1995 21.1329 13.1995 20.6657C13.1995 20.1986 13.0624 19.7357 12.7881 19.26ZM12.7881 19.26C12.5138 18.7886 12.1753 18.4372 11.7681 18.2014C11.3653 17.97 11.0267 17.9314 10.7524 18.0857C10.4781 18.2443 10.3409 18.5529 10.3409 19.0157C10.3409 19.4786 10.4781 19.95 10.7524 20.4214C11.0267 20.8972 11.3653 21.2486 11.7681 21.4843C12.1753 21.7157 12.5138 21.7543 12.7881 21.6C13.0624 21.4414 13.1995 21.1329 13.1995 20.6657C13.1995 20.1986 13.0624 19.7357 12.7881 19.26ZM12.7881 19.26C12.5138 18.7886 12.1753 18.4372 11.7681 18.2014C11.3653 17.97 11.0267 17.9314 10.7524 18.0857C10.4781 18.2443 10.3409 18.5529 10.3409 19.0157C10.3409 19.4786 10.4781 19.95 10.7524 20.4214C11.0267 20.8972 11.3653 21.2486 11.7681 21.4843C12.1753 21.7157 12.5138 21.7543 12.7881 21.6C13.0624 21.4414 13.1995 21.1329 13.1995 20.6657C13.1995 20.1986 13.0624 19.7357 12.7881 19.26ZM12.7881 19.26C12.5138 18.7886 12.1753 18.4372 11.7681 18.2014C11.3653 17.97 11.0267 17.9314 10.7524 18.0857C10.4781 18.2443 10.3409 18.5529 10.3409 19.0157C10.3409 19.4786 10.4781 19.95 10.7524 20.4214C11.0267 20.8972 11.3653 21.2486 11.7681 21.4843C12.1753 21.7157 12.5138 21.7543 12.7881 21.6C13.0624 21.4414 13.1995 21.1329 13.1995 20.6657C13.1995 20.1986 13.0624 19.7357 12.7881 19.26ZM12.7881 19.26C12.5138 18.7886 12.1753 18.4372 11.7681 18.2014C11.3653 17.97 11.0267 17.9314 10.7524 18.0857C10.4781 18.2443 10.3409 18.5529 10.3409 19.0157C10.3409 19.4786 10.4781 19.95 10.7524 20.4214C11.0267 20.8972 11.3653 21.2486 11.7681 21.4843C12.1753 21.7157 12.5138 21.7543 12.7881 21.6C13.0624 21.4414 13.1995 21.1329 13.1995 20.6657C13.1995 20.1986 13.0624 19.7357 12.7881 19.26ZM12.7881 19.26C12.5138 18.7886 12.1753 18.4372 11.7681 18.2014C11.3653 17.97 11.0267 17.9314 10.7524 18.0857C10.4781 18.2443 10.3409 18.5529 10.3409 19.0157C10.3409 19.4786 10.4781 19.95 10.7524 20.4214C11.0267 20.8972 11.3653 21.2486 11.7681 21.4843C12.1753 21.7157 12.5138 21.7543 12.7881 21.6C13.0624 21.4414 13.1995 21.1329 13.1995 20.6657C13.1995 20.1986 13.0624 19.7357 12.7881 19.26ZM12.7881 19.26C12.5138 18.7886 12.1753 18.4372 11.7681 18.2014C11.3653 17.97 11.0267 17.9314 10.7524 18.0857C10.4781 18.2443 10.3409 18.5529 10.3409 19.0157C10.3409 19.4786 10.4781 19.95 10.7524 20.4214C11.0267 20.8972 11.3653 21.2486 11.7681 21.4843C12.1753 21.7157 12.5138 21.7543 12.7881 21.6C13.0624 21.4414 13.1995 21.1329 13.1995 20.6657C13.1995 20.1986 13.0624 19.7357 12.7881 19.26ZM12.7881 19.26C12.5138 18.7886 12.1753 18.4372 11.7681 18.2014C11.3653 17.97 11.0267 17.9314 10.7524 18.0857C10.4781 18.2443 10.3409 18.5529 10.3409 19.0157C10.3409 19.4786 10.4781 19.95 10.7524 20.4214C11.0267 20.8972 11.3653 21.2486 11.7681 21.4843C12.1753 21.7157 12.5138 21.7543 12.7881 21.6C13.0624 21.4414 13.1995 21.1329 13.1995 20.6657C13.1995 20.1986 13.0624 19.7357 12.7881 19.26ZM12.7881 19.26C12.5138 18.7886 12.1753 18.4372 11.7681 18.2014C11.3653 17.97 11.0267 17.9314 10.7524 18.0857C10.4781 18.2443 10.3409 18.5529 10.3409 19.0157C10.3409 19.4786 10.4781 19.95 10.7524 20.4214C11.0267 20.8972 11.3653 21.2486 11.7681 21.4843C12.1753 21.7157 12.5138 21.7543 12.7881 21.6C13.0624 21.4414 13.1995 21.1329 13.1995 20.6657C13.1995 20.1986 13.0624 19.7357 12.7881 19.26ZM12.7881 19.26C12.5138 18.7886 12.1753 18.4372 11.7681 18.2014C11.3653 17.97 11.0267 17.9314 10.7524 18.0857C10.4781 18.2443 10.3409 18.5529 10.3409 19.0157C10.3409 19.4786 10.4781 19.95 10.7524 20.4214C11.0267 20.8972 11.3653 21.2486 11.7681 21.4843C12.1753 21.7157 12.5138 21.7543 12.7881 21.6C13.0624 21.4414 13.1995 21.1329 13.1995 20.6657C13.1995 20.1986 13.0624 19.7357 12.7881 19.26ZM12.7881 19.26C12.5138 18.7886 12.1753 18.4372 11.7681 18.2014C11.3653 17.97 11.0267 17.9314 10.7524 18.0857C10.4781 18.2443 10.3409 18.5529 10.3409 19.0157C10.3409 19.4786 10.4781 19.95 10.7524 20.4214C11.0267 20.8972 11.3653 21.2486 11.7681 21.4843C12.1753 21.7157 12.5138 21.7543 12.7881 21.6C13.0624 21.4414 13.1995 21.1329 13.1995 20.6657C13.1995 20.1986 13.0624 19.7357 12.7881 19.26ZM12.7881 19.26C12.5138 18.7886 12.1753 18.4372 11.7681 18.2014C11.3653 17.97 11.0267 17.9314 10.7524 18.0857C10.4781 18.2443 10.3409 18.5529 10.3409 19.0157C10.3409 19.4786 10.4781 19.95 10.7524 20.4214C11.0267 20.8972 11.3653 21.2486 11.7681 21.4843C12.1753 21.7157 12.5138 21.7543 12.7881 21.6C13.0624 21.4414 13.1995 21.1329 13.1995 20.6657C13.1995 20.1986 13.0624 19.7357 12.7881 19.26ZM12.7881 19.26C12.5138 18.7886 12.1753 18.4372 11.7681 18.2014C11.3653 17.97 11.0267 17.9314 10.7524 18.0857C10.4781 18.2443 10.3409 18.5529 10.3409 19.0157C10.3409 19.4786 10.4781 19.95 10.7524 20.4214C11.0267 20.8972 11.3653 21.2486 11.7681 21.4843C12.1753 21.7157 12.5138 21.7543 12.7881 21.6C13.0624 21.4414 13.1995 21.1329 13.1995 20.6657C13.1995 20.1986 13.0624 19.7357 12.7881 19.26ZM12.7881 19.26C12.5138 18.7886 12.1753 18.4372 11.7681 18.2014C11.3653 17.97 11.0267 17.9314 10.7524 18.0857C10.4781 18.2443 10.3409 18.5529 10.3409 19.0157C10.3409 19.4786 10.4781 19.95 10.7524 20.4214C11.0267 20.8972 11.3653 21.2486 11.7681 21.4843C12.1753 21.7157 12.5138 21.7543 12.7881 21.6C13.0624 21.4414 13.1995 21.1329 13.1995 20.6657C13.1995 20.1986 13.0624 19.7357 12.7881 19.26ZM12.7881 19.26C12.5138 18.7886 12.1753 18.4372 11.7681 18.2014C11.3653 17.97 11.0267 17.9314 10.7524 18.0857C10.4781 18.2443 10.3409 18.5529 10.3409 19.0157C10.3409 19.4786 10.4781 19.95 10.7524 20.4214C11.0267 20.8972 11.3653 21.2486 11.7681 21.4843C12.1753 21.7157 12.5138 21.7543 12.7881 21.6C13.0624 21.4414 13.1995 21.1329 13.1995 20.6657C13.1995 20.1986 13.0624 19.7357 12.7881 19.26ZM12.7881 19.26C12.5138 18.7886 12.1753 18.4372 11.7681 18.2014C11.3653 17.97 11.0267 17.9314 10.7524 18.0857C10.4781 18.2443 10.3409 18.5529 10.3409 19.0157C10.3409 19.4786 10.4781 19.95 10.7524 20.4214C11.0267 20.8972 11.3653 21.2486 11.7681 21.4843C12.1753 21.7157 12.5138 21.7543 12.7881 21.6C13.0624 21.4414 13.1995 21.1329 13.1995 20.6657C13.1995 20.1986 13.0624 19.7357 12.7881 19.26ZM12.7881 19.26C12.5138 18.7886 12.1753 18.4372 11.7681 18.2014C11.3653 17.97 11.0267 17.9314 10.7524 18.0857C10.4781 18.2443 10.3409 18.5529 10.3409 19.0157C10.3409 19.4786 10.4781 19.95 10.7524 20.4214C11.0267 20.8972 11.3653 21.2486 11.7681 21.4843C12.1753 21.7157 12.5138 21.7543 12.7881 21.6C13.0624 21.4414 13.1995 21.1329 13.1995 20.6657C13.1995 20.1986 13.0624 19.7357 12.7881 19.26ZM12.7881 19.26C12.5138 18.7886 12.1753 18.4372 11.7681 18.2014C11.3653 17.97 11.0267 17.9314 10.7524 18.0857C10.4781 18.2443 10.3409 18.5529 10.3409 19.0157C10.3409 19.4786 10.4781 19.95 10.7524 20.4214C11.0267 20.8972 11.3653 21.2486 11.7681 21.4843C12.1753 21.7157 12.5138 21.7543 12.7881 21.6C13.0624 21.4414 13.1995 21.1329 13.1995 20.6657C13.1995 20.1986 13.0624 19.7357 12.7881 19.26ZM12.7881 19.26C12.5138 18.7886 12.1753 18.4372 11.7681 18.2014C11.3653 17.97 11.0267 17.9314 10.7524 18.0857C10.4781 18.2443 10.3409 18.5529 10.3409 19.0157C10.3409 19.4786 10.4781 19.95 10.7524 20.4214C11.0267 20.8972 11.3653 21.2486 11.7681 21.4843C12.1753 21.7157 12.5138 21.7543 12.7881 21.6C13.0624 21.4414 13.1995 21.1329 13.1995 20.6657C13.1995 20.1986 13.0624 19.7357 12.7881 19.26ZM12.7881 19.26C12.5138 18.7886 12.1753 18.4372 11.7681 18.2014C11.3653 17.97 11.0267 17.9314 10.7524 18.0857C10.4781 18.2443 10.3409 18.5529 10.3409 19.0157C10.3409 19.4786 10.4781 19.95 10.7524 20.4214C11.0267 20.8972 11.3653 21.2486 11.7681 21.4843C12.1753 21.7157 12.5138 21.7543 12.7881 21.6C13.0624 21.4414 13.1995 21.1329 13.1995 20.6657C13.1995 20.1986 13.0624 19.7357 12.7881 19.26ZM12.7881 19.26C12.5138 18.7886 12.1753 18.4372 11.7681 18.2014C11.3653 17.97 11.0267 17.9314 10.7524 18.0857C10.4781 18.2443 10.3409 18.5529 10.3409 19.0157C10.3409 19.4786 10.4781 19.95 10.7524 20.4214C11.0267 20.8972 11.3653 21.2486 11.7681 21.4843C12.1753 21.7157 12.5138 21.7543 12.7881 21.6C13.0624 21.4414 13.1995 21.1329 13.1995 20.6657C13.1995 20.1986 13.0624 19.7357 12.7881 19.26ZM12.7881 19.26C12.5138 18.7886 12.1753 18.4372 11.7681 18.2014C11.3653 17.97 11.0267 17.9314 10.7524 18.0857C10.4781 18.2443 10.3409 18.5529 10.3409 19.0157C10.3409 19.4786 10.4781 19.95 10.7524 20.4214C11.0267 20.8972 11.3653 21.2486 11.7681 21.4843C12.1753 21.7157 12.5138 21.7543 12.7881 21.6C13.0624 21.4414 13.1995 21.1329 13.1995 20.6657C13.1995 20.1986 13.0624 19.7357 12.7881 19.26ZM12.7881 19.26C12.5138 18.7886 12.1753 18.4372 11.7681 18.2014C11.3653 17.97 11.0267 17.9314 10.7524 18.0857C10.4781 18.2443 10.3409 18.5529 10.3409 19.0157C10.3409 19.4786 10.4781 19.95 10.7524 20.4214C11.0267 20.8972 11.3653 21.2486 11.7681 21.4843C12.1753 21.7157 12.5138 21.7543 12.7881 21.6C13.0624 21.4414 13.1995 21.1329 13.1995 20.6657C13.1995 20.1986 13.0624 19.7357 12.7881 19.26ZM12.7881 19.26C12.5138 18.7886 12.1753 18.4372 11.7681 18.2014C11.3653 17.97 11.0267 17.9314 10.7524 18.0857C10.4781 18.2443 10.3409 18.5529 10.3409 19.0157C10.3409 19.4786 10.4781 19.95 10.7524 20.4214C11.0267 20.8972 11.3653 21.2486 11.7681 21.4843C12.1753 21.7157 12.5138 21.7543 12.7881 21.6C13.0624 21.4414 13.1995 21.1329 13.1995 20.6657C13.1995 20.1986 13.0624 19.7357 12.7881 19.26ZM12.7881 19.26C12.5138 18.7886 12.1753 18.4372 11.7681 18.2014C11.3653 17.97 11.0267 17.9314 10.7524 18.0857C10.4781 18.2443 10.3409 18.5529 10.3409 19.0157C10.3409 19.4786 10.4781 19.95 10.7524 20.4214C11.0267 20.8972 11.3653 21.2486 11.7681 21.4843C12.1753 21.7157 12.5138 21.7543 12.7881 21.6C13.0624 21.4414 13.1995 21.1329 13.1995 20.6657C13.1995 20.1986 13.0624 19.7357 12.7881 19.26ZM12.7881 19.26C12.5138 18.7886 12.1753 18.4372 11.7681 18.2014C11.3653 17.97 11.0267 17.9314 10.7524 18.0857C10.4781 18.2443 10.3409 18.5529 10.3409 19.0157C10.3409 19.4786 10.4781 19.95 10.7524 20.4214C11.0267 20.8972 11.3653 21.2486 11.7681 21.4843C12.1753 21.7157 12.5138 21.7543 12.7881 21.6C13.0624 21.4414 13.1995 21.1329 13.1995 20.6657C13.1995 20.1986 13.0624 19.7357 12.7881 19.26ZM12.7881 19.26C12.5138 18.7886 12.1753 18.4372 11.7681 18.2014C11.3653 17.97 11.0267 17.9314 10.7524 18.0857C10.4781 18.2443 10.3409 18.5529 10.3409 19.0157C10.3409 19.4786 10.4781 19.95 10.7524 20.4214C11.0267 20.8972 11.3653 21.2486 11.7681 21.4843C12.1753 21.7157 12.5138 21.7543 12.7881 21.6C13.0624 21.4414 13.1995 21.1329 13.1995 20.6657C13.1995 20.1986 13.0624 19.7357 12.7881 19.26ZM12.7881 19.26C12.5138 18.7886 12.1753 18.4372 11.7681 18.2014C11.3653 17.97 11.0267 17.9314 10.7524 18.0857C10.4781 18.2443 10.3409 18.5529 10.3409 19.0157C10.3409 19.4786 10.4781 19.95 10.7524 20.4214C11.0267 20.8972 11.3653 21.2486 11.7681 21.4843C12.1753 21.7157 12.5138 21.7543 12.7881 21.6C13.0624 21.4414 13.1995 21.1329 13.1995 20.6657C13.1995 20.1986 13.0624 19.7357 12.7881 19.26ZM12.7881 19.26C12.5138 18.7886 12.1753 18.4372 11.7681 18.2014C11.3653 17.97 11.0267 17.9314 10.7524 18.0857C10.4781 18.2443 10.3409 18.5529 10.3409 19.0157C10.3409 19.4786 10.4781 19.95 10.7524 20.4214C11.0267 20.8972 11.3653 21.2486 11.7681 21.4843C12.1753 21.7157 12.5138 21.7543 12.7881 21.6C13.0624 21.4414 13.1995 21.1329 13.1995 20.6657C13.1995 20.1986 13.0624 19.7357 12.7881 19.26ZM12.7881 19.26C12.5138 18.7886 12.1753 18.4372 11.7681 18.2014C11.3653 17.97 11.0267 17.9314 10.7524 18.0857C10.4781 18.2443 10.3409 18.5529 10.3409 19.0157C10.3409 19.4786 10.4781 19.95 10.7524 20.4214C11.0267 20.8972 11.3653 21.2486 11.7681 21.4843C12.1753 21.7157 12.5138 21.7543 12.7881 21.6C13.0624 21.4414 13.1995 21.1329 13.1995 20.6657C13.1995 20.1986 13.0624 19.7357 12.7881 19.26ZM12.7881 19.26C12.5138 18.7886 12.1753 18.4372 11.7681 18.2014C11.3653 17.97 11.0267 17.9314 10.7524 18.0857C10.4781 18.2443 10.3409 18.5529 10.3409 19.0157C10.3409 19.4786 10.4781 19.95 10.7524 20.4214C11.0267 20.8972 11.3653 21.2486 11.7681 21.4843C12.1753 21.7157 12.5138 21.7543 12.7881 21.6C13.0624 21.4414 13.1995 21.1329 13.1995 20.6657C13.1995 20.1986 13.0624 19.7357 12.7881 19.26ZM12.7881 19.26C12.5138 18.7886 12.1753 18.4372 11.7681 18.2014C11.3653 17.97 11.0267 17.9314 10.7524 18.0857C10.4781 18.2443 10.3409 18.5529 10.3409 19.0157C10.3409 19.4786 10.4781 19.95 10.7524 20.4214C11.0267 20.8972 11.3653 21.2486 11.7681 21.4843C12.1753 21.7157 12.5138 21.7543 12.7881 21.6C13.0624 21.4414 13.1995 21.1329 13.1995 20.6657C13.1995 20.1986 13.0624 19.7357 12.7881 19.26ZM12.7881 19.26C12.5138 18.7886 12.1753 18.4372 11.7681 18.2014C11.3653 17.97 11.0267 17.9314 10.7524 18.0857C10.4781 18.2443 10.3409 18.5529 10.3409 19.0157C10.3409 19.4786 10.4781 19.95 10.7524 20.4214C11.0267 20.8972 11.3653 21.2486 11.7681 21.4843C12.1753 21.7157 12.5138 21.7543 12.7881 21.6C13.0624 21.4414 13.1995 21.1329 13.1995 20.6657C13.1995 20.1986 13.0624 19.7357 12.7881 19.26ZM12.7881 19.26C12.5138 18.7886 12.1753 18.4372 11.7681 18.2014C11.3653 17.97 11.0267 17.9314 10.7524 18.0857C10.4781 18.2443 10.3409 18.5529 10.3409 19.0157C10.3409 19.4786 10.4781 19.95 10.7524 20.4214C11.0267 20.8972 11.3653 21.2486 11.7681 21.4843C12.1753 21.7157 12.5138 21.7543 12.7881 21.6C13.0624 21.4414 13.1995 21.1329 13.1995 20.6657C13.1995 20.1986 13.0624 19.7357 12.7881 19.26ZM12.7881 19.26C12.5138 18.7886 12.1753 18.4372 11.7681 18.2014C11.3653 17.97 11.0267 17.9314 10.7524 18.0857C10.4781 18.2443 10.3409 18.5529 10.3409 19.0157C10.3409 19.4786 10.4781 19.95 10.7524 20.4214C11.0267 20.8972 11.3653 21.2486 11.7681 21.4843C12.1753 21.7157 12.5138 21.7543 12.7881 21.6C13.0624 21.4414 13.1995 21.1329 13.1995 20.6657C13.1995 20.1986 13.0624 19.7357 12.7881 19.26ZM12.7881 19.26C12.5138 18.7886 12.1753 18.4372 11.7681 18.2014C11.3653 17.97 11.0267 17.9314 10.7524 18.0857C10.4781 18.2443 10.3409 18.5529 10.3409 19.0157C10.3409 19.4786 10.4781 19.95 10.7524 20.4214C11.0267 20.8972 11.3653 21.2486 11.7681 21.4843C12.1753 21.7157 12.5138 21.7543 12.7881 21.6C13.0624 21.4414 13.1995 21.1329 13.1995 20.6657C13.1995 20.1986 13.0624 19.7357 12.7881 19.26ZM35.3438 32.01V32.2929C35.3438 32.1643 35.3438 32.0357 35.3438 31.9072C35.3438 31.9414 35.3438 31.9757 35.3438 32.01Z" fill="#71A7E6" stroke="white" stroke-width="0.428571" stroke-linecap="round" stroke-linejoin="round"/>
<path d="M35.3441 32.0104V32.2933C35.3441 32.1647 35.3441 32.0361 35.3441 31.9076C35.3441 31.9419 35.3441 31.9761 35.3441 32.0104ZM28.6411 19.3633C28.6411 19.3633 28.6241 19.3761 28.6155 19.3804L28.6455 19.3676H28.6411V19.3633ZM28.6411 19.3633C28.6411 19.3633 28.6241 19.3761 28.6155 19.3804L28.6455 19.3676H28.6411V19.3633ZM28.6411 19.3633C28.6411 19.3633 28.6241 19.3761 28.6155 19.3804L28.6455 19.3676H28.6411V19.3633ZM28.6411 19.3633C28.6411 19.3633 28.6241 19.3761 28.6155 19.3804L28.6455 19.3676H28.6411V19.3633ZM28.6411 19.3633C28.6411 19.3633 28.6241 19.3761 28.6155 19.3804L28.6455 19.3676H28.6411V19.3633ZM28.6411 19.3633C28.6411 19.3633 28.6241 19.3761 28.6155 19.3804L28.6455 19.3676H28.6411V19.3633ZM28.6411 19.3633C28.6411 19.3633 28.6241 19.3761 28.6155 19.3804L28.6455 19.3676H28.6411V19.3633ZM28.6411 19.3633C28.6411 19.3633 28.6241 19.3761 28.6155 19.3804L28.6455 19.3676H28.6411V19.3633ZM28.6411 19.3633C28.6411 19.3633 28.6241 19.3761 28.6155 19.3804L28.6455 19.3676H28.6411V19.3633ZM28.6411 19.3633C28.6411 19.3633 28.6241 19.3761 28.6155 19.3804L28.6455 19.3676H28.6411V19.3633ZM28.6411 19.3633C28.6411 19.3633 28.6241 19.3761 28.6155 19.3804L28.6455 19.3676H28.6411V19.3633ZM28.6411 19.3633C28.6411 19.3633 28.6241 19.3761 28.6155 19.3804L28.6455 19.3676H28.6411V19.3633ZM28.6411 19.3633C28.6411 19.3633 28.6241 19.3761 28.6155 19.3804L28.6455 19.3676H28.6411V19.3633ZM28.6411 19.3633C28.6411 19.3633 28.6241 19.3761 28.6155 19.3804L28.6455 19.3676H28.6411V19.3633ZM28.6411 19.3633C28.6411 19.3633 28.6241 19.3761 28.6155 19.3804L28.6455 19.3676H28.6411V19.3633ZM28.6411 19.3633C28.6411 19.3633 28.6241 19.3761 28.6155 19.3804L28.6455 19.3676H28.6411V19.3633ZM28.6411 19.3633C28.6411 19.3633 28.6241 19.3761 28.6155 19.3804L28.6455 19.3676H28.6411V19.3633ZM28.6411 19.3633C28.6411 19.3633 28.6241 19.3761 28.6155 19.3804L28.6455 19.3676H28.6411V19.3633ZM28.6411 19.3633C28.6411 19.3633 28.6241 19.3761 28.6155 19.3804L28.6455 19.3676H28.6411V19.3633ZM28.6411 19.3633C28.6411 19.3633 28.6241 19.3761 28.6155 19.3804L28.6455 19.3676H28.6411V19.3633ZM28.6411 19.3633C28.6411 19.3633 28.6241 19.3761 28.6155 19.3804L28.6455 19.3676H28.6411V19.3633ZM28.6411 19.3633C28.6411 19.3633 28.6241 19.3761 28.6155 19.3804L28.6455 19.3676H28.6411V19.3633ZM28.6411 19.3633C28.6411 19.3633 28.6241 19.3761 28.6155 19.3804L28.6455 19.3676H28.6411V19.3633ZM28.6411 19.3633C28.6411 19.3633 28.6241 19.3761 28.6155 19.3804L28.6455 19.3676H28.6411V19.3633Z" fill="#71A7E6" stroke="white" stroke-width="0.428571" stroke-linecap="round" stroke-linejoin="round"/>
<path d="M26.2668 22.5559C25.9753 21.2744 25.5425 19.9759 24.981 18.673C24.5482 17.6659 24.0382 16.6587 23.4511 15.643C22.5039 14.0059 21.4668 12.553 20.3439 11.2801C18.8354 9.57872 17.1682 8.203 15.3425 7.14872C14.4853 6.65586 13.6668 6.27443 12.8825 6.00015C10.971 5.34015 9.26537 5.34443 7.77394 6.00872L7.23392 6.27872C5.01821 7.53872 3.9082 10.003 3.9082 13.663C3.9082 17.323 5.01821 21.0687 7.23392 24.8873C9.44537 28.7101 12.1496 31.543 15.3425 33.3859C18.5353 35.2287 21.2354 35.5159 23.4511 34.2516C24.8997 33.4287 25.8726 32.0916 26.3697 30.2401C26.6354 29.2801 26.7682 28.183 26.7725 26.9444V26.8673C26.7725 25.4401 26.6053 24.0044 26.2668 22.5559ZM23.9054 25.813C23.8497 26.9487 23.6354 27.913 23.2626 28.7059C22.8468 29.5973 22.2339 30.2744 21.4154 30.7416C19.7482 31.693 17.7253 31.4787 15.3425 30.103C12.9125 28.7016 10.8639 26.5373 9.1968 23.6059C7.52966 20.6744 6.7196 17.8416 6.76674 15.1116C8.26676 15.6773 9.68109 15.8744 11.0011 15.7116C11.8625 15.6044 12.6296 15.3387 13.311 14.923C13.6796 14.6959 14.0268 14.4301 14.3439 14.113C14.6697 14.6873 15.0125 15.2401 15.3725 15.7759C15.921 16.6073 16.5082 17.3916 17.1339 18.1287C17.3911 18.4373 17.6568 18.7373 17.931 19.0287C18.1668 19.2859 18.4153 19.5387 18.6639 19.7873C19.1482 20.2587 19.6325 20.6959 20.1254 21.0987C21.3125 22.0759 22.5254 22.8473 23.7725 23.413C23.7897 23.5373 23.8068 23.6616 23.8239 23.7773C23.8453 23.9701 23.8668 24.1587 23.8797 24.3344C23.9054 24.6216 23.9182 24.9173 23.9182 25.2173C23.9182 25.423 23.914 25.6201 23.9054 25.813Z" fill="#71A7E6" stroke="white" stroke-width="0.428571" stroke-linecap="round" stroke-linejoin="round"/>
<path d="M17.931 19.0287L17.6781 19.1573L15.5824 20.203L12.7881 21.6002C13.0624 21.4416 13.1995 21.133 13.1995 20.6659C13.1995 20.1987 13.0624 19.7359 12.7881 19.2602C12.5138 18.7887 12.1753 18.4373 11.7681 18.2016C11.3653 17.9702 11.0267 17.9316 10.7524 18.0859L13.8552 16.5345L15.3724 15.7759C15.921 16.6073 16.5081 17.3916 17.1339 18.1287C17.391 18.4373 17.6567 18.7373 17.931 19.0287Z" fill="#71A7E6" stroke="white" stroke-width="0.428571" stroke-linecap="round" stroke-linejoin="round"/>
<path d="M20.3439 24.7932C20.3439 25.2561 20.2067 25.5689 19.9324 25.7232C19.8596 25.7661 19.7824 25.7918 19.701 25.8046C19.4739 25.8475 19.2124 25.7832 18.9167 25.6075C18.5095 25.3761 18.171 25.0204 17.8967 24.5489C17.631 24.0904 17.4938 23.6361 17.4852 23.1861V23.1432C17.4852 22.6804 17.6224 22.3675 17.8967 22.2132L17.9824 22.1704C18.2396 22.0632 18.5524 22.1189 18.9167 22.3289C19.3195 22.5604 19.6581 22.9161 19.9324 23.3875C20.2067 23.8589 20.3439 24.3304 20.3439 24.7932Z" fill="#71A7E6" stroke="white" stroke-width="0.428571" stroke-linecap="round" stroke-linejoin="round"/>
<path d="M23.8238 23.7772L22.1481 24.6172L19.9324 25.7229C20.2067 25.5686 20.3439 25.2558 20.3439 24.7929C20.3439 24.3301 20.2067 23.8586 19.9324 23.3872C19.6581 22.9158 19.3195 22.5601 18.9167 22.3286C18.5524 22.1186 18.2396 22.0629 17.9824 22.1701L19.221 21.5529L20.1253 21.0986C21.3124 22.0758 22.5253 22.8472 23.7724 23.4129C23.7896 23.5372 23.8067 23.6615 23.8238 23.7772Z" fill="#71A7E6" stroke="white" stroke-width="0.428571" stroke-linecap="round" stroke-linejoin="round"/>
<path d="M23.9052 25.8133C23.8495 26.949 23.6352 27.9133 23.2624 28.7061C22.8467 29.5976 22.2338 30.2747 21.4152 30.7419C19.7481 31.6933 17.7252 31.479 15.3423 30.1033C12.9123 28.7019 10.8638 26.5376 9.19667 23.6061C7.52953 20.6747 6.71945 17.8419 6.76659 15.1119C8.26658 15.6776 9.68091 15.8747 11.0009 15.7119C11.8623 15.6047 12.6294 15.339 13.3109 14.9233C13.6794 14.6961 14.0267 14.4304 14.3438 14.1133C14.6695 14.6876 15.0123 15.2404 15.3723 15.7761L13.8552 16.5347L10.7523 18.0861C10.4781 18.2447 10.3409 18.5533 10.3409 19.0161C10.3409 19.479 10.4781 19.9504 10.7523 20.4219C11.0266 20.8976 11.3652 21.249 11.7681 21.4847C12.1752 21.7161 12.5138 21.7547 12.7881 21.6004L15.5823 20.2033L17.6781 19.1576C17.7081 19.2133 17.7381 19.2647 17.7681 19.3204C18.2224 20.1219 18.7066 20.8676 19.2209 21.5533L17.9824 22.1704L17.8967 22.2133C17.6224 22.3676 17.4852 22.6804 17.4852 23.1433V23.1861C17.4937 23.6361 17.631 24.0904 17.8967 24.549C18.171 25.0204 18.5095 25.3761 18.9166 25.6076C19.2123 25.7833 19.4738 25.8476 19.701 25.8047C19.7824 25.7919 19.8595 25.7661 19.9324 25.7233L22.1481 24.6176C22.7095 25.0633 23.2967 25.4619 23.9052 25.8133Z" fill="#71A7E6" stroke="white" stroke-width="0.428571" stroke-linecap="round" stroke-linejoin="round"/>
<path d="M33.1625 29.1173C32.824 29.4431 32.4425 29.7259 32.0225 29.9659C31.714 30.1416 31.3925 30.2916 31.0625 30.4073L23.4511 34.2516C24.8997 33.4288 25.8726 32.0916 26.3697 30.2402C26.6354 29.2802 26.7682 28.1831 26.7725 26.9445V26.8673C26.7725 25.4402 26.6053 24.0045 26.2668 22.5559C25.9753 21.2745 25.5425 19.9759 24.9811 18.6731C24.5482 17.6659 24.0382 16.6588 23.4511 15.6431C22.504 14.0059 21.4668 12.5531 20.344 11.2802C18.8354 9.57877 17.1682 8.20306 15.3425 7.14877C14.4853 6.65591 13.6668 6.27448 12.8825 6.0002C10.9711 5.3402 9.26538 5.34448 7.77396 6.00877L15.8054 1.99304C18.0168 0.728757 20.7211 1.02019 23.9139 2.86304C26.5282 4.37163 28.8125 6.54449 30.7753 9.38163L27.2697 11.1345L27.184 11.1773C26.9097 11.3316 26.7725 11.6445 26.7725 12.1073V17.4388C26.7725 17.5673 26.7853 17.7002 26.8153 17.8331C26.8625 18.0516 26.9482 18.2745 27.0768 18.4931C27.2825 18.8445 27.5354 19.1059 27.8482 19.2859C28.1568 19.4659 28.414 19.4959 28.6154 19.3802L28.6453 19.3673L30.4882 18.4416C31.1354 19.9545 31.6711 21.4802 32.0997 23.0102C32.134 23.1388 32.1682 23.2673 32.2025 23.3916C32.7297 25.3673 33.0511 27.2745 33.1625 29.1173Z" fill="#71A7E6" stroke="white" stroke-width="0.428571" stroke-linecap="round" stroke-linejoin="round"/>
<path d="M30.4882 18.4418L28.6453 19.3675H28.6411C28.8253 19.2432 28.9197 19.0118 28.9197 18.6732V15.1504C29.4211 16.0932 29.8797 17.0404 30.2954 17.9875C30.3597 18.1375 30.424 18.2875 30.4882 18.4418Z" fill="#71A7E6" stroke="white" stroke-width="0.428571" stroke-linecap="round" stroke-linejoin="round"/>
<path d="M35.3483 31.8176V31.9076C35.3483 31.9419 35.3483 31.9761 35.3483 32.0104V32.2933C35.3055 34.6676 34.9369 36.7676 34.2469 38.5976C33.5054 40.5476 32.434 42.1033 31.0283 43.2607L32.854 44.3106C33.1626 44.4906 33.4198 44.7564 33.6212 45.1035C33.8226 45.4506 33.9254 45.8064 33.9254 46.1621C33.9254 46.5178 33.8226 46.7492 33.6212 46.8649C33.4198 46.9806 33.1626 46.9506 32.854 46.7706L28.2083 44.0878C27.8011 43.8564 27.4626 43.5049 27.1883 43.0292C26.9141 42.5576 26.7769 42.0904 26.7769 41.6233V36.2961C26.7769 35.9404 26.8798 35.7047 27.0812 35.589L27.1454 35.559C27.3383 35.4819 27.5698 35.5204 27.8526 35.6833C28.1612 35.8633 28.4183 36.129 28.6198 36.4761C28.8212 36.8233 28.9241 37.179 28.9241 37.5347V41.0576C30.3041 40.0504 31.3626 38.6533 32.104 36.8661C32.6312 35.5933 32.9698 34.1619 33.1198 32.5719C33.1798 31.929 33.2098 31.269 33.2098 30.579C33.2098 30.099 33.1926 29.6104 33.1669 29.1176C33.0554 27.2747 32.734 25.3676 32.2069 23.3919C32.1726 23.2676 32.1383 23.139 32.104 23.0104C31.6754 21.4804 31.1397 19.9547 30.4926 18.4419C30.4283 18.2876 30.3641 18.1376 30.2998 17.9876C29.8841 17.0404 29.4255 16.0933 28.9241 15.1504V18.6733C28.9241 19.0119 28.8297 19.2433 28.6454 19.3633C28.6369 19.3719 28.6283 19.3761 28.6198 19.3804C28.4183 19.4961 28.1612 19.4661 27.8526 19.2861C27.5398 19.1061 27.2869 18.8447 27.0812 18.4933C26.9526 18.2747 26.8668 18.0519 26.8197 17.8333C26.7897 17.7004 26.7769 17.5676 26.7769 17.439V12.1076C26.7769 11.6447 26.9141 11.3319 27.1883 11.1776L27.274 11.1347C27.5312 11.0276 27.844 11.0833 28.2083 11.2933L32.854 13.9761C33.1626 14.1519 33.4198 14.4176 33.6212 14.7647C33.8226 15.1161 33.9254 15.4676 33.9254 15.8233C33.9254 16.179 33.8226 16.4147 33.6212 16.5304C33.4198 16.6461 33.1626 16.6119 32.854 16.4361L31.0283 15.3819C31.4097 16.1361 31.7654 16.8904 32.0954 17.6447C32.9912 19.6761 33.7069 21.7119 34.2469 23.7561C34.4783 24.6304 34.6712 25.4961 34.8298 26.349C35.1555 28.0976 35.3269 29.799 35.3483 31.4533C35.3483 31.5776 35.3483 31.6976 35.3483 31.8176Z" fill="#71A7E6" stroke="white" stroke-width="0.428571" stroke-linecap="round" stroke-linejoin="round"/>
<path d="M42.4924 11.5373C42.4924 11.893 42.3896 12.1287 42.1881 12.2444L40.5338 13.0716L38.9395 13.8687L37.4781 14.5973L36.5482 15.0644L34.2553 16.213L33.6167 16.5301C33.8181 16.4144 33.921 16.1787 33.921 15.823C33.921 15.4673 33.8181 15.1158 33.6167 14.7644C33.4153 14.4173 33.1581 14.1516 32.8495 13.9758L28.2038 11.293C27.8395 11.083 27.5267 11.0273 27.2695 11.1344L30.7752 9.38156L35.7553 6.89156C36.0296 6.73299 36.3681 6.77156 36.7752 7.00727L41.421 9.69013C41.7295 9.86584 41.9867 10.1316 42.1881 10.4787C42.3896 10.8301 42.4924 11.1816 42.4924 11.5373Z" fill="#71A7E6" stroke="white" stroke-width="0.428571" stroke-linecap="round" stroke-linejoin="round"/>
<path d="M43.9197 27.5313C43.9197 30.0984 43.5511 32.3613 42.814 34.3113C42.0725 36.2613 41.0011 37.817 39.5954 38.9741L37.3153 40.1141L31.024 43.2599C32.4297 42.1027 33.5011 40.547 34.2425 38.597C34.9325 36.767 35.3011 34.667 35.344 32.2927C35.344 32.1641 35.344 32.0356 35.344 31.907V31.817C35.344 31.697 35.344 31.577 35.344 31.4527C35.3225 29.7984 35.1511 28.097 34.8254 26.3484C34.6669 25.4956 34.474 24.6299 34.2425 23.7556C33.7025 21.7113 32.9868 19.6756 32.0911 17.6441C31.7611 16.8899 31.4054 16.1356 31.024 15.3813L32.8497 16.4356C33.1582 16.6113 33.4154 16.6456 33.6168 16.5299L34.2554 16.2127L36.5483 15.0641L37.4782 14.6013L38.9396 13.8684L40.5339 13.0713C41.4896 15.197 42.2482 17.3313 42.814 19.4699C43.5511 22.2727 43.9197 24.9599 43.9197 27.5313Z" fill="#71A7E6" stroke="white" stroke-width="0.428571" stroke-linecap="round" stroke-linejoin="round"/>
<path d="M42.4925 41.876C42.4925 42.2275 42.3897 42.4632 42.1882 42.5789L42.1282 42.6089L33.6168 46.8644C33.8182 46.7487 33.9211 46.513 33.9211 46.1616C33.9211 45.8102 33.8182 45.4502 33.6168 45.103C33.4154 44.7559 33.1582 44.4902 32.8497 44.3102L31.024 43.2602L37.3153 40.1146L39.5954 38.9746L41.4211 40.0246C41.7297 40.2046 41.9868 40.4703 42.1882 40.8175C42.3897 41.1646 42.4925 41.5203 42.4925 41.876Z" fill="#71A7E6" stroke="white" stroke-width="0.428571" stroke-linecap="round" stroke-linejoin="round"/>
<path d="M33.1154 32.5713C32.9654 34.1613 32.6268 35.5927 32.0997 36.8656C31.3582 38.6527 30.2997 40.0499 28.9197 41.057V37.5341C28.9197 37.1784 28.8169 36.8227 28.6154 36.4756C28.414 36.1284 28.1568 35.8627 27.8482 35.6827C27.5654 35.5199 27.3339 35.4813 27.1411 35.5584L33.1154 32.5713Z" fill="#71A7E6" stroke="white" stroke-width="0.428571" stroke-linecap="round" stroke-linejoin="round"/>
</svg>
