<svg width="20" height="20" viewBox="0 0 20 20" fill="none" xmlns="http://www.w3.org/2000/svg">
<path d="M16.555 5.41219C15.6784 4.16136 14.4632 3.18655 13.052 2.60219C13.843 3.99384 14.4045 5.50387 14.715 7.07419C15.4059 6.61257 16.0257 6.05268 16.555 5.41219ZM13.326 7.82519C12.9874 5.73772 12.1606 3.7597 10.913 2.05219C10.3063 1.98325 9.69372 1.98325 9.087 2.05219C7.83936 3.7597 7.01259 5.73772 6.674 7.82519C7.7258 8.2722 8.85716 8.5018 10 8.50019C11.18 8.50019 12.304 8.26019 13.326 7.82519ZM6.514 9.37619C7.62951 9.79035 8.8101 10.0017 10 10.0002C11.226 10.0002 12.4 9.78019 13.486 9.37619C13.5451 10.6394 13.427 11.9047 13.135 13.1352C12.1078 13.3787 11.0557 13.5012 10 13.5002C8.921 13.5002 7.872 13.3732 6.866 13.1342C6.57376 11.9041 6.45528 10.6391 6.514 9.37619ZM5.285 7.07419C5.59562 5.50422 6.15715 3.99454 6.948 2.60319C5.5368 3.18755 4.32158 4.16236 3.445 5.41319C3.974 6.05119 4.594 6.61319 5.285 7.07419ZM17.334 6.79819C17.8993 8.09134 18.1111 9.51136 17.948 10.9132C16.9707 11.6267 15.9018 12.2052 14.77 12.6332C15 11.3334 15.0585 10.0092 14.944 8.69419C15.8326 8.18759 16.6385 7.54821 17.334 6.79819ZM2.666 6.79819C3.36146 7.54822 4.16743 8.1876 5.056 8.69419C4.94261 10.0095 5.0011 11.334 5.23 12.6342C4.09824 12.2062 3.02929 11.6276 2.052 10.9142C1.88918 9.51227 2.10141 8.09225 2.667 6.79919L2.666 6.79819ZM10 15.0002C10.898 15.0002 11.778 14.9212 12.633 14.7702C12.205 15.902 11.6264 16.9709 10.913 17.9482C10.3063 18.017 9.69372 18.017 9.087 17.9482C8.37353 16.9709 7.795 15.902 7.367 14.7702C8.222 14.9212 9.102 15.0002 10 15.0002ZM14.357 14.3572C14.0361 15.4158 13.5984 16.4354 13.052 17.3972C14.0261 16.9938 14.9112 16.4024 15.6567 15.6569C16.4023 14.9114 16.9936 14.0263 17.397 13.0522C16.444 13.5942 15.426 14.0332 14.357 14.3572ZM6.948 17.3972C5.9739 16.9938 5.0888 16.4024 4.34328 15.6569C3.59775 14.9114 3.0064 14.0263 2.603 13.0522C3.556 13.5942 4.574 14.0332 5.643 14.3572C5.9639 15.4158 6.4016 16.4354 6.948 17.3972Z" fill="#126DD6"/>
</svg>
