<svg width="22" height="22" viewBox="0 0 22 22" fill="none" xmlns="http://www.w3.org/2000/svg">
<path fill-rule="evenodd" clip-rule="evenodd" d="M11.1928 21.5H11.3072C13.4979 21.5 15.2186 21.5 16.562 21.3194C17.9386 21.1343 19.0309 20.7473 19.8891 19.8891C20.7473 19.0309 21.1343 17.9386 21.3194 16.562C21.5 15.2186 21.5 13.4979 21.5 11.3072V11.1928C21.5 9.0021 21.5 7.28144 21.3194 5.93802C21.1343 4.56137 20.7473 3.46911 19.8891 2.61091C19.0309 1.75271 17.9386 1.36568 16.562 1.18059C15.2186 0.999977 13.4979 0.999987 11.3072 1H11.1928C9.0021 0.999987 7.28144 0.999977 5.93802 1.18059C4.56137 1.36568 3.46911 1.75271 2.61091 2.61091C1.75272 3.46911 1.36568 4.56137 1.18059 5.93802C0.999977 7.28144 0.999987 9.00211 1 11.1928V11.1928V11.3072V11.3072C0.999987 13.4979 0.999977 15.2186 1.18059 16.562C1.36568 17.9386 1.75272 19.0309 2.61091 19.8891C3.46911 20.7473 4.56137 21.1343 5.93802 21.3194C7.28144 21.5 9.00212 21.5 11.1928 21.5ZM12.2559 15.25C12.2559 15.8023 11.8081 16.25 11.2559 16.25C10.7036 16.25 10.2559 15.8023 10.2559 15.25V10.75L9.6616 10.75C9.48596 10.7501 9.27031 10.7503 9.09387 10.7282L9.09053 10.7278C8.96408 10.712 8.38804 10.6402 8.11368 10.0746C7.83872 9.50775 8.14065 9.00761 8.20597 8.8994L8.20841 8.89537C8.30062 8.74235 8.43477 8.57147 8.54511 8.43092L8.56885 8.40067C8.86348 8.02485 9.24545 7.54063 9.62588 7.14962C9.81571 6.95451 10.033 6.75328 10.2639 6.59443C10.4691 6.45323 10.8193 6.24996 11.25 6.24996C11.6807 6.24996 12.0309 6.45323 12.2361 6.59443C12.467 6.75328 12.6843 6.95451 12.8741 7.14962C13.2546 7.54063 13.6365 8.02485 13.9312 8.40067L13.9549 8.43091C14.0652 8.57147 14.1994 8.74235 14.2916 8.89537L14.294 8.89941C14.3593 9.00761 14.6613 9.50775 14.3863 10.0746C14.112 10.6402 13.5359 10.712 13.4095 10.7278L13.4061 10.7282C13.2297 10.7503 13.014 10.7501 12.8384 10.75L12.2559 10.75V15.25Z" fill="#020B15"/>
<path d="M11.3072 21.5L11.3072 21H11.3072V21.5ZM11.1928 21.5L11.1928 21L11.1928 21L11.1928 21.5ZM16.562 21.3194L16.6286 21.8149L16.6286 21.8149L16.562 21.3194ZM21.3194 16.562L21.8149 16.6286L21.8149 16.6286L21.3194 16.562ZM21.5 11.3072L21 11.3072L21 11.3072L21.5 11.3072ZM21.5 11.1928L21 11.1928V11.1928H21.5ZM21.3194 5.93802L21.8149 5.8714L21.8149 5.8714L21.3194 5.93802ZM16.562 1.18059L16.6286 0.685052L16.6286 0.685052L16.562 1.18059ZM11.3072 1L11.3072 1.5L11.3072 1.5L11.3072 1ZM11.1928 1L11.1928 1.5H11.1928V1ZM5.93802 1.18059L5.8714 0.685052L5.8714 0.685052L5.93802 1.18059ZM2.61091 2.61091L2.25736 2.25736L2.25736 2.25736L2.61091 2.61091ZM1.18059 5.93802L1.67614 6.00465L1.18059 5.93802ZM1 11.1928L1.5 11.1928L1.5 11.1928L1 11.1928ZM1 11.3072L1.5 11.3072V11.3072H1ZM1.18059 16.562L0.685053 16.6286L0.685053 16.6286L1.18059 16.562ZM2.61091 19.8891L2.25736 20.2426L2.25736 20.2426L2.61091 19.8891ZM5.93802 21.3194L5.8714 21.8149L5.8714 21.8149L5.93802 21.3194ZM10.2559 10.75H10.7559V10.2499L10.2558 10.25L10.2559 10.75ZM9.6616 10.75L9.66158 10.25L9.66124 10.25L9.6616 10.75ZM9.09387 10.7282L9.15593 10.2321L9.1558 10.232L9.09387 10.7282ZM9.09053 10.7278L9.15246 10.2316L9.1524 10.2316L9.09053 10.7278ZM8.11368 10.0746L8.56354 9.85635L8.56354 9.85635L8.11368 10.0746ZM8.20597 8.8994L8.63402 9.15782L8.63409 9.1577L8.20597 8.8994ZM8.20841 8.89537L8.63652 9.15367L8.63666 9.15345L8.20841 8.89537ZM8.54511 8.43092L8.9384 8.73967L8.93847 8.73958L8.54511 8.43092ZM8.56885 8.40067L8.9622 8.70933L8.96234 8.70915L8.56885 8.40067ZM9.62588 7.14962L9.26751 6.80095L9.26751 6.80095L9.62588 7.14962ZM10.2639 6.59443L9.9805 6.18249L9.9805 6.18249L10.2639 6.59443ZM12.2361 6.59443L12.5195 6.18249L12.5195 6.18249L12.2361 6.59443ZM12.8741 7.14962L12.5158 7.49829L12.5158 7.49829L12.8741 7.14962ZM13.9312 8.40067L13.5377 8.70916L13.5378 8.70933L13.9312 8.40067ZM13.9549 8.43091L13.5615 8.73957L13.5616 8.73966L13.9549 8.43091ZM14.2916 8.89537L13.8633 9.15345L13.8635 9.15371L14.2916 8.89537ZM14.294 8.89941L13.8659 9.15774L13.866 9.15781L14.294 8.89941ZM14.3863 10.0746L13.9365 9.85635L13.9365 9.85635L14.3863 10.0746ZM13.4095 10.7278L13.3476 10.2316L13.3475 10.2316L13.4095 10.7278ZM13.4061 10.7282L13.3442 10.232L13.3441 10.2321L13.4061 10.7282ZM12.8384 10.75L12.8388 10.25L12.8384 10.25L12.8384 10.75ZM12.2559 10.75L12.2559 10.25L11.7559 10.2499V10.75H12.2559ZM11.3072 21H11.1928V22H11.3072V21ZM16.4954 20.8239C15.1928 20.999 13.5113 21 11.3072 21L11.3072 22C13.4845 22 15.2443 22.0011 16.6286 21.8149L16.4954 20.8239ZM19.5355 19.5355C18.7858 20.2853 17.8167 20.6462 16.4954 20.8239L16.6286 21.8149C18.0606 21.6224 19.276 21.2093 20.2426 20.2426L19.5355 19.5355ZM20.8239 16.4954C20.6462 17.8167 20.2853 18.7858 19.5355 19.5355L20.2426 20.2426C21.2093 19.276 21.6224 18.0606 21.8149 16.6286L20.8239 16.4954ZM21 11.3072C21 13.5113 20.999 15.1928 20.8239 16.4954L21.8149 16.6286C22.0011 15.2443 22 13.4844 22 11.3072L21 11.3072ZM21 11.1928V11.3072H22V11.1928H21ZM20.8239 6.00465C20.999 7.30716 21 8.98868 21 11.1928L22 11.1928C22 9.01553 22.0011 7.25571 21.8149 5.8714L20.8239 6.00465ZM19.5355 2.96447C20.2853 3.71422 20.6462 4.6833 20.8239 6.00465L21.8149 5.8714C21.6224 4.43943 21.2093 3.22401 20.2426 2.25736L19.5355 2.96447ZM16.4954 1.67614C17.8167 1.85379 18.7858 2.21472 19.5355 2.96447L20.2426 2.25736C19.276 1.29071 18.0606 0.877576 16.6286 0.685052L16.4954 1.67614ZM11.3072 1.5C13.5113 1.49999 15.1928 1.50102 16.4954 1.67614L16.6286 0.685052C15.2443 0.498938 13.4844 0.499987 11.3072 0.5L11.3072 1.5ZM11.1928 1.5H11.3072V0.5H11.1928V1.5ZM6.00465 1.67614C7.30716 1.50102 8.98868 1.49999 11.1928 1.5L11.1928 0.5C9.01553 0.499987 7.25571 0.498938 5.8714 0.685052L6.00465 1.67614ZM2.96447 2.96447C3.71422 2.21472 4.6833 1.85379 6.00465 1.67614L5.8714 0.685052C4.43943 0.877576 3.22401 1.29071 2.25736 2.25736L2.96447 2.96447ZM1.67614 6.00465C1.85379 4.6833 2.21472 3.71422 2.96447 2.96447L2.25736 2.25736C1.29071 3.22401 0.877576 4.43943 0.685053 5.8714L1.67614 6.00465ZM1.5 11.1928C1.49999 8.98869 1.50102 7.30717 1.67614 6.00465L0.685053 5.8714C0.498937 7.25571 0.499987 9.01554 0.5 11.1928L1.5 11.1928ZM1.5 11.1928V11.1928H0.5V11.1928H1.5ZM1.5 11.3072V11.1928H0.5V11.3072H1.5ZM1.5 11.3072V11.3072H0.5V11.3072H1.5ZM1.67614 16.4954C1.50102 15.1928 1.49999 13.5113 1.5 11.3072L0.5 11.3072C0.499987 13.4845 0.498937 15.2443 0.685053 16.6286L1.67614 16.4954ZM2.96447 19.5355C2.21472 18.7858 1.85379 17.8167 1.67614 16.4954L0.685053 16.6286C0.877576 18.0606 1.29071 19.276 2.25736 20.2426L2.96447 19.5355ZM6.00465 20.8239C4.6833 20.6462 3.71422 20.2853 2.96447 19.5355L2.25736 20.2426C3.22401 21.2093 4.43943 21.6224 5.8714 21.8149L6.00465 20.8239ZM11.1928 21C8.98869 21 7.30717 20.999 6.00465 20.8239L5.8714 21.8149C7.25571 22.0011 9.01554 22 11.1928 22L11.1928 21ZM11.2559 16.75C12.0843 16.75 12.7559 16.0784 12.7559 15.25H11.7559C11.7559 15.5261 11.532 15.75 11.2559 15.75V16.75ZM9.75586 15.25C9.75586 16.0784 10.4274 16.75 11.2559 16.75V15.75C10.9797 15.75 10.7559 15.5261 10.7559 15.25H9.75586ZM9.75586 10.75V15.25H10.7559V10.75H9.75586ZM9.66162 11.25L10.2559 11.25L10.2558 10.25L9.66158 10.25L9.66162 11.25ZM9.03182 11.2243C9.24545 11.251 9.49458 11.2501 9.66196 11.25L9.66124 10.25C9.47735 10.2501 9.29517 10.2495 9.15593 10.2321L9.03182 11.2243ZM9.0286 11.2239L9.03194 11.2243L9.1558 10.232L9.15246 10.2316L9.0286 11.2239ZM7.66381 10.2928C8.06255 11.1148 8.89608 11.2074 9.02865 11.2239L9.1524 10.2316C9.03208 10.2166 8.71353 10.1655 8.56354 9.85635L7.66381 10.2928ZM7.77793 8.64099C7.70974 8.75395 7.26439 9.46939 7.66381 10.2928L8.56354 9.85635C8.41305 9.54611 8.57157 9.26127 8.63402 9.15782L7.77793 8.64099ZM7.78029 8.63708L7.77786 8.64111L8.63409 9.1577L8.63652 9.15367L7.78029 8.63708ZM8.15183 8.12217C8.04658 8.25623 7.89144 8.45264 7.78016 8.6373L8.63666 9.15345C8.7098 9.03206 8.82296 8.88671 8.9384 8.73967L8.15183 8.12217ZM8.17549 8.09201L8.15176 8.12225L8.93847 8.73958L8.9622 8.70933L8.17549 8.09201ZM9.26751 6.80095C8.86552 7.21412 8.46769 7.71929 8.17535 8.09219L8.96234 8.70915C9.25927 8.3304 9.62538 7.86714 9.98425 7.49829L9.26751 6.80095ZM9.9805 6.18249C9.71124 6.36772 9.46803 6.59486 9.26751 6.80095L9.98425 7.49829C10.1634 7.31417 10.3547 7.13883 10.5473 7.00637L9.9805 6.18249ZM11.25 5.74996C10.6656 5.74996 10.2116 6.02349 9.9805 6.18249L10.5473 7.00637C10.7266 6.88297 10.973 6.74996 11.25 6.74996V5.74996ZM12.5195 6.18249C12.2884 6.02349 11.8344 5.74996 11.25 5.74996V6.74996C11.527 6.74996 11.7734 6.88297 11.9527 7.00637L12.5195 6.18249ZM13.2325 6.80095C13.032 6.59486 12.7888 6.36772 12.5195 6.18249L11.9527 7.00637C12.1453 7.13883 12.3366 7.31417 12.5158 7.49829L13.2325 6.80095ZM14.3246 8.09219C14.0323 7.71929 13.6345 7.21412 13.2325 6.80095L12.5158 7.49829C12.8746 7.86714 13.2407 8.3304 13.5377 8.70916L14.3246 8.09219ZM14.3482 8.12225L14.3245 8.09201L13.5378 8.70933L13.5615 8.73957L14.3482 8.12225ZM14.7198 8.6373C14.6086 8.45263 14.4534 8.25622 14.3482 8.12216L13.5616 8.73966C13.677 8.88671 13.7902 9.03206 13.8633 9.15345L14.7198 8.6373ZM14.7221 8.64107L14.7197 8.63704L13.8635 9.15371L13.8659 9.15774L14.7221 8.64107ZM14.8362 10.2928C15.2356 9.46939 14.7903 8.75395 14.7221 8.641L13.866 9.15781C13.9284 9.26127 14.087 9.54611 13.9365 9.85635L14.8362 10.2928ZM13.4713 11.2239C13.6039 11.2074 14.4375 11.1148 14.8362 10.2928L13.9365 9.85635C13.7865 10.1655 13.4679 10.2166 13.3476 10.2316L13.4713 11.2239ZM13.4681 11.2243L13.4714 11.2239L13.3475 10.2316L13.3442 10.232L13.4681 11.2243ZM12.838 11.25C13.0054 11.2501 13.2545 11.251 13.4682 11.2243L13.3441 10.2321C13.2048 10.2495 13.0226 10.2501 12.8388 10.25L12.838 11.25ZM12.2558 11.25L12.8384 11.25L12.8384 10.25L12.2559 10.25L12.2558 11.25ZM12.7559 15.25V10.75H11.7559V15.25H12.7559Z" fill="white"/>
</svg>
