<svg width="107" height="97" viewBox="0 0 107 97" fill="none" xmlns="http://www.w3.org/2000/svg">
<path d="M51.2764 96.2306C79.5956 96.2306 102.553 87.2246 102.553 76.1153C102.553 65.0059 79.5956 56 51.2764 56C22.9572 56 0 65.0059 0 76.1153C0 87.2246 22.9572 96.2306 51.2764 96.2306Z" fill="#E8E8E8" fill-opacity="0.23"/>
<g filter="url(#filter0_d_35_2838)">
<path d="M37.436 43.7302L40.2875 48.3863L37.7063 52.1042L34.8528 47.4478L37.436 43.7302Z" fill="#CDC4C4"/>
<path d="M37.6804 52.4156C37.5808 52.4073 37.4913 52.3518 37.4397 52.2681L34.586 47.6138C34.5216 47.5081 34.5244 47.3746 34.5956 47.2718L37.1768 43.5539C37.2363 43.4669 37.3366 43.4167 37.443 43.4192C37.5472 43.4237 37.6451 43.4778 37.7003 43.5681L40.5541 48.2224C40.6184 48.3281 40.6157 48.4617 40.5445 48.5644L37.9633 52.2823C37.9038 52.3693 37.8035 52.4195 37.6971 52.417C37.6929 52.4166 37.6867 52.4161 37.6804 52.4156ZM35.226 47.46L37.7224 51.5327L39.9141 48.3762L37.4177 44.3035L35.226 47.46Z" fill="#EEF2F6"/>
<path d="M41.2937 54.2914L42.2755 53.8984L42.3588 54.3799L41.2937 54.2914Z" fill="#CDD5DF"/>
<path d="M42.333 54.6913L41.2679 54.6028C41.1226 54.5907 41.0063 54.4807 40.9848 54.3368C40.9633 54.1929 41.0439 54.0532 41.1779 53.9995L42.1597 53.6065C42.2482 53.5721 42.346 53.5781 42.4278 53.6246C42.5097 53.6711 42.5678 53.7512 42.5831 53.8445L42.6685 54.3261C42.6857 54.4216 42.6566 54.5196 42.5921 54.5915C42.5276 54.6635 42.4306 54.6994 42.333 54.6913Z" fill="#EEF2F6"/>
<path d="M75.4253 17.1048C75.7263 17.1298 76.0208 17.2086 76.2894 17.348C77.408 17.9238 77.6778 19.3071 76.8942 20.4357C76.2982 21.2935 75.2646 21.7575 74.3137 21.6785C74.0127 21.6535 73.7203 21.5748 73.4496 21.4353C72.3311 20.8574 72.0614 19.4741 72.8429 18.3453C73.4408 17.4898 74.4723 17.0256 75.4253 17.1048Z" fill="#CDD5DF"/>
<path d="M74.2877 21.992C73.9368 21.9628 73.6058 21.8705 73.3073 21.7141C72.72 21.4102 72.309 20.8974 72.1541 20.2699C71.9835 19.5805 72.1413 18.8138 72.5878 18.1694C73.2314 17.2424 74.3549 16.7023 75.4511 16.7934C75.802 16.8225 76.133 16.9148 76.4336 17.0715C77.021 17.3732 77.4321 17.8861 77.5871 18.5115C77.7598 19.201 77.5999 19.9675 77.151 20.6159C76.5075 21.5429 75.3818 22.0829 74.2877 21.992ZM75.3994 17.4162C74.5233 17.3434 73.6196 17.7785 73.1018 18.5257C72.7573 19.0239 72.6317 19.6051 72.7603 20.1196C72.8714 20.5699 73.1689 20.9395 73.5938 21.1588C73.8204 21.2758 74.0695 21.3467 74.3394 21.3691C75.2031 21.4409 76.1265 20.9949 76.637 20.2597C76.9836 19.7616 77.1094 19.1784 76.9807 18.6639C76.8697 18.2136 76.572 17.846 76.147 17.6267C75.9205 17.5097 75.6693 17.4386 75.3994 17.4162Z" fill="#EEF2F6"/>
<path d="M76.812 38.248L65.1769 55.0028L70.4297 47.4346L68.8464 39.9445L57.1155 44.3114L55.4638 34.9007L38.9866 41.4928L50.6239 24.7361L76.812 38.248ZM63.7045 39.4317C64.4881 38.3031 64.2184 36.9198 63.0998 36.3419C62.8313 36.2025 62.5368 36.1237 62.2358 36.0987C61.2828 36.0195 60.2492 36.4835 59.6532 37.3413C58.8696 38.4699 59.1414 39.8534 60.2599 40.4313C60.5285 40.5706 60.8209 40.6493 61.124 40.6745C62.077 40.7536 63.1106 40.2897 63.7045 39.4317Z" fill="#E3E8EF"/>
<path d="M65.1511 55.3143C65.0992 55.31 65.0462 55.293 64.9988 55.2598C64.8564 55.1623 64.8224 54.9671 64.92 54.8247L70.0967 47.3672L68.6171 40.3645L57.227 44.605C57.1407 44.6375 57.0431 44.6294 56.9633 44.5831C56.8835 44.5367 56.8275 44.4568 56.81 44.3655L55.225 35.3345L39.1047 41.7828C38.9749 41.8347 38.8297 41.7955 38.7446 41.6881C38.6594 41.5806 38.6533 41.4275 38.7317 41.3149L50.369 24.5581C50.4591 24.4297 50.6299 24.3875 50.7681 24.4596L76.9542 37.9713C77.0343 38.0135 77.093 38.0874 77.1151 38.1728C77.1371 38.2604 77.119 38.3529 77.069 38.4261L65.4339 55.181C65.3675 55.2758 65.259 55.3233 65.1511 55.3143ZM68.8741 39.6353C68.9177 39.6389 68.9606 39.6509 68.9985 39.6728C69.0785 39.7171 69.1349 39.7929 69.1526 39.8821L70.5856 46.6657L76.3508 38.3644L50.724 25.1416L39.8369 40.8192L55.3474 34.6151C55.436 34.5807 55.5338 34.5867 55.6156 34.6332C55.6974 34.6797 55.7556 34.7598 55.7708 34.8531L57.3572 43.8925L68.7364 39.6573C68.7821 39.636 68.8285 39.6315 68.8741 39.6353ZM61.0982 40.9859C60.7473 40.9568 60.4163 40.8645 60.1178 40.708C59.5305 40.4041 59.1195 39.8913 58.9646 39.2638C58.794 38.5744 58.9518 37.8078 59.4004 37.1635C60.0439 36.2365 61.1695 35.6966 62.2637 35.7875C62.6146 35.8166 62.9456 35.9089 63.2442 36.0633C63.8336 36.3673 64.2426 36.88 64.3995 37.5076C64.5701 38.197 64.4123 38.9637 63.9637 39.6079C63.3179 40.5369 62.1944 41.077 61.0982 40.9859ZM62.2097 36.4122C61.346 36.3405 60.4226 36.7864 59.91 37.5215C59.5655 38.0197 59.4399 38.6009 59.5686 39.1154C59.6796 39.5657 59.9771 39.9353 60.4021 40.1546C60.6286 40.2717 60.8798 40.3427 61.1476 40.365C62.0113 40.4367 62.9348 39.9908 63.4453 39.2555C63.7919 38.7575 63.9175 38.1763 63.7888 37.6618C63.6778 37.2115 63.3803 36.8418 62.9553 36.6226C62.731 36.5036 62.4796 36.4346 62.2097 36.4122Z" fill="#EEF2F6"/>
<path d="M37.4357 43.7331L63.6218 57.2448L51.9865 74.0018L57.2393 66.4335L55.658 58.9436L51.8182 60.3723L52.1217 59.1349C52.646 57.0001 51.2533 55.1179 49.011 54.9317L42.3589 54.3792L42.2735 53.8976L41.2918 54.2906L30.7115 53.4118L33.3317 53.6294L34.8504 47.4506L37.4357 43.7331Z" fill="#E3E8EF"/>
<path d="M51.9608 74.3111C51.9214 74.3078 51.8805 74.2961 51.8444 74.2785L48.7231 72.6687C48.6069 72.6089 48.5459 72.4868 48.5561 72.3643C48.5594 72.3248 48.5711 72.284 48.5889 72.2458C48.6685 72.0935 48.8555 72.0317 49.0098 72.1114L51.8864 73.5963L56.9064 66.364L55.4291 59.3594L51.9301 60.6617C51.8221 60.703 51.6986 60.6801 51.6131 60.602C51.5274 60.5259 51.4894 60.4056 51.5175 60.293L51.821 59.0555C52.0484 58.1295 51.8913 57.228 51.3796 56.5165C50.8474 55.7762 49.9987 55.3231 48.9876 55.2392L42.3355 54.6867C42.1943 54.6749 42.0777 54.5691 42.0537 54.4291L42.035 54.3272L41.4102 54.5764C41.3649 54.5935 41.3161 54.602 41.2683 54.598L30.6881 53.7193C30.5158 53.7049 30.3882 53.5543 30.4025 53.382C30.4168 53.2096 30.5675 53.0821 30.7398 53.0964L33.0963 53.2921L34.5518 47.3714C34.5611 47.3346 34.5767 47.2983 34.5979 47.2687L37.1791 43.5508C37.2692 43.4224 37.44 43.3801 37.5782 43.4523L63.7643 56.964C63.8444 57.0062 63.903 57.0801 63.9252 57.1655C63.9472 57.2531 63.9291 57.3456 63.8791 57.4188L52.2438 74.1757C52.2319 74.1936 52.2158 74.2111 52.1999 74.2265C52.1319 74.2898 52.0459 74.3182 51.9608 74.3111ZM55.6861 58.6303C55.7297 58.6339 55.7726 58.6458 55.8105 58.6678C55.8905 58.712 55.9469 58.7878 55.9646 58.8771L57.3955 65.6604L63.1609 57.3571L37.5341 44.1343L35.1407 47.5792L33.7231 53.3463L41.2451 53.971L42.1577 53.6057C42.2462 53.5713 42.344 53.5773 42.4258 53.6238C42.5077 53.6703 42.5658 53.7504 42.5811 53.8437L42.6235 54.0876L49.0369 54.6203C50.2328 54.7196 51.2431 55.2655 51.8842 56.155C52.5045 57.0176 52.6967 58.1018 52.425 59.2081L52.2612 59.8719L55.5467 58.6479C55.5939 58.633 55.6405 58.6265 55.6861 58.6303Z" fill="#EEF2F6"/>
<path d="M52.1796 76.2375L50.4338 76.2375L48.2047 75.0865L48.8678 72.3884L51.989 73.9981L63.6243 57.2412L37.4383 43.7294L34.8571 47.4473L36.5016 40.7605L63.1653 2.36071L93.7696 18.1502L52.1796 76.2375ZM63.8169 5.74083L52.1796 22.4976L78.3656 36.0093L83.6205 28.4413L90.0009 19.2524L63.8169 5.74083ZM38.989 41.4939L65.1773 55.0037L76.8124 38.2489L50.6264 24.7371L38.989 41.4939Z" fill="#EEF2F6"/>
<path d="M65.1515 55.3152C65.112 55.3119 65.0712 55.3001 65.035 55.2825L38.8467 41.7726C38.7666 41.7304 38.7079 41.6566 38.6858 41.5711C38.6638 41.4836 38.6819 41.391 38.7319 41.3178L50.3692 24.5611C50.4593 24.4327 50.6282 24.3882 50.7683 24.4625L76.9544 37.9743C77.0345 38.0165 77.0932 38.0903 77.1154 38.1758C77.1374 38.2633 77.1192 38.3559 77.0692 38.4291L65.4341 55.1839C65.3679 55.2767 65.2594 55.3241 65.1515 55.3152ZM39.448 41.3794L65.0771 54.6003L76.3535 38.3634L50.7267 25.1406L39.448 41.3794ZM78.3398 36.3208C78.3003 36.3175 78.2595 36.3057 78.2233 36.2881L52.0352 22.7762C51.9551 22.734 51.8962 22.6622 51.8742 22.5747C51.8522 22.4871 51.8704 22.3946 51.9204 22.3214L63.5577 5.5646C63.6478 5.4362 63.8186 5.39394 63.9568 5.46605L90.1429 18.9778C90.223 19.02 90.2817 19.0939 90.3038 19.1793C90.3258 19.2669 90.3077 19.3594 90.2577 19.4326L78.6204 36.1894C78.5583 36.2825 78.4477 36.3297 78.3398 36.3208ZM52.6385 22.3831L78.2653 35.6059L89.5419 19.3669L63.9151 6.14409L52.6385 22.3831Z" fill="#EEF2F6"/>
<path d="M63.8163 5.73999L90.0023 19.2517L83.6219 28.4406L82.0385 20.9505L70.3077 25.3174L68.656 15.9067L52.1788 22.4988L63.8163 5.73999ZM76.8946 20.4375C77.6805 19.307 77.4086 17.9235 76.2898 17.3498C76.0212 17.2104 75.7267 17.1316 75.4257 17.1066C74.4727 17.0274 73.4412 17.4916 72.8452 18.3494C72.0616 19.4779 72.3334 20.8614 73.452 21.4393C73.7205 21.5787 74.0129 21.6574 74.316 21.6825C75.265 21.7593 76.2986 21.2953 76.8946 20.4375Z" fill="#E3E8EF"/>
<path d="M83.5961 28.752C83.5836 28.751 83.5711 28.7499 83.5609 28.747C83.4396 28.7223 83.3431 28.6265 83.3176 28.5052L81.8092 21.3704L70.4192 25.611C70.3328 25.6435 70.2353 25.6354 70.1555 25.5891C70.0757 25.5427 70.0196 25.4628 70.0021 25.3715L68.4173 16.3384L52.297 22.7867C52.1673 22.8386 52.0221 22.7994 51.9369 22.692C51.8518 22.5845 51.8457 22.4314 51.924 22.3188L63.5614 5.56203C63.6515 5.43363 63.8222 5.39137 63.9605 5.46348L90.1465 18.9752C90.2266 19.0174 90.2853 19.0913 90.3075 19.1768C90.3295 19.2643 90.3114 19.3569 90.2614 19.4301L83.8789 28.6187C83.8127 28.7115 83.7061 28.7611 83.5961 28.752ZM82.0644 20.6391C82.108 20.6427 82.1509 20.6546 82.1888 20.6766C82.2688 20.7208 82.3252 20.7966 82.3429 20.8859L83.776 27.6673L89.5414 19.364L63.9146 6.14118L53.0275 21.8188L68.538 15.6147C68.6266 15.5803 68.7244 15.5863 68.8062 15.6328C68.8881 15.6793 68.9462 15.7594 68.9615 15.8527L70.5477 24.8941L81.9269 20.659C81.9722 20.6418 82.0187 20.6353 82.0644 20.6391ZM74.2883 21.9917C73.9374 21.9626 73.6064 21.8703 73.3079 21.7138C72.7206 21.41 72.3096 20.8971 72.1547 20.2696C71.9841 19.5802 72.1419 18.8136 72.5884 18.1691C73.2319 17.2421 74.3555 16.702 75.4517 16.7931C75.8026 16.8222 76.1336 16.9145 76.4342 17.0712C77.0216 17.3729 77.4327 17.8858 77.5877 18.5112C77.7604 19.2008 77.6005 19.9673 77.1516 20.6157C76.508 21.5427 75.3824 22.0826 74.2883 21.9917ZM75.4 17.4159C74.5238 17.3432 73.6202 17.7782 73.1024 18.5254C72.7579 19.0236 72.6322 19.6048 72.7609 20.1193C72.872 20.5696 73.1695 20.9392 73.5944 21.1585C73.8209 21.2756 74.0701 21.3464 74.34 21.3689C75.2037 21.4406 76.1271 20.9947 76.6376 20.2594C76.9842 19.7614 77.11 19.1781 76.9813 18.6636C76.8703 18.2133 76.5726 17.8457 76.1476 17.6265C75.9211 17.5094 75.6699 17.4384 75.4 17.4159Z" fill="#EEF2F6"/>
<path d="M93.7634 18.1512L96.6172 22.8055L58.2493 77.2504L53.7489 71.2502L93.7634 18.1512Z" fill="#E3E8EF"/>
<path d="M53.3868 75.7501L58.2489 75.7501L96.2436 22.7975L93.7472 18.7248L53.3868 75.7501Z" fill="#EEF2F6"/>
<path d="M62.2354 36.101C62.5364 36.126 62.8309 36.2048 63.0995 36.3442C64.218 36.9221 64.4877 38.3054 63.7041 39.434C63.1102 40.292 62.0766 40.7559 61.1236 40.6768C60.8226 40.6518 60.5281 40.5729 60.2596 40.4336C59.141 39.8557 58.8713 38.4723 59.6528 37.3436C60.2509 36.486 61.2824 36.0218 62.2354 36.101Z" fill="#CDD5DF"/>
<path d="M61.098 40.9861C60.7471 40.957 60.4161 40.8647 60.1176 40.7082C59.5303 40.4044 59.1193 39.8915 58.9644 39.264C58.7938 38.5746 58.9516 37.808 59.3981 37.1636C60.0416 36.2366 61.1673 35.6966 62.2614 35.7875C62.6123 35.8166 62.9433 35.9089 63.2419 36.0634C63.8313 36.3674 64.2403 36.88 64.3972 37.5077C64.5678 38.1971 64.41 38.9638 63.9614 39.608C63.3177 40.5371 62.1942 41.0772 61.098 40.9861ZM62.2095 36.4124C61.3458 36.3407 60.4224 36.7866 59.9098 37.5217C59.5653 38.0199 59.4397 38.6011 59.5684 39.1156C59.6794 39.5659 59.9769 39.9356 60.4019 40.1548C60.6284 40.2719 60.8796 40.3429 61.1474 40.3652C62.0111 40.4369 62.9345 39.991 63.4451 39.2557C63.7916 38.7577 63.9173 38.1765 63.7886 37.662C63.6776 37.2117 63.38 36.842 62.9551 36.6228C62.7308 36.5038 62.4794 36.4349 62.2095 36.4124Z" fill="#EEF2F6"/>
<path d="M55.4659 34.9024L57.1178 44.311L68.8485 39.9461L70.4321 47.4341L65.1772 55.0022L38.9889 41.4924L55.4659 34.9024Z" fill="#CDD5DF"/>
<path d="M65.1513 55.3137C65.1118 55.3104 65.071 55.2986 65.0348 55.281L38.8466 41.7712C38.7384 41.7141 38.6726 41.5999 38.6785 41.4792C38.6843 41.3584 38.7603 41.2497 38.8748 41.2049L55.352 34.6128C55.4405 34.5783 55.5383 34.5843 55.6201 34.6309C55.702 34.6774 55.7601 34.7575 55.7754 34.8507L57.3618 43.8901L68.741 39.655C68.8273 39.6224 68.9207 39.6302 69.0007 39.6745C69.0806 39.7187 69.137 39.7945 69.1547 39.8838L70.7381 47.3739C70.7561 47.459 70.7385 47.5453 70.6887 47.6164L65.4359 55.1847C65.3677 55.2752 65.2593 55.3226 65.1513 55.3137ZM39.7405 41.5297L65.0769 54.5988L70.0969 47.3666L68.6173 40.3638L57.2272 44.6044C57.1409 44.6369 57.0433 44.6288 56.9635 44.5825C56.8838 44.5361 56.8277 44.4562 56.8102 44.3649L55.2252 35.3339L39.7405 41.5297Z" fill="#EEF2F6"/>
<path d="M68.6555 15.9064L70.3072 25.3171L82.0381 20.9502L83.6214 28.4403L78.3645 36.0082L52.1784 22.4965L68.6555 15.9064Z" fill="#CDD5DF"/>
<path d="M78.3386 36.3197C78.2992 36.3164 78.2583 36.3046 78.2222 36.287L52.034 22.7751C51.9259 22.718 51.8601 22.6038 51.866 22.4831C51.8718 22.3623 51.9477 22.2536 52.0622 22.2088L68.5394 15.6167C68.628 15.5822 68.7258 15.5883 68.8076 15.6348C68.8895 15.6813 68.9476 15.7614 68.9629 15.8546L70.5491 24.8961L81.9283 20.661C82.0146 20.6284 82.108 20.6362 82.188 20.6804C82.2679 20.7247 82.3243 20.8005 82.342 20.8897L83.9254 28.3798C83.9434 28.465 83.9258 28.5513 83.876 28.6224L78.6211 36.1905C78.5571 36.2814 78.4466 36.3286 78.3386 36.3197ZM52.93 22.5338L78.2642 35.6048L83.2863 28.3727L81.8067 21.37L70.4166 25.6105C70.3303 25.6431 70.2327 25.635 70.1529 25.5886C70.0731 25.5423 70.0171 25.4624 69.9996 25.371L68.4147 16.338L52.93 22.5338Z" fill="#EEF2F6"/>
<path d="M73.9374 65.1518L74.1338 67.7457C74.2534 69.3006 75.2062 70.5901 76.6825 71.1893L79.1478 72.1885L76.3002 72.7464C74.5958 73.0815 73.0592 74.1642 72.1948 75.6373L70.7551 78.0953L70.5566 75.5013C70.437 73.9464 69.4842 72.6569 68.0079 72.0577L65.5447 71.0587L68.3902 70.5006C70.0946 70.1655 71.6312 69.0828 72.4957 67.6097L73.9374 65.1518Z" fill="#CDD5DF"/>
<path d="M35.8513 7.99974L36.0019 9.98777C36.093 11.1807 36.8241 12.1696 37.9568 12.6274L39.8457 13.3926L37.6631 13.8218C36.3563 14.077 35.1773 14.9072 34.5149 16.0354L33.4113 17.9214L33.2609 15.9313C33.1698 14.7384 32.4385 13.7516 31.3059 13.2938L29.4171 12.5264L31.5995 12.0994C32.9063 11.8442 34.0855 11.0118 34.7478 9.88362L35.8513 7.99974Z" fill="#CDD5DF"/>
<path d="M100.321 49.7787L100.404 50.8873C100.456 51.5501 100.863 52.1024 101.494 52.3576L102.546 52.7836L101.331 53.0213C100.602 53.1656 99.9444 53.6274 99.5745 54.2552L98.9584 55.3057L98.8748 54.1971C98.8233 53.5343 98.4176 52.9821 97.7865 52.727L96.7328 52.3008L97.9504 52.0632C98.6794 51.9189 99.3345 51.457 99.7044 50.8292L100.321 49.7787Z" fill="#CDD5DF"/>
<path d="M29.8195 36.2816L29.9031 37.3902C29.9546 38.053 30.3624 38.6053 30.9934 38.8605L32.0451 39.2865L30.8296 39.5242C30.1006 39.6686 29.4434 40.1303 29.0735 40.7581L28.4574 41.8086L28.3738 40.7C28.3223 40.0372 27.9166 39.4851 27.2856 39.2299L26.2318 38.8037L27.4494 38.5662C28.1784 38.4219 28.8335 37.9599 29.2034 37.3321L29.8195 36.2816Z" fill="#EEF2F6"/>
<path d="M34.4966 55.4673C36.0108 54.3568 36.4716 52.411 35.5258 51.1213C34.5799 49.8316 32.5856 49.6864 31.0714 50.7969C29.5572 51.9074 29.0964 53.8532 30.0422 55.1429C30.9881 56.4325 32.9824 56.5778 34.4966 55.4673Z" fill="#CDD5DF"/>
<path d="M32.2927 56.5213C31.3322 56.5213 30.4885 56.1526 29.9177 55.4838C29.3635 54.8338 29.1364 53.9796 29.2802 53.0796C29.5739 51.2359 31.3656 49.7359 33.2739 49.7359C34.2343 49.7359 35.0781 50.1047 35.6489 50.7734C36.2031 51.4234 36.4302 52.2776 36.2864 53.1776C35.9927 55.0213 34.201 56.5213 32.2927 56.5213ZM33.276 50.3609C31.6614 50.3609 30.1468 51.6255 29.8989 53.1776C29.7843 53.8942 29.9593 54.5692 30.3947 55.0776C30.8447 55.6067 31.5197 55.8963 32.2947 55.8963C33.9093 55.8963 35.4239 54.6317 35.6718 53.0796C35.7864 52.363 35.6114 51.688 35.176 51.1796C34.7239 50.6505 34.051 50.3609 33.276 50.3609Z" fill="#EEF2F6"/>
<path d="M34.9602 44.3104H51.6539L49.4456 58.1583L42.7477 50.7542L30.8018 62.3125L22.806 52.8188L6.31226 69.5646L10.3393 44.3104H34.9602ZM32.2935 56.2083C34.0581 56.2083 35.7081 54.8292 35.9789 53.1271C36.2498 51.425 35.0414 50.0458 33.2768 50.0458C31.5123 50.0458 29.8623 51.425 29.5914 53.1271C29.3185 54.8292 30.5289 56.2083 32.2935 56.2083Z" fill="#E3E8EF"/>
<path d="M6.31228 69.8771C6.26437 69.8771 6.21645 69.8667 6.17061 69.8437C6.04978 69.7833 5.98103 69.65 6.00395 69.5167L10.031 44.2625C10.056 44.1104 10.1852 44 10.3394 44H51.6519C51.7435 44 51.831 44.0396 51.8894 44.1104C51.9477 44.1792 51.9748 44.2729 51.9602 44.3625L49.7519 58.2104C49.7331 58.3292 49.6477 58.4271 49.5331 58.4604C49.4185 58.4937 49.2935 58.4604 49.2123 58.3708L42.731 51.2062L31.0164 62.5396C30.9539 62.6 30.8706 62.6312 30.7831 62.6271C30.6956 62.6229 30.6164 62.5833 30.5602 62.5167L22.7852 53.2854L6.53312 69.7854C6.47478 69.8437 6.39353 69.8771 6.31228 69.8771ZM10.606 44.6229L6.77478 68.6479L22.5831 52.5979C22.6435 52.5354 22.731 52.5021 22.8185 52.5042C22.906 52.5083 22.9894 52.5479 23.0456 52.6146L30.8248 61.8521L42.531 50.5271C42.5914 50.4687 42.6706 50.4354 42.7581 50.4396C42.8435 50.4417 42.9227 50.4792 42.9789 50.5417L49.2394 57.4625L51.2873 44.6208H10.606V44.6229ZM32.2935 56.5208C31.3331 56.5208 30.4894 56.1521 29.9185 55.4833C29.3644 54.8333 29.1373 53.9792 29.281 53.0792C29.5748 51.2354 31.3665 49.7354 33.2748 49.7354C34.2352 49.7354 35.079 50.1042 35.6498 50.7729C36.204 51.4229 36.431 52.2771 36.2873 53.1771C35.9935 55.0208 34.2019 56.5208 32.2935 56.5208ZM33.2769 50.3604C31.6623 50.3604 30.1477 51.625 29.8998 53.1771C29.7852 53.8937 29.9602 54.5687 30.3956 55.0771C30.8456 55.6062 31.5206 55.8958 32.2956 55.8958C33.9102 55.8958 35.4248 54.6312 35.6727 53.0792C35.7873 52.3625 35.6123 51.6875 35.1769 51.1792C34.7248 50.65 34.0519 50.3604 33.2769 50.3604Z" fill="#EEF2F6"/>
<path d="M42.7443 50.7542L49.4443 58.1584L47.6256 69.5647H6.31097L22.8047 52.8188L30.7985 62.3126L42.7443 50.7542Z" fill="#CDD5DF"/>
<path d="M47.6256 69.8772H6.31099C6.18599 69.8772 6.07141 69.8022 6.02349 69.6855C5.97558 69.5688 6.00058 69.4355 6.09016 69.3459L22.5839 52.6001C22.6443 52.5376 22.7318 52.5042 22.8193 52.5063C22.9068 52.5105 22.9902 52.5501 23.0464 52.6168L30.8256 61.8543L42.5318 50.5293C42.5922 50.4709 42.6714 50.4376 42.7589 50.4418C42.8443 50.4438 42.9235 50.4813 42.9797 50.5438L49.6777 57.948C49.7402 58.0188 49.7693 58.1126 49.7547 58.2063L47.936 69.6126C47.9089 69.7647 47.7777 69.8772 47.6256 69.8772ZM7.05683 69.2522H47.3568L49.111 58.2584L42.7297 51.2043L31.0152 62.5376C30.9527 62.598 30.8693 62.6293 30.7818 62.6251C30.6943 62.6209 30.6152 62.5813 30.5589 62.5147L22.7839 53.2834L7.05683 69.2522Z" fill="#EEF2F6"/>
<path d="M47.6262 69.5654L50.8532 73.9675H9.54075L6.31158 69.5654H47.6262Z" fill="#CDD5DF"/>
<path d="M50.8553 74.28H9.54077C9.44077 74.28 9.34701 74.2321 9.28868 74.1529L6.05951 69.7508C5.99076 69.655 5.98035 69.53 6.03243 69.4238C6.08452 69.3196 6.19285 69.2529 6.3116 69.2529H47.6262C47.7262 69.2529 47.8199 69.3009 47.8783 69.38L51.1074 73.7821C51.1762 73.8779 51.1866 74.0029 51.1345 74.1092C51.0803 74.2133 50.972 74.28 50.8553 74.28ZM9.6991 73.655H50.2387L47.4678 69.8779H6.92826L9.6991 73.655Z" fill="#EEF2F6"/>
<path d="M51.6538 44.3107L54.8829 48.7128L52.6746 62.5607L49.4454 58.1586L51.6538 44.3107Z" fill="#E3E8EF"/>
<path d="M52.6746 62.8732C52.5767 62.8732 52.4829 62.8274 52.4225 62.7462L49.1934 58.3441C49.1434 58.2774 49.1246 58.192 49.1371 58.1107L51.3454 44.2628C51.3663 44.1378 51.4579 44.0378 51.5809 44.0086C51.7038 43.9795 51.8309 44.0253 51.9059 44.1274L55.135 48.5295C55.185 48.5962 55.2038 48.6816 55.1913 48.7628L52.9829 62.6107C52.9621 62.7357 52.8704 62.8357 52.7475 62.8649C52.7225 62.8691 52.6975 62.8732 52.6746 62.8732ZM49.7746 58.0795L52.4829 61.7732L54.5538 48.7941L51.8454 45.1003L49.7746 58.0795Z" fill="#EEF2F6"/>
<path d="M49.4449 58.1584L52.674 62.5605L50.8532 73.9667L47.6261 69.5646L49.4449 58.1584Z" fill="#CDD5DF"/>
<path d="M50.8553 74.2792C50.7574 74.2792 50.6636 74.2334 50.6032 74.1521L47.374 69.7501C47.324 69.6834 47.3053 69.598 47.3178 69.5167L49.1365 58.1105C49.1574 57.9855 49.249 57.8855 49.3719 57.8563C49.4949 57.8271 49.6219 57.873 49.6969 57.975L52.9261 62.3771C52.9761 62.4438 52.9949 62.5292 52.9824 62.6105L51.1636 74.0167C51.1428 74.1417 51.0511 74.2417 50.9282 74.2709C50.9032 74.2751 50.8782 74.2792 50.8553 74.2792ZM47.9553 69.4834L50.6636 73.1771L52.3449 62.6396L49.6365 58.9459L47.9553 69.4834Z" fill="#EEF2F6"/>
<path d="M41.3656 46.8691L38.3129 51.0316L49.974 80.9844L53.0268 76.8219L41.3656 46.8691Z" fill="#E3E8EF"/>
<path d="M49.974 81.2969C50.0726 81.2969 50.167 81.2497 50.2254 81.1691L53.2782 77.0066C53.3421 76.9205 53.3559 76.808 53.3171 76.708L41.6559 46.7553C41.6143 46.6483 41.5184 46.5733 41.4059 46.5594C41.2934 46.5441 41.1809 46.5927 41.1129 46.6844L38.0601 50.8469C37.9962 50.933 37.9823 51.0455 38.0212 51.1455L49.6823 81.0983C49.724 81.2053 49.8198 81.2803 49.9323 81.2941C49.9476 81.2955 49.9601 81.2969 49.974 81.2969ZM52.674 76.7747L50.0587 80.34L38.6657 51.0789L41.2809 47.5136L52.674 76.7747Z" fill="#F8FAFC"/>
<path d="M53.0268 76.8213H68.3559H96.0643L93.0115 80.9838H65.3032H49.974L53.0268 76.8213Z" fill="#E3E8EF"/>
<path d="M49.974 81.2963H93.0115C93.1115 81.2963 93.2046 81.2491 93.2629 81.1685L96.3157 77.006C96.3851 76.9116 96.3962 76.7852 96.3421 76.6796C96.2893 76.5741 96.1809 76.5088 96.0629 76.5088H53.0254C52.9254 76.5088 52.8323 76.556 52.774 76.6366L49.7212 80.7991C49.6518 80.8935 49.6407 81.0199 49.6948 81.1255C49.749 81.2296 49.8559 81.2963 49.974 81.2963ZM92.8532 80.6713H50.5907L53.1851 77.1338H95.4476L92.8532 80.6713Z" fill="#F8FAFC"/>
<path d="M60.328 40.3119C57.4127 40.3119 55.428 41.7841 54.8433 43.9994C54.6169 44.8591 54.6016 45.83 54.8238 46.8703C54.9155 47.3008 55.0488 47.7425 55.2238 48.1939C56.7905 52.2203 61.2127 55.5411 65.4377 56.0189C65.7627 55.9994 66.0933 55.9897 66.4308 55.9897C66.7683 55.9897 67.1072 55.9994 67.446 56.0189C71.3002 55.5411 73.1363 52.2203 71.5683 48.1939C69.8766 43.8397 64.8433 40.3119 60.328 40.3119Z" fill="#CDD5DF"/>
<path d="M67.4502 56.33C67.4627 56.33 67.4752 56.3286 67.4891 56.3272C69.3696 56.0939 70.8669 55.1911 71.7071 53.7842C72.6363 52.2286 72.6919 50.2022 71.8655 48.0786C70.1307 43.623 64.9557 39.998 60.3307 39.998C57.3544 39.998 55.1919 41.4633 54.5446 43.9189C54.3002 44.848 54.2919 45.8619 54.5224 46.9342C54.6182 47.3855 54.7585 47.8467 54.9377 48.3064C56.5238 52.3842 61.0252 55.8328 65.4085 56.3286C65.4266 56.33 65.4446 56.3314 65.4627 56.33C66.1016 56.2925 66.7683 56.2925 67.4363 56.33C67.4377 56.33 67.4433 56.33 67.4502 56.33ZM66.4335 55.6758C66.103 55.6758 65.771 55.6855 65.4488 55.7036C61.2877 55.2217 57.0224 51.948 55.5169 48.08C55.3502 47.6522 55.2196 47.223 55.1307 46.8036C54.9224 45.8272 54.9266 44.9105 55.146 44.0786C55.7169 41.9161 57.653 40.6244 60.328 40.6244C64.7169 40.6244 69.6308 44.0717 71.2808 48.3078C72.0363 50.248 71.996 52.08 71.1683 53.4661C70.4335 54.6967 69.1099 55.4911 67.4377 55.705C67.1016 55.6855 66.7641 55.6758 66.4335 55.6758Z" fill="#F8FAFC"/>
<path d="M51.5029 35.3147L41.3654 46.8688H54.8251C54.6029 45.8286 54.6182 44.8577 54.8446 43.998L51.5029 35.3147Z" fill="#E3E8EF"/>
<path d="M41.3654 47.1813H54.8251C54.9196 47.1813 55.0085 47.1383 55.0682 47.0647C55.1279 46.991 55.1501 46.8952 55.1307 46.8022C54.9224 45.8258 54.9265 44.9091 55.146 44.0772C55.1626 44.0133 55.1585 43.9466 55.1349 43.8855L51.7932 35.2008C51.7543 35.098 51.664 35.0244 51.5557 35.0049C51.4487 34.9855 51.3376 35.0244 51.2654 35.1063L41.1279 46.6605C41.0474 46.7522 41.0279 46.8841 41.0779 46.9952C41.1307 47.1105 41.2418 47.1813 41.3654 47.1813ZM54.4474 46.5563H42.0543L51.396 35.9091L54.5168 44.0174C54.3238 44.8091 54.3015 45.6605 54.4474 46.5563Z" fill="#F8FAFC"/>
<path d="M66.4338 55.9879C66.0963 55.9879 65.7657 55.9976 65.4407 56.017C57.0352 56.5184 52.9019 63.4045 56.1796 71.8254H89.0213C85.7421 63.4045 76.2463 56.517 67.4505 56.017C67.1102 55.9976 66.7713 55.9879 66.4338 55.9879Z" fill="#CDD5DF"/>
<path d="M56.1796 72.1393H89.0213C89.1241 72.1393 89.2213 72.0879 89.2796 72.0031C89.338 71.9184 89.3505 71.8101 89.313 71.7129C86.0157 63.2462 76.4213 56.2143 67.4685 55.7059C66.7755 55.667 66.0852 55.667 65.4227 55.7059C61.3935 55.9462 58.1699 57.6476 56.3435 60.4948C54.3741 63.5684 54.2116 67.6337 55.8894 71.9406C55.9352 72.0601 56.0505 72.1393 56.1796 72.1393ZM88.5588 71.5143H56.3949C54.8741 67.4726 55.0407 63.6865 56.8699 60.8323C58.5852 58.1573 61.6352 56.5587 65.4588 56.3295C66.0977 56.292 66.7644 56.292 67.4324 56.3295C76.0088 56.817 85.1921 63.449 88.5588 71.5143Z" fill="#F8FAFC"/>
<path d="M51.5032 35.3145L54.8448 43.9992C55.4295 41.7839 57.4143 40.3117 60.3295 40.3117C64.8434 40.3117 69.8782 43.8395 71.5726 48.1936C73.1407 52.22 71.3045 55.5408 67.4504 56.0186C76.2462 56.5186 85.742 63.4061 89.0212 71.827H56.1796C52.9004 63.4061 57.0351 56.52 65.4407 56.0186C61.2143 55.5408 56.792 52.22 55.2268 48.1936C55.0504 47.7422 54.9184 47.3006 54.8268 46.87H41.3671L53.0282 76.8228H68.3559H96.0643L79.9032 35.3158H52.3184H51.5032V35.3145Z" fill="#E3E8EF"/>
<path d="M53.0268 77.1339H96.0643C96.1671 77.1339 96.2643 77.0825 96.3226 76.9978C96.3809 76.9131 96.3934 76.8047 96.3559 76.7075L80.1948 35.2006C80.1476 35.0811 80.0323 35.002 79.9032 35.002H51.5032C51.4004 35.002 51.3032 35.0533 51.2462 35.1381C51.1879 35.2228 51.1754 35.3311 51.2115 35.427L54.5532 44.1117C54.6018 44.2381 54.7268 44.32 54.8615 44.3117C54.9962 44.3047 55.1115 44.2103 55.1462 44.0797C55.7171 41.9158 57.6532 40.6256 60.3282 40.6256C64.7171 40.6256 69.6309 44.0728 71.2809 48.3089C72.0365 50.2492 71.9962 52.0811 71.1684 53.4672C70.4296 54.7047 69.0962 55.5006 67.4115 55.7103C67.2504 55.7297 67.1323 55.8686 67.1379 56.0311C67.1434 56.1922 67.2712 56.3242 67.4323 56.3325C76.0087 56.82 85.1921 63.452 88.5587 71.5172H56.3948C54.874 67.4756 55.0407 63.6895 56.8698 60.8353C58.5851 58.1603 61.6351 56.5617 65.4587 56.3325C65.6212 56.3228 65.7476 56.1908 65.7532 56.0283C65.7587 55.8658 65.6365 55.7283 65.4754 55.7089C61.3059 55.2381 57.0254 51.9589 55.5171 48.0811C55.3504 47.6533 55.2198 47.2242 55.1309 46.8047C55.1004 46.6603 54.9726 46.5575 54.8254 46.5575H41.3657C41.2629 46.5575 41.1657 46.6089 41.1073 46.6936C41.049 46.7783 41.0365 46.8867 41.074 46.9839L52.7351 76.9367C52.7823 77.0547 52.8976 77.1339 53.0268 77.1339ZM95.6073 76.5089H53.2407L41.8226 47.1811H54.5768C54.6684 47.5533 54.7879 47.9297 54.9351 48.3061C56.2934 51.7978 59.7893 54.8283 63.517 55.9381C60.3782 56.5311 57.8712 58.1103 56.3434 60.4936C54.374 63.5672 54.2115 67.6325 55.8893 71.9395C55.9365 72.0589 56.0518 72.1381 56.1809 72.1381H89.0212C89.124 72.1381 89.2212 72.0867 89.2796 72.0019C89.3379 71.9172 89.3504 71.8089 89.3129 71.7117C86.2296 63.7936 77.6365 57.1297 69.2129 55.8839C70.2851 55.4436 71.1434 54.727 71.7059 53.7839C72.6351 52.2283 72.6907 50.202 71.8643 48.0783C70.1296 43.6228 64.9545 39.9978 60.3295 39.9978C57.7032 39.9978 55.7101 41.1395 54.8323 43.095L51.9587 35.627H79.6893L95.6073 76.5089Z" fill="#F8FAFC"/>
<path d="M79.8199 63.2787L79.9035 64.3873C79.955 65.0501 80.3628 65.6024 80.9938 65.8576L82.0455 66.2836L80.83 66.5213C80.101 66.6656 79.4438 67.1274 79.0739 67.7552L78.4578 68.8057L78.3742 67.6971C78.3227 67.0343 77.917 66.4822 77.2859 66.227L76.2322 65.8008L77.4498 65.5632C78.1788 65.4189 78.8339 64.957 79.2038 64.3292L79.8199 63.2787Z" fill="#EEF2F6"/>
<path d="M27.8164 63.7783L27.8999 64.887C27.9513 65.5518 28.3593 66.1021 28.9903 66.3573L30.042 66.7833L28.8265 67.021C28.0974 67.1653 27.4403 67.6271 27.0702 68.2569L26.4562 69.3076L26.3726 68.199C26.3233 67.5343 25.9154 66.9841 25.2845 66.7268L24.2328 66.3008L25.4483 66.0631C26.1772 65.9208 26.8343 65.4591 27.2023 64.829L27.8164 63.7783Z" fill="#CDD5DF"/>
</g>
<defs>
<filter id="filter0_d_35_2838" x="1.99957" y="2.05081" width="104.547" height="87.2461" filterUnits="userSpaceOnUse" color-interpolation-filters="sRGB">
<feFlood flood-opacity="0" result="BackgroundImageFix"/>
<feColorMatrix in="SourceAlpha" type="matrix" values="0 0 0 0 0 0 0 0 0 0 0 0 0 0 0 0 0 0 127 0" result="hardAlpha"/>
<feOffset dy="4"/>
<feGaussianBlur stdDeviation="2"/>
<feComposite in2="hardAlpha" operator="out"/>
<feColorMatrix type="matrix" values="0 0 0 0 0.518245 0 0 0 0 0.506816 0 0 0 0 0.506816 0 0 0 0.04 0"/>
<feBlend mode="normal" in2="BackgroundImageFix" result="effect1_dropShadow_35_2838"/>
<feBlend mode="normal" in="SourceGraphic" in2="effect1_dropShadow_35_2838" result="shape"/>
</filter>
</defs>
</svg>
