<svg width="28" height="24" viewBox="0 0 28 24" fill="none" xmlns="http://www.w3.org/2000/svg">
<path fill-rule="evenodd" clip-rule="evenodd" d="M15.2195 0.625H15.2195C17.3621 0.624991 19.0417 0.624983 20.3742 0.76935C21.7339 0.916674 22.8357 1.22271 23.7764 1.90618C24.3459 2.31995 24.8468 2.82077 25.2605 3.39027C25.944 4.33099 26.25 5.43276 26.3974 6.79256C26.5417 8.12502 26.5417 9.80452 26.5417 11.9471V11.9472V12.0528V12.0529C26.5417 14.1955 26.5417 15.875 26.3974 17.2074C26.25 18.5672 25.944 19.669 25.2605 20.6097C24.8468 21.1792 24.3459 21.6801 23.7764 22.0938C22.8357 22.7773 21.7339 23.0833 20.3742 23.2307C19.0417 23.375 17.3622 23.375 15.2197 23.375H15.2195H12.7806H12.7804C10.6379 23.375 8.95838 23.375 7.62593 23.2307C6.26614 23.0833 5.16436 22.7773 4.22365 22.0938C3.65415 21.6801 3.15332 21.1792 2.73955 20.6097C2.05609 19.669 1.75005 18.5672 1.60272 17.2074C1.45836 15.875 1.45836 14.1954 1.45837 12.0528V12.0528V11.9472V11.9472C1.45836 9.80458 1.45836 8.12504 1.60272 6.79256C1.75005 5.43276 2.05609 4.33099 2.73955 3.39027C3.15332 2.82077 3.65415 2.31995 4.22365 1.90618C5.16436 1.22271 6.26614 0.916674 7.62593 0.76935C8.95842 0.624983 10.638 0.624991 12.7806 0.625H12.7806H15.2195ZM15.1667 8.5C15.1667 7.85567 15.689 7.33333 16.3334 7.33333H21C21.6444 7.33333 22.1667 7.85567 22.1667 8.5C22.1667 9.14433 21.6444 9.66667 21 9.66667H16.3334C15.689 9.66667 15.1667 9.14433 15.1667 8.5ZM15.1667 12.5833C15.1667 11.939 15.689 11.4167 16.3334 11.4167H19.8334C20.4777 11.4167 21 11.939 21 12.5833C21 13.2277 20.4777 13.75 19.8334 13.75H16.3334C15.689 13.75 15.1667 13.2277 15.1667 12.5833ZM9.91671 5.29153C8.14479 5.29153 6.70837 6.72795 6.70837 8.49986C6.70837 10.2718 8.14479 11.7082 9.91671 11.7082C11.6886 11.7082 13.125 10.2718 13.125 8.49986C13.125 6.72795 11.6886 5.29153 9.91671 5.29153ZM5.04112 16.2955C4.83623 16.7332 5.02493 17.2541 5.4626 17.459C5.5828 17.5152 5.70928 17.5418 5.83376 17.5417H14C14.1245 17.5418 14.251 17.5152 14.3712 17.459C14.8089 17.2541 14.9976 16.7332 14.7927 16.2955C13.8562 14.295 11.7876 13.4305 9.86921 13.4589C7.96151 13.487 5.92757 14.402 5.04112 16.2955Z" fill="url(#paint0_linear_362_303)"/>
<path d="M15.2195 0.625L15.2195 1.125L15.2195 1.125L15.2195 0.625ZM20.3742 0.76935L20.428 0.272259L20.428 0.272259L20.3742 0.76935ZM23.7764 1.90618L23.4825 2.31069L23.4825 2.31069L23.7764 1.90618ZM25.2605 3.39027L24.856 3.68417L24.856 3.68417L25.2605 3.39027ZM26.3974 6.79256L25.9003 6.84641L25.9003 6.84641L26.3974 6.79256ZM26.5417 11.9471L26.0417 11.9471V11.9471H26.5417ZM26.5417 12.0529L26.0417 12.0529L26.0417 12.0529L26.5417 12.0529ZM26.3974 17.2074L25.9003 17.1536L25.9003 17.1536L26.3974 17.2074ZM25.2605 20.6097L24.856 20.3158L24.856 20.3158L25.2605 20.6097ZM23.7764 22.0938L24.0703 22.4983L24.0703 22.4983L23.7764 22.0938ZM20.3742 23.2307L20.3203 22.7336L20.3203 22.7336L20.3742 23.2307ZM15.2197 23.375L15.2197 22.875H15.2197V23.375ZM12.7804 23.375L12.7804 22.875L12.7804 22.875L12.7804 23.375ZM7.62593 23.2307L7.67979 22.7336L7.67979 22.7336L7.62593 23.2307ZM4.22365 22.0938L3.92976 22.4983L3.92976 22.4983L4.22365 22.0938ZM2.73955 20.6097L3.14406 20.3158L3.14406 20.3158L2.73955 20.6097ZM1.60272 17.2074L1.10563 17.2613L1.10563 17.2613L1.60272 17.2074ZM1.45837 12.0528L1.95837 12.0528V12.0528H1.45837ZM1.45837 11.9472L1.95837 11.9472L1.95837 11.9472L1.45837 11.9472ZM1.60272 6.79256L2.09981 6.84641L2.09981 6.84641L1.60272 6.79256ZM2.73955 3.39027L3.14406 3.68417L3.14406 3.68417L2.73955 3.39027ZM4.22365 1.90618L4.51754 2.31069L4.51754 2.31069L4.22365 1.90618ZM7.62593 0.76935L7.67979 1.26644L7.67979 1.26644L7.62593 0.76935ZM12.7806 0.625L12.7806 1.125H12.7806V0.625ZM5.4626 17.459L5.25061 17.9118L5.25061 17.9118L5.4626 17.459ZM5.04112 16.2955L5.49396 16.5075L5.49396 16.5075L5.04112 16.2955ZM5.83376 17.5417L5.83376 17.0417L5.83333 17.0417L5.83376 17.5417ZM14 17.5417L14.0005 17.0417H14V17.5417ZM14.3712 17.459L14.5832 17.9118L14.5832 17.9118L14.3712 17.459ZM14.7927 16.2955L15.2455 16.0835L15.2455 16.0835L14.7927 16.2955ZM9.86921 13.4589L9.8766 13.9588L9.8766 13.9588L9.86921 13.4589ZM15.2195 0.125H15.2195V1.125H15.2195V0.125ZM20.428 0.272259C19.0625 0.124311 17.3515 0.124991 15.2195 0.125L15.2195 1.125C17.3727 1.12499 19.0209 1.12566 20.3203 1.26644L20.428 0.272259ZM24.0703 1.50167C23.0302 0.745956 21.8303 0.424192 20.428 0.272259L20.3203 1.26644C21.6375 1.40916 22.6413 1.69947 23.4825 2.31069L24.0703 1.50167ZM25.665 3.09638C25.2204 2.48443 24.6823 1.94628 24.0703 1.50167L23.4825 2.31069C24.0096 2.69361 24.4731 3.15711 24.856 3.68417L25.665 3.09638ZM26.8944 6.7387C26.7425 5.33636 26.4208 4.13653 25.665 3.09638L24.856 3.68417C25.4672 4.52544 25.7576 5.52916 25.9003 6.84641L26.8944 6.7387ZM27.0417 11.9471C27.0417 9.81512 27.0424 8.10422 26.8944 6.7387L25.9003 6.84641C26.0411 8.14582 26.0417 9.79392 26.0417 11.9471L27.0417 11.9471ZM27.0417 11.9472V11.9471H26.0417V11.9472H27.0417ZM27.0417 12.0528V11.9472H26.0417V12.0528H27.0417ZM27.0417 12.0529V12.0528H26.0417V12.0529H27.0417ZM26.8944 17.2613C27.0424 15.8958 27.0417 14.1849 27.0417 12.0529L26.0417 12.0529C26.0417 14.2061 26.0411 15.8542 25.9003 17.1536L26.8944 17.2613ZM25.665 20.9036C26.4208 19.8635 26.7425 18.6636 26.8944 17.2613L25.9003 17.1536C25.7576 18.4708 25.4672 19.4746 24.856 20.3158L25.665 20.9036ZM24.0703 22.4983C24.6823 22.0537 25.2204 21.5156 25.665 20.9036L24.856 20.3158C24.4731 20.8429 24.0096 21.3064 23.4825 21.6893L24.0703 22.4983ZM20.428 23.7277C21.8303 23.5758 23.0302 23.254 24.0703 22.4983L23.4825 21.6893C22.6413 22.3005 21.6375 22.5908 20.3203 22.7336L20.428 23.7277ZM15.2197 23.875C17.3516 23.875 19.0625 23.8757 20.428 23.7277L20.3203 22.7336C19.0209 22.8743 17.3728 22.875 15.2197 22.875L15.2197 23.875ZM15.2195 23.875H15.2197V22.875H15.2195V23.875ZM12.7806 23.875H15.2195V22.875H12.7806V23.875ZM12.7804 23.875H12.7806V22.875H12.7804V23.875ZM7.57207 23.7277C8.93758 23.8757 10.6485 23.875 12.7804 23.875L12.7804 22.875C10.6273 22.875 8.97918 22.8743 7.67979 22.7336L7.57207 23.7277ZM3.92976 22.4983C4.96991 23.254 6.16974 23.5758 7.57207 23.7277L7.67979 22.7336C6.36254 22.5908 5.35881 22.3005 4.51754 21.6893L3.92976 22.4983ZM2.33504 20.9036C2.77965 21.5156 3.31781 22.0537 3.92976 22.4983L4.51754 21.6893C3.99049 21.3064 3.52699 20.8429 3.14406 20.3158L2.33504 20.9036ZM1.10563 17.2613C1.25757 18.6636 1.57933 19.8635 2.33504 20.9036L3.14406 20.3158C2.53284 19.4746 2.24253 18.4708 2.09981 17.1536L1.10563 17.2613ZM0.958374 12.0528C0.958365 14.1848 0.957685 15.8958 1.10563 17.2613L2.09981 17.1536C1.95903 15.8542 1.95836 14.206 1.95837 12.0528L0.958374 12.0528ZM0.958374 12.0528V12.0528H1.95837V12.0528H0.958374ZM0.958374 11.9472V12.0528H1.95837V11.9472H0.958374ZM0.958374 11.9472V11.9472H1.95837V11.9472H0.958374ZM1.10563 6.7387C0.957685 8.10424 0.958365 9.81518 0.958374 11.9472L1.95837 11.9472C1.95836 9.79398 1.95903 8.14585 2.09981 6.84641L1.10563 6.7387ZM2.33504 3.09638C1.57933 4.13653 1.25757 5.33636 1.10563 6.7387L2.09981 6.84641C2.24253 5.52916 2.53284 4.52544 3.14406 3.68417L2.33504 3.09638ZM3.92976 1.50167C3.31781 1.94628 2.77965 2.48443 2.33504 3.09638L3.14406 3.68417C3.52699 3.15711 3.99049 2.69361 4.51754 2.31069L3.92976 1.50167ZM7.57207 0.272259C6.16974 0.424192 4.96991 0.745956 3.92976 1.50167L4.51754 2.31069C5.35881 1.69947 6.36254 1.40916 7.67979 1.26644L7.57207 0.272259ZM12.7806 0.125C10.6485 0.124991 8.93762 0.124311 7.57207 0.272259L7.67979 1.26644C8.97922 1.12566 10.6274 1.12499 12.7806 1.125L12.7806 0.125ZM12.7806 0.125H12.7806V1.125H12.7806V0.125ZM15.2195 0.125H12.7806V1.125H15.2195V0.125ZM16.3334 6.83333C15.4129 6.83333 14.6667 7.57953 14.6667 8.5H15.6667C15.6667 8.13181 15.9652 7.83333 16.3334 7.83333V6.83333ZM21 6.83333H16.3334V7.83333H21V6.83333ZM22.6667 8.5C22.6667 7.57953 21.9205 6.83333 21 6.83333V7.83333C21.3682 7.83333 21.6667 8.13181 21.6667 8.5H22.6667ZM21 10.1667C21.9205 10.1667 22.6667 9.42047 22.6667 8.5H21.6667C21.6667 8.86819 21.3682 9.16667 21 9.16667V10.1667ZM16.3334 10.1667H21V9.16667H16.3334V10.1667ZM14.6667 8.5C14.6667 9.42048 15.4129 10.1667 16.3334 10.1667V9.16667C15.9652 9.16667 15.6667 8.86819 15.6667 8.5H14.6667ZM16.3334 10.9167C15.4129 10.9167 14.6667 11.6629 14.6667 12.5833H15.6667C15.6667 12.2151 15.9652 11.9167 16.3334 11.9167V10.9167ZM19.8334 10.9167H16.3334V11.9167H19.8334V10.9167ZM21.5 12.5833C21.5 11.6629 20.7538 10.9167 19.8334 10.9167V11.9167C20.2016 11.9167 20.5 12.2151 20.5 12.5833H21.5ZM19.8334 14.25C20.7538 14.25 21.5 13.5038 21.5 12.5833H20.5C20.5 12.9515 20.2016 13.25 19.8334 13.25V14.25ZM16.3334 14.25H19.8334V13.25H16.3334V14.25ZM14.6667 12.5833C14.6667 13.5038 15.4129 14.25 16.3334 14.25V13.25C15.9652 13.25 15.6667 12.9515 15.6667 12.5833H14.6667ZM7.20837 8.49986C7.20837 7.00409 8.42094 5.79153 9.91671 5.79153V4.79153C7.86865 4.79153 6.20837 6.4518 6.20837 8.49986H7.20837ZM9.91671 11.2082C8.42094 11.2082 7.20837 9.99563 7.20837 8.49986H6.20837C6.20837 10.5479 7.86865 12.2082 9.91671 12.2082V11.2082ZM12.625 8.49986C12.625 9.99563 11.4125 11.2082 9.91671 11.2082V12.2082C11.9648 12.2082 13.625 10.5479 13.625 8.49986H12.625ZM9.91671 5.79153C11.4125 5.79153 12.625 7.00409 12.625 8.49986H13.625C13.625 6.4518 11.9648 4.79153 9.91671 4.79153V5.79153ZM5.67459 17.0061C5.48702 16.9183 5.40615 16.6951 5.49396 16.5075L4.58829 16.0835C4.26632 16.7713 4.56285 17.5898 5.25061 17.9118L5.67459 17.0061ZM5.83333 17.0417C5.78073 17.0418 5.72693 17.0306 5.67459 17.0061L5.25061 17.9118C5.43867 17.9998 5.63783 18.0419 5.83419 18.0417L5.83333 17.0417ZM14 17.0417H5.83376V18.0417H14V17.0417ZM14.1592 17.0061C14.1069 17.0306 14.0531 17.0418 14.0005 17.0417L13.9996 18.0417C14.196 18.0419 14.3952 17.9999 14.5832 17.9118L14.1592 17.0061ZM14.3399 16.5075C14.4277 16.6951 14.3468 16.9183 14.1592 17.0061L14.5832 17.9118C15.271 17.5898 15.5675 16.7713 15.2455 16.0835L14.3399 16.5075ZM9.8766 13.9588C11.6588 13.9325 13.5097 14.7342 14.3399 16.5075L15.2455 16.0835C14.2027 13.8559 11.9164 12.9286 9.86183 12.9589L9.8766 13.9588ZM5.49396 16.5075C6.2762 14.8366 8.09908 13.9851 9.8766 13.9588L9.86183 12.9589C7.82394 12.989 5.57893 13.9674 4.58829 16.0835L5.49396 16.5075Z" fill="white"/>
<defs>
<linearGradient id="paint0_linear_362_303" x1="14" y1="0.625" x2="14" y2="23.375" gradientUnits="userSpaceOnUse">
<stop stop-color="#78796F"/>
<stop offset="1" stop-color="#111305"/>
</linearGradient>
</defs>
</svg>
