<svg width="20" height="20" viewBox="0 0 20 20" fill="none" xmlns="http://www.w3.org/2000/svg">
<path fill-rule="evenodd" clip-rule="evenodd" d="M2.106 6.44677C1.77353 6.61291 1.49394 6.86839 1.29858 7.18457C1.10322 7.50075 0.999827 7.86511 1 8.23677V15.9998C1 16.5302 1.21071 17.0389 1.58579 17.414C1.96086 17.7891 2.46957 17.9998 3 17.9998H17C17.5304 17.9998 18.0391 17.7891 18.4142 17.414C18.7893 17.0389 19 16.5302 19 15.9998V8.23577C19 7.86428 18.8965 7.50013 18.7012 7.18415C18.5058 6.86816 18.2263 6.61283 17.894 6.44677L10.894 2.94677C10.6164 2.80805 10.3103 2.73584 10 2.73584C9.68967 2.73584 9.3836 2.80805 9.106 2.94677L2.106 6.44677ZM3.586 10.4538C3.40804 10.3648 3.20202 10.3502 3.01327 10.4131C2.82451 10.476 2.66848 10.6113 2.5795 10.7893C2.49052 10.9672 2.47588 11.1733 2.5388 11.362C2.60172 11.5508 2.73704 11.7068 2.915 11.7958L8.77 14.7238C9.1519 14.9148 9.57301 15.0142 10 15.0142C10.427 15.0142 10.8481 14.9148 11.23 14.7238L17.082 11.7968C17.1736 11.755 17.2559 11.6951 17.3239 11.6208C17.392 11.5465 17.4443 11.4593 17.4779 11.3643C17.5114 11.2694 17.5255 11.1686 17.5193 11.0681C17.5131 10.9676 17.4867 10.8693 17.4417 10.7792C17.3966 10.6891 17.3339 10.609 17.2573 10.5436C17.1806 10.4783 17.0916 10.4291 16.9955 10.3989C16.8994 10.3687 16.7982 10.3582 16.698 10.3679C16.5977 10.3777 16.5005 10.4076 16.412 10.4558L10.559 13.3818C10.3854 13.4686 10.194 13.5137 10 13.5137C9.80595 13.5137 9.61456 13.4686 9.441 13.3818L3.586 10.4538Z" fill="#0DA897"/>
</svg>
