<svg width="20" height="20" viewBox="0 0 20 20" fill="none" xmlns="http://www.w3.org/2000/svg">
<path fill-rule="evenodd" clip-rule="evenodd" d="M0.25 10C0.25 4.615 4.615 0.25 10 0.25C15.385 0.25 19.75 4.615 19.75 10C19.75 15.385 15.385 19.75 10 19.75C4.615 19.75 0.25 15.385 0.25 10ZM11.628 6.083C10.738 5.306 9.262 5.306 8.373 6.083C8.22329 6.21402 8.02766 6.28019 7.82915 6.26697C7.63064 6.25375 7.44552 6.16221 7.3145 6.0125C7.18348 5.86279 7.11731 5.66716 7.13053 5.46865C7.14375 5.27014 7.23529 5.08502 7.385 4.954C8.839 3.682 11.161 3.682 12.615 4.954C14.128 6.278 14.128 8.472 12.615 9.796C12.362 10.0166 12.0805 10.2023 11.778 10.348C11.102 10.676 10.75 11.122 10.75 11.5V12.25C10.75 12.4489 10.671 12.6397 10.5303 12.7803C10.3897 12.921 10.1989 13 10 13C9.80109 13 9.61032 12.921 9.46967 12.7803C9.32902 12.6397 9.25 12.4489 9.25 12.25V11.5C9.25 10.221 10.31 9.393 11.125 8.998C11.307 8.91 11.476 8.799 11.628 8.667C12.458 7.94 12.458 6.81 11.628 6.083ZM10 16C10.1989 16 10.3897 15.921 10.5303 15.7803C10.671 15.6397 10.75 15.4489 10.75 15.25C10.75 15.0511 10.671 14.8603 10.5303 14.7197C10.3897 14.579 10.1989 14.5 10 14.5C9.80109 14.5 9.61032 14.579 9.46967 14.7197C9.32902 14.8603 9.25 15.0511 9.25 15.25C9.25 15.4489 9.32902 15.6397 9.46967 15.7803C9.61032 15.921 9.80109 16 10 16Z" fill="white"/>
</svg>
