<svg width="16" height="15" viewBox="0 0 16 15" fill="none" xmlns="http://www.w3.org/2000/svg">
<path fill-rule="evenodd" clip-rule="evenodd" d="M5.41179 1.25148C5.73328 0.880607 6.13082 0.583256 6.5774 0.379618C7.02399 0.17598 7.50916 0.0708241 7.99998 0.0712906C9.03389 0.0712906 9.96036 0.528433 10.5882 1.25148C11.0778 1.21652 11.5693 1.28735 12.0292 1.45918C12.489 1.63101 12.9065 1.8998 13.2533 2.24729C13.6007 2.594 13.8694 3.01138 14.0412 3.4711C14.213 3.93082 14.2839 4.42213 14.2491 4.91167C14.6199 5.23323 14.9171 5.6308 15.1206 6.07738C15.3241 6.52396 15.4291 7.0091 15.4286 7.49986C15.429 7.99068 15.3239 8.47585 15.1202 8.92244C14.9166 9.36902 14.6192 9.76656 14.2484 10.0881C14.2832 10.5776 14.2122 11.0689 14.0404 11.5286C13.8686 11.9883 13.5999 12.4057 13.2526 12.7524C12.9058 13.0998 12.4885 13.3685 12.0287 13.5403C11.569 13.7121 11.0777 13.783 10.5882 13.7482C10.2667 14.1191 9.86914 14.4165 9.42256 14.6201C8.97598 14.8237 8.4908 14.9289 7.99998 14.9284C7.50916 14.9289 7.02399 14.8237 6.5774 14.6201C6.13082 14.4165 5.73328 14.1191 5.41179 13.7482C4.92218 13.7833 4.43075 13.7126 3.97088 13.5409C3.51102 13.3692 3.09349 13.1006 2.74665 12.7532C2.3992 12.4064 2.13043 11.9889 1.95861 11.529C1.78679 11.0692 1.71593 10.5777 1.75084 10.0881C1.38011 9.76649 1.0829 9.36892 0.879394 8.92234C0.675889 8.47576 0.570852 7.99062 0.571413 7.49986C0.571413 6.46596 1.02856 5.53948 1.7516 4.91167C1.71675 4.42212 1.78764 3.93081 1.95947 3.47108C2.13129 3.01135 2.40002 2.59397 2.74741 2.24729C3.0941 1.8999 3.51147 1.63117 3.9712 1.45934C4.43093 1.28752 4.92224 1.21663 5.41179 1.25148ZM10.7505 6.11777C10.7962 6.05685 10.8292 5.98741 10.8477 5.91354C10.8662 5.83966 10.8698 5.76283 10.8582 5.68756C10.8465 5.61229 10.82 5.54011 10.7801 5.47525C10.7401 5.41039 10.6877 5.35417 10.6257 5.30988C10.5637 5.26559 10.4936 5.23414 10.4193 5.21737C10.345 5.2006 10.2681 5.19884 10.1931 5.21221C10.1181 5.22558 10.0466 5.2538 9.98267 5.29522C9.91876 5.33664 9.86377 5.39041 9.82093 5.45338L7.35541 8.90481L6.11808 7.66748C6.00975 7.56654 5.86648 7.51159 5.71844 7.5142C5.5704 7.51681 5.42916 7.57679 5.32446 7.68148C5.21977 7.78618 5.15979 7.92742 5.15718 8.07546C5.15457 8.2235 5.20952 8.36677 5.31046 8.4751L7.02474 10.1894C7.0834 10.248 7.15412 10.2931 7.23197 10.3217C7.30983 10.3502 7.39297 10.3615 7.47561 10.3547C7.55825 10.3479 7.63843 10.3231 7.71056 10.2822C7.78269 10.2413 7.84505 10.1852 7.89332 10.1178L10.7505 6.11777Z" fill="white"/>
</svg>
