<svg width="123" height="124" viewBox="0 0 123 124" fill="none" xmlns="http://www.w3.org/2000/svg">
<g filter="url(#filter0_d_311_19693)">
<path d="M52.7251 32.472L53.0057 32.4919L53.19 32.2793C54.2222 31.0886 55.4985 30.1339 56.9323 29.4801C58.3661 28.8264 59.9238 28.4887 61.4996 28.4902H61.5001C64.82 28.4902 67.7941 29.9574 69.8105 32.2797L69.9949 32.492L70.2753 32.472C71.8475 32.3597 73.4254 32.5871 74.9018 33.1388C76.3782 33.6904 77.7186 34.5534 78.832 35.6691L78.8328 35.6699C79.948 36.783 80.8107 38.1231 81.3623 39.599C81.914 41.075 82.1416 42.6524 82.0299 44.2241L82.01 44.5047L82.2224 44.6889C83.4127 45.7214 84.3669 46.9978 85.0203 48.4315C85.6736 49.8653 86.0109 51.4229 86.0091 52.9985V52.9997C86.0106 54.5755 85.673 56.1332 85.0192 57.567C84.3654 59.0008 83.4107 60.2771 82.22 61.3093L82.0074 61.4936L82.0273 61.7742C82.1391 63.3459 81.9114 64.9233 81.3597 66.3993C80.8081 67.8753 79.9454 69.2153 78.8302 70.3285L78.8295 70.3292C77.7163 71.4444 76.3762 72.3071 74.9003 72.8588C73.4243 73.4104 71.8469 73.6381 70.2752 73.5264L69.9945 73.5064L69.8102 73.719C68.7781 74.9097 67.5018 75.8644 66.068 76.5182C64.6342 77.172 63.0765 77.5096 61.5007 77.5081H61.4996C59.9238 77.5096 58.3661 77.172 56.9323 76.5182C55.4985 75.8644 54.2222 74.9097 53.19 73.719L53.0056 73.5063L52.7248 73.5264C51.1529 73.639 49.5751 73.4119 48.0987 72.8607C46.6222 72.3094 45.2817 71.4469 44.1682 70.3317L44.1675 70.331C43.052 69.2176 42.1891 67.8772 41.6374 66.4007C41.0858 64.9243 40.8583 63.3464 40.9704 61.7743L40.9904 61.4937L40.7779 61.3094C39.5876 60.277 38.6334 59.0006 37.98 57.5668C37.3266 56.133 36.9894 54.5754 36.9912 52.9998V52.9992C36.9912 49.6793 38.4583 46.7052 40.7807 44.6888L40.9929 44.5045L40.9729 44.2241C40.861 42.6523 41.0886 41.0749 41.6403 39.5989C42.1919 38.123 43.0547 36.7829 44.1701 35.6699L44.1709 35.6691C45.2839 34.5537 46.6239 33.691 48.0999 33.1393C49.5759 32.5877 51.1533 32.3601 52.7251 32.472ZM67.1846 45.7703L59.253 56.8736L55.5465 53.1671L55.5394 53.1601L55.5322 53.1533C55.06 52.7133 54.4354 52.4738 53.79 52.4852C53.1447 52.4965 52.5289 52.758 52.0725 53.2144C51.6161 53.6708 51.3547 54.2865 51.3433 54.9319C51.3319 55.5773 51.5714 56.2018 52.0115 56.6741L52.0182 56.6813L52.0253 56.6883L57.811 62.474L57.8111 62.4742C58.0668 62.7297 58.3751 62.9265 58.7145 63.0509C59.0539 63.1754 59.4163 63.2244 59.7766 63.1947C60.1369 63.165 60.4864 63.0573 60.8008 62.8789C61.1153 62.7006 61.3871 62.4559 61.5975 62.162L61.5979 62.1615L71.2372 48.6665C71.4342 48.4024 71.5769 48.1017 71.657 47.7819C71.7376 47.4599 71.7531 47.1249 71.7024 46.7968C71.6517 46.4687 71.536 46.154 71.3619 45.8713C71.1879 45.5885 70.9591 45.3434 70.689 45.1504C70.4189 44.9573 70.1129 44.8202 69.7891 44.7471C69.4652 44.6739 69.13 44.6663 68.8032 44.7246C68.4763 44.7829 68.1644 44.9059 67.8858 45.0865C67.6091 45.2658 67.3708 45.4982 67.1846 45.7703Z" fill="url(#paint0_linear_311_19693)" stroke="white" stroke-width="1.125"/>
</g>
<defs>
<filter id="filter0_d_311_19693" x="-1.5" y="-1" width="126" height="126" filterUnits="userSpaceOnUse" color-interpolation-filters="sRGB">
<feFlood flood-opacity="0" result="BackgroundImageFix"/>
<feColorMatrix in="SourceAlpha" type="matrix" values="0 0 0 0 0 0 0 0 0 0 0 0 0 0 0 0 0 0 127 0" result="hardAlpha"/>
<feOffset dy="9"/>
<feGaussianBlur stdDeviation="18"/>
<feColorMatrix type="matrix" values="0 0 0 0 0.12549 0 0 0 0 0.901961 0 0 0 0 0.509804 0 0 0 0.14 0"/>
<feBlend mode="normal" in2="BackgroundImageFix" result="effect1_dropShadow_311_19693"/>
<feBlend mode="normal" in="SourceGraphic" in2="effect1_dropShadow_311_19693" result="shape"/>
</filter>
<linearGradient id="paint0_linear_311_19693" x1="61.5001" y1="27.9277" x2="61.5001" y2="78.0706" gradientUnits="userSpaceOnUse">
<stop stop-color="#1CED84"/>
<stop offset="1" stop-color="#15CD70"/>
</linearGradient>
</defs>
</svg>
