<svg width="15" height="15" viewBox="0 0 15 15" fill="none" xmlns="http://www.w3.org/2000/svg">
<path fill-rule="evenodd" clip-rule="evenodd" d="M7.40012 14.8C9.36272 14.8 11.2449 14.0204 12.6327 12.6326C14.0205 11.2448 14.8001 9.3626 14.8001 7.4C14.8001 5.4374 14.0205 3.55518 12.6327 2.16741C11.2449 0.779641 9.36272 0 7.40012 0C5.43752 0 3.5553 0.779641 2.16753 2.16741C0.779763 3.55518 0.00012207 5.4374 0.00012207 7.4C0.00012207 9.3626 0.779763 11.2448 2.16753 12.6326C3.5553 14.0204 5.43752 14.8 7.40012 14.8ZM5.80912 4.8285C5.67761 4.70596 5.50367 4.63924 5.32394 4.64241C5.14421 4.64558 4.97273 4.71839 4.84562 4.8455C4.71851 4.97261 4.64571 5.14409 4.64254 5.32382C4.63936 5.50355 4.70608 5.67749 4.82862 5.809L6.41962 7.4L4.82862 8.991C4.76046 9.05451 4.70579 9.1311 4.66787 9.2162C4.62996 9.3013 4.60957 9.39317 4.60792 9.48632C4.60628 9.57947 4.62342 9.67199 4.65831 9.75838C4.6932 9.84476 4.74513 9.92323 4.81101 9.98911C4.87689 10.055 4.95536 10.1069 5.04174 10.1418C5.12813 10.1767 5.22066 10.1938 5.31381 10.1922C5.40696 10.1906 5.49882 10.1702 5.58392 10.1322C5.66902 10.0943 5.74561 10.0397 5.80912 9.9715L7.40012 8.3805L8.99112 9.9715C9.05463 10.0397 9.13122 10.0943 9.21632 10.1322C9.30142 10.1702 9.39329 10.1906 9.48644 10.1922C9.57959 10.1938 9.67212 10.1767 9.7585 10.1418C9.84488 10.1069 9.92336 10.055 9.98923 9.98911C10.0551 9.92323 10.107 9.84476 10.1419 9.75838C10.1768 9.67199 10.194 9.57947 10.1923 9.48632C10.1907 9.39317 10.1703 9.3013 10.1324 9.2162C10.0945 9.1311 10.0398 9.05451 9.97162 8.991L8.38062 7.4L9.97162 5.809C10.0942 5.67749 10.1609 5.50355 10.1577 5.32382C10.1545 5.14409 10.0817 4.97261 9.95462 4.8455C9.82752 4.71839 9.65603 4.64558 9.47631 4.64241C9.29658 4.63924 9.12263 4.70596 8.99112 4.8285L7.40012 6.4195L5.80912 4.8285Z" fill="white"/>
</svg>
