<svg width="392" height="278" viewBox="0 0 392 278" fill="none" xmlns="http://www.w3.org/2000/svg">
<g clip-path="url(#clip0_437_9524)">
<path d="M318.614 181.041L312.553 163.26L302.431 166.708L281.756 106.045L258.707 113.898L258.776 114.104L251.342 146.195L240.765 191.847L246.935 205.471L268.699 198.054L276.622 195.354L285.442 192.347L292.643 213.481L315.693 205.628L308.491 184.494L318.614 181.041ZM276.704 175.477L271.475 177.259L261.462 180.672L268.297 146.739L268.939 143.923L279.38 174.564L276.704 175.477Z" fill="#88B6EB"/>
<path opacity="0.25" d="M308.491 184.493L315.693 205.627L301.011 199.347L277.547 114.804L268.939 143.924L264.953 160.417L251.343 146.193L258.777 114.103L258.708 113.897L281.756 106.045L302.43 166.709L312.552 163.26L318.614 181.041L308.491 184.493Z" fill="#010101"/>
<path opacity="0.25" d="M276.622 195.353L268.699 198.054L269.863 181.726V178.75L271.475 177.258L272.512 176.301L276.703 175.477C276.704 175.477 276.444 187.469 276.622 195.353Z" fill="#010101"/>
<path d="M276.705 175.476C276.705 175.476 274.725 172.99 271.268 173.277C267.811 173.564 265.882 174.861 265.766 178.462C265.65 182.063 266.509 200.212 265.72 207.414C264.93 214.616 269.84 215.336 270.122 210.007C270.404 204.677 268.318 187.969 269.864 185.232C271.412 182.496 270.47 188.257 272.093 190.13C273.717 192.002 275.445 188.689 273.717 184.224C271.988 179.759 276.705 175.476 276.705 175.476Z" fill="url(#paint0_linear_437_9524)"/>
<path d="M65.6312 148.586C65.0392 148.586 64.6008 148.554 64.4116 148.475C64.1907 148.382 63.517 148.101 57.6353 137.602L58.6927 137.01C60.8893 140.93 64.2204 146.637 64.9258 147.366C65.5659 147.47 69.0836 147.225 72.2005 146.912L72.3225 148.118C70.3599 148.314 67.3485 148.586 65.6312 148.586Z" fill="#F26647"/>
<path d="M86.9521 153.678V154.03C86.9521 154.03 86.6311 160.694 81.6419 160.407C81.6294 160.407 81.6175 160.403 81.605 160.403C78.5198 160.204 74.7008 158.764 72.1403 157.694C70.5311 157.021 69.4157 156.494 69.2917 156.515C68.9674 156.566 73.0705 173.636 73.0158 174.609C73.0098 174.739 72.9795 174.878 72.934 175.021C72.6433 175.946 71.6281 177.054 71.0189 177.146C70.955 177.155 70.8251 177.037 70.6405 176.806C68.7854 174.5 61.4421 161.104 61.2417 156.73C61.0268 151.923 63.4568 149.029 66.7517 148.477C69.1823 148.071 76.2896 149.05 79.8501 149.592C81.1145 149.786 81.9294 149.923 81.9294 149.923L86.9521 153.678Z" fill="#0A2533"/>
<path opacity="0.25" d="M73.0162 174.607C73.0103 174.738 72.9799 174.877 72.9344 175.02C72.6437 175.944 71.6285 177.053 71.0193 177.145C70.9554 177.154 70.8255 177.035 70.6409 176.805C73.2535 173.116 66.4244 155.159 67.9097 155.108C68.6428 155.083 70.2645 156.329 72.1407 157.693C70.5315 157.02 69.4161 156.493 69.2921 156.514C68.9671 156.565 73.0709 173.634 73.0162 174.607Z" fill="#010101"/>
<path opacity="0.25" d="M86.9521 153.677V154.028C86.9521 154.028 86.631 160.693 81.6419 160.405C82.6235 159.621 82.8055 158.238 82.7323 156.565C82.6479 154.628 80.8561 151.313 79.8501 149.592C81.1145 149.786 81.9293 149.922 81.9293 149.922L86.9521 153.677Z" fill="#010101"/>
<path d="M76.335 131.796C76.1689 132.057 76.0594 132.275 76.0594 132.441C76.0594 132.441 76.0535 132.431 76.0416 132.411C75.9836 132.308 75.7746 131.947 75.5057 131.529C75.0508 130.826 74.4232 129.952 74.0441 129.846C73.435 129.679 71.8139 131.728 69.6226 131.892C69.4769 131.905 69.3319 131.907 69.1829 131.902C66.7707 131.792 64.2122 128.371 66.2671 124.34C66.9856 125.816 68.4617 125.852 68.4617 125.852C68.4617 125.852 67.5612 125.671 67.5282 124.555C70.1553 125.021 71.5232 123.042 73.793 123.763C76.0594 124.481 75.9177 125.851 75.9177 125.851C75.9177 125.851 77.6449 125.166 78.1842 127.327C78.6173 129.056 77.0022 130.759 76.335 131.796Z" fill="#0A2533"/>
<path d="M76.0416 132.412C75.8873 132.957 75.5926 133.552 75.1958 134.033C74.7145 134.622 74.0777 135.052 73.3591 135.034C71.8257 134.997 70.3009 132.939 69.6226 131.893C71.8139 131.73 73.4349 129.681 74.0441 129.847C74.4231 129.954 75.0501 130.826 75.5056 131.53C75.7739 131.948 75.9836 132.309 76.0416 132.412Z" fill="url(#paint1_linear_437_9524)"/>
<path d="M78.2567 132.619C78.2567 132.619 77.105 135.25 76.6718 134.674C76.4385 134.362 75.7654 134.156 75.1958 134.031C75.5933 133.55 75.8873 132.955 76.0416 132.41C76.0541 132.43 76.0594 132.44 76.0594 132.44C76.0594 132.274 76.1688 132.055 76.335 131.795C77.1715 132.426 78.2567 132.619 78.2567 132.619Z" fill="url(#paint2_linear_437_9524)"/>
<path d="M86.358 154.84C84.5214 154.571 79.554 149.17 79.554 146.845C79.554 146.517 79.5177 146.153 79.4571 145.757C79.0754 143.339 77.6784 139.792 77.0963 137.286C76.4206 134.37 77.393 133.279 77.393 133.279C79.6542 129.391 84.7712 137.098 87.6897 143.278L87.693 143.281C88.6746 145.363 89.3239 147.297 89.3839 148.591C89.5929 152.967 88.1946 155.11 86.358 154.84Z" fill="#5462AD"/>
<path opacity="0.25" d="M86.3581 154.839C84.5215 154.569 79.5541 149.168 79.5541 146.844C79.5541 146.516 79.5178 146.152 79.4572 145.756L79.4453 144.72L81.245 135.287C81.245 135.287 83.7304 138.242 84.1272 143.534C84.5215 148.826 90.3478 149.978 87.6924 143.28C88.674 145.362 89.3234 147.295 89.3834 148.59C89.593 152.965 88.1948 155.109 86.3581 154.839Z" fill="#010101"/>
<path d="M82.506 143.175C82.4579 143.216 82.3729 143.25 82.2608 143.281C81.4091 143.516 78.927 143.481 77.8933 143.278C77.7391 143.247 77.6145 143.211 77.536 143.175C76.8544 142.85 77.536 142.057 77.3211 140.653C77.1055 139.247 76.5656 135.143 78.6541 133.882C80.8388 132.564 82.4329 137.555 82.506 140.041C82.5792 142.527 82.9761 142.778 82.506 143.175Z" fill="#5462AD"/>
<path d="M82.2601 143.28C82.2601 143.28 82.1606 149.35 81.0023 152.215C81.0023 152.218 81.0023 152.218 81.0023 152.221C80.6417 153.112 80.1782 153.691 79.5809 153.679C77.0686 153.624 71.4255 147.657 70.9106 147.438C70.3984 147.223 67.8313 147.602 67.913 147.223C67.9948 146.844 68.9949 146.007 70.0734 145.604C71.1558 145.199 70.9647 145.441 77.9052 148.63C77.8109 148.017 77.8504 145.368 77.8808 143.868C77.8841 143.641 77.8907 143.441 77.8933 143.277C78.927 143.48 81.4084 143.516 82.2601 143.28Z" fill="url(#paint3_linear_437_9524)"/>
<path d="M75.0869 178.711C75.2629 179.793 67.9948 187.191 68.3732 185.248C68.7489 183.303 71.0194 177.144 71.0194 177.144C71.6285 177.053 72.6437 175.944 72.9345 175.02C73.5291 176.05 74.9385 177.814 75.0869 178.711Z" fill="#5462AD"/>
<path opacity="0.25" d="M81.6417 155.991C81.6417 155.991 69.9751 153.8 67.6704 154.86C65.3657 155.918 71.8869 174.355 71.8869 174.355" stroke="white" stroke-width="0.303053" stroke-miterlimit="10"/>
<path opacity="0.25" d="M81.0025 152.215C81.224 150.996 81.3908 147.453 80.7784 146.053C80.3664 145.107 78.833 144.295 77.8804 143.868C77.8837 143.641 77.8903 143.441 77.8929 143.277C78.9266 143.48 81.4086 143.516 82.2604 143.281C82.2604 143.28 82.1608 149.35 81.0025 152.215Z" fill="#010101"/>
<path d="M269.552 111.159C269.316 112.068 268.921 113.238 268.309 114.804C267.436 117.05 266.118 120.111 264.175 124.378C264.127 126.546 263.436 140.369 263.248 143.551C263.223 143.939 263.208 144.169 263.202 144.2C263.175 144.339 262.675 144.606 262.13 144.742C261.614 144.876 261.063 144.893 260.826 144.578C260.338 143.93 257.044 130.857 256.884 127.779C256.72 124.7 256.559 125.403 260.338 113.144C259.42 113.574 253.467 113.413 253.467 113.413C253.467 113.413 254.558 128.427 254.564 128.536C254.564 128.551 254.555 128.588 254.534 128.639C254.465 128.845 254.246 129.304 254.01 129.534C253.904 129.639 253.794 129.7 253.694 129.669C253.637 129.655 253.497 129.527 253.295 129.312C252.152 128.099 249.018 124.02 247.321 120.217C245.323 115.734 244.835 112.6 246.727 109.469C248.618 106.336 258.195 106.096 258.195 106.096C258.801 106.265 260.195 106.432 261.574 106.76C261.98 106.854 262.386 106.966 262.769 107.093C264.866 107.79 268.863 108.675 269.724 108.178C269.915 108.847 269.958 109.629 269.552 111.159Z" fill="#0C4C96"/>
<path d="M277.489 100.72C277.11 100.935 272.71 100.772 269.736 99.6377C269.751 100.162 269.818 100.987 269.893 101.923C270.012 103.399 270.149 105.154 270.115 106.433C270.096 107.346 269.991 108.018 269.736 108.173C269.733 108.176 269.73 108.179 269.723 108.179C269.266 108.443 267.926 108.315 266.453 108.036C265.502 107.854 264.496 107.609 263.638 107.363C263.325 107.272 263.032 107.182 262.768 107.094C261.083 106.53 258.98 106.314 258.195 106.096C257.997 106.042 257.885 105.99 257.879 105.929C257.855 105.632 258.609 104.96 258.964 104.256C259.006 104.169 259.063 104.038 259.127 103.871C259.415 103.135 259.867 101.741 260.085 100.853C260.215 100.329 260.264 99.9831 260.149 100.043C259.798 100.231 257.718 104.12 257.475 104.12C257.391 104.12 256.972 103.881 256.475 103.544C255.639 102.977 254.587 102.143 254.563 101.747C254.557 101.692 254.572 101.646 254.612 101.61C255.099 101.149 258.824 94.8846 260.176 93.5483C260.809 92.9174 261.558 92.539 262.167 92.3148C262.849 92.0604 263.364 92.0024 263.364 92.0024C264.167 91.9747 264.976 92.0815 265.765 92.2812C268.444 92.951 270.902 94.6426 272.302 95.4786C274.111 96.5577 275.354 96.2611 275.811 96.5307C276.274 96.8043 277.864 100.502 277.489 100.72Z" fill="#88B6EB"/>
<path d="M270.115 106.433C267.624 106.464 262.086 106.242 259.128 103.872C259.416 103.136 259.868 101.742 260.086 100.854C260.086 100.854 265.932 102.626 269.893 101.923C270.012 103.4 270.148 105.154 270.115 106.433Z" fill="#F69181"/>
<path opacity="0.25" d="M265.766 92.2812C265.67 93.3176 265.303 94.433 264.175 94.3453C262.584 94.2214 262.241 92.9207 262.169 92.3149C262.851 92.0604 263.366 92.0024 263.366 92.0024C264.169 91.9747 264.978 92.0808 265.766 92.2812Z" fill="#010101"/>
<path d="M265.093 90.0229C265.093 90.0229 264.824 88.9167 264.281 88.3471C263.842 89.0624 262.148 89.4289 260.841 89.5232C260.223 89.5687 259.689 89.5535 259.42 89.4836C258.501 85.9165 261.365 84.3521 262.96 84.2433C264.551 84.1339 265.984 85.3192 265.551 87.1288C266.981 88.5383 265.093 90.0229 265.093 90.0229Z" fill="#321212"/>
<path d="M265.093 90.0235C265.011 90.2601 264.884 90.6754 264.666 91.0631H264.663C264.305 91.7085 263.706 92.2813 262.666 91.8601C262.63 91.8449 262.593 91.8298 262.56 91.812C261.684 91.4144 261.229 90.6418 260.999 90.0327C260.927 89.8415 260.875 89.6661 260.842 89.5237C262.148 89.4295 263.843 89.0629 264.282 88.3477C264.306 88.3753 264.331 88.4024 264.354 88.4294C264.848 89.0175 265.093 90.0235 265.093 90.0235Z" fill="url(#paint4_linear_437_9524)"/>
<path d="M264.957 92.7798C264.797 93.7799 263.148 93.7258 262.968 93.0771C262.874 92.7409 262.768 92.4166 262.686 92.1799C262.614 91.959 262.559 91.816 262.559 91.816V91.8134C262.593 91.8312 262.629 91.8463 262.665 91.8615C263.705 92.2827 264.305 91.7105 264.662 91.0645H264.665C264.553 91.2886 264.853 91.5708 264.953 92.1008C264.99 92.292 265 92.5168 264.957 92.7798Z" fill="url(#paint5_linear_437_9524)"/>
<path d="M256.395 132.37C256.234 133.613 249.806 138.474 249.915 137.61C250.021 136.746 253.295 129.312 253.295 129.312C253.498 129.527 253.638 129.655 253.694 129.669C254.019 129.763 254.431 128.939 254.533 128.639C255.398 129.724 256.54 131.26 256.395 132.37Z" fill="#262166"/>
<path d="M260.825 154.699C259.313 151.455 260.825 144.578 260.825 144.578C261.31 145.227 263.147 144.469 263.201 144.199C263.207 144.169 263.222 143.938 263.246 143.551C263.246 143.551 263.489 146.846 263.777 149.637C264.065 152.428 262.338 157.938 260.825 154.699Z" fill="#262166"/>
<path opacity="0.25" d="M260.338 113.144C259.419 113.575 253.467 113.414 253.467 113.414C253.467 113.414 254.558 128.428 254.564 128.537C254.564 128.552 254.555 128.588 254.534 128.64C254.464 128.846 254.246 129.304 254.01 129.534C252.913 124.397 250.725 114.546 252.47 112.856C254.704 110.695 260.753 110.119 260.841 110.592C260.929 111.068 260.338 113.144 260.338 113.144Z" fill="#010101"/>
<path d="M256.055 106.048C255.967 106.23 255.921 106.382 255.949 106.482C256.079 106.985 255.388 113.286 255.64 113.935C255.891 114.583 256.037 116.635 255.891 117.932C255.745 119.23 253.046 120.021 253.046 118.905C253.046 117.787 253.37 115.16 253.479 114.15C253.588 113.144 252.579 105.852 252.849 104.843C253.025 104.185 253.7 103.07 254.149 102.376C254.388 102.003 254.564 101.748 254.564 101.748C254.604 102.381 257.256 104.121 257.477 104.121C257.476 104.121 256.409 105.315 256.055 106.048Z" fill="url(#paint6_linear_437_9524)"/>
<path opacity="0.25" d="M269.551 111.158C268.36 111.07 267.02 110.548 266.087 109.612C265.002 108.527 263.192 107.521 261.574 106.76C261.98 106.854 262.386 106.966 262.768 107.093C264.866 107.79 268.863 108.675 269.724 108.178C269.915 108.846 269.957 109.627 269.551 111.158Z" fill="#010101"/>
<path opacity="0.25" d="M268.308 114.805C267.436 117.051 266.117 120.112 264.174 124.379C264.126 126.546 263.435 140.369 263.247 143.552C263.223 143.94 263.208 144.17 263.202 144.2C263.175 144.339 262.675 144.606 262.129 144.743C262.253 140.081 262.09 129.934 262.878 126.916C263.82 123.303 268.045 115.302 268.308 114.805Z" fill="#010101"/>
<path opacity="0.25" d="M263.638 107.363C263.326 107.272 263.032 107.182 262.769 107.093C261.084 106.53 258.981 106.314 258.195 106.096C257.998 106.041 257.886 105.99 257.879 105.929C257.855 105.632 258.61 104.959 258.964 104.256C259.316 103.552 260.501 99.8521 260.15 100.043C259.798 100.23 257.718 104.119 257.476 104.119C257.391 104.119 256.973 103.88 256.476 103.543C256.527 103.455 256.584 103.367 256.648 103.274C257.943 101.364 260.068 98.9885 260.428 96.9363C260.716 95.424 261.149 96.2876 261.076 98.2336C261.011 99.98 260.917 105.326 263.638 107.363Z" fill="#010101"/>
<path opacity="0.25" d="M269.736 108.172C269.733 108.176 269.73 108.178 269.723 108.178C269.267 108.442 267.926 108.315 266.454 108.036C269.087 105.396 267.65 98.246 268.063 98.6132C268.547 99.0437 269.735 99.6377 269.735 99.6377C269.791 101.583 270.576 107.66 269.736 108.172Z" fill="#010101"/>
<path opacity="0.25" d="M257.476 104.119C257.476 104.119 256.41 105.314 256.055 106.047C256.046 105.886 256.035 105.738 256.019 105.605C255.937 104.832 254.734 103.152 254.148 102.374C254.388 102.001 254.564 101.746 254.564 101.746C254.604 102.38 257.255 104.119 257.476 104.119Z" fill="#010101"/>
<path opacity="0.25" d="M264.354 88.4294C263.706 89.8633 261.799 90.0294 260.999 90.0327C260.926 89.8415 260.875 89.6661 260.841 89.5237C262.147 89.4295 263.842 89.0629 264.281 88.3477C264.306 88.3753 264.33 88.4024 264.354 88.4294Z" fill="#010101"/>
<path opacity="0.25" d="M264.953 92.1008C264.832 92.195 264.684 92.2649 264.499 92.3071C263.63 92.5042 263.017 92.3348 262.687 92.1799C262.614 91.959 262.56 91.816 262.56 91.816V91.8134C262.593 91.8312 262.629 91.8463 262.666 91.8615C263.705 92.2827 264.305 91.7105 264.663 91.0645H264.666C264.554 91.2886 264.854 91.5701 264.953 92.1008Z" fill="#010101"/>
<path d="M273.572 -19.7207V114.804" stroke="#0A2533" stroke-width="0.606172" stroke-miterlimit="10"/>
<path d="M279.244 98.792C279.238 98.8283 279.229 98.8645 279.223 98.8981C278.865 100.526 277.562 100.699 277.316 100.592C277.071 100.486 276.422 99.7406 275.855 97.1136C275.843 97.0615 275.834 97.0101 275.822 96.956C275.822 96.956 274.597 93.816 274.022 92.3064C272.601 91.4639 272.331 91.8067 272.131 90.8336C271.933 89.8606 272.564 88.6028 272.925 88.4208C273.286 88.2422 274.904 89.7545 275.122 90.3122C275.337 90.8692 279.568 97.0641 279.244 98.792Z" fill="url(#paint7_linear_437_9524)"/>
<path opacity="0.25" d="M279.222 98.8998C278.865 100.527 277.562 100.7 277.316 100.594C277.071 100.488 276.422 99.7423 275.855 97.1152C276.216 97.845 276.771 98.791 277.38 99.182C278.049 99.6085 278.801 99.4727 279.222 98.8998Z" fill="#010101"/>
<path d="M231.502 183.984L228.029 166.245C225.459 153.125 220.504 143.554 213.163 137.528C205.819 131.506 196.748 129.551 185.949 131.667C175.15 133.782 167.492 138.989 162.979 147.283C158.463 155.582 157.493 166.314 160.072 179.48L163.558 197.286C166.119 210.361 171.068 219.91 178.412 225.933C181.512 228.475 184.925 230.294 188.65 231.383C193.744 232.877 199.424 233.007 205.688 231.782C208.935 231.149 211.899 230.23 214.575 229.03C220.769 226.254 225.443 221.971 228.595 216.177C233.112 207.879 234.079 197.146 231.502 183.984ZM209.82 207.794C208.632 211.431 206.12 213.625 202.282 214.377C198.309 215.155 195.081 214.04 192.59 211.028C190.892 208.976 189.441 205.93 188.237 201.89C188.237 201.887 188.237 201.884 188.237 201.884C188.234 201.878 188.234 201.871 188.231 201.862C187.673 199.99 187.17 197.901 186.721 195.601L181.846 170.698C180.703 164.157 180.7 159.107 181.833 155.549C182.967 151.992 185.476 149.83 189.358 149.072C192.32 148.49 194.874 148.991 197.02 150.567H197.023C197.754 151.106 198.438 151.767 199.075 152.555C201.581 155.656 203.521 160.711 204.891 167.715L209.61 191.813C210.939 198.829 211.009 204.153 209.82 207.794Z" fill="#0DA897"/>
<path opacity="0.25" d="M211.563 211.122C212.564 212.662 213.893 223.13 214.576 229.031C211.899 230.231 208.935 231.149 205.689 231.783C199.425 233.007 193.745 232.877 188.65 231.383C188.859 230.913 189.05 230.422 189.213 229.919C192.393 220.205 188.42 202.679 188.238 201.89C189.441 205.93 190.893 208.976 192.591 211.028C195.081 214.04 198.31 215.156 202.283 214.377C206.12 213.625 208.633 211.431 209.821 207.794C211.009 204.154 210.939 198.829 209.612 191.812L204.893 167.715C203.523 160.711 201.583 155.655 199.077 152.555C198.44 151.767 197.756 151.106 197.025 150.566C204.69 152.069 210.916 175.801 213.51 187.249C216.101 198.698 216.319 203.993 211.563 211.122Z" fill="#010101"/>
<path d="M189.929 206.547C189.929 206.547 190.426 207.846 193.036 208.566C195.648 209.286 198.096 205.247 199.825 206.547C201.553 207.846 204.319 213.231 206.753 212.411C209.187 211.591 209.907 224.555 208.755 225.995C207.603 227.435 206.774 215.793 203.732 216.141C200.689 216.488 202.994 225.274 201.265 226.859C199.536 228.444 200.257 222.97 198.385 221.962C196.512 220.954 200.401 266.037 197.52 266.757C194.639 267.478 192.767 264.741 193.919 255.091C195.071 245.441 193.63 212.167 191.902 210.439C190.175 208.71 190.283 208.386 189.929 206.547Z" fill="#6561AB"/>
<path d="M189.213 -19.7207V137.556" stroke="#0A2533" stroke-width="0.606172" stroke-miterlimit="10"/>
<path d="M226.606 76.7375C226.606 76.7375 224.311 70.4451 224.499 69.9585C224.688 69.4727 227.209 68.5544 227.395 68.824C227.579 69.0943 229.172 73.9825 228.902 74.3333C228.631 74.6846 226.606 76.7375 226.606 76.7375Z" fill="#262166"/>
<path d="M188.417 68.4838C188.417 68.4838 189.818 69.0646 190.441 70.5776C191.063 72.0899 190.821 66.6347 190.821 66.6347L190.146 66.0137L188.417 68.4838Z" fill="url(#paint8_linear_437_9524)"/>
<path d="M187.688 68.4835C187.688 68.4835 189.444 69.7934 189.741 69.8745C190.038 69.9556 190.611 66.5256 190.352 65.9856C190.092 65.4451 189.141 64.9051 188.523 65.2565C187.905 65.6079 187.401 68.2712 187.688 68.4835Z" fill="url(#paint9_linear_437_9524)"/>
<path d="M192.361 68.877C192.361 68.877 190.963 65.6362 190.352 65.0692C189.741 64.5023 188.607 65.2314 188.525 65.528C188.444 65.8247 189.882 66.0409 190.352 66.5275C190.821 67.014 189.552 70.6055 190.767 71.8752C191.982 73.1443 192.361 68.877 192.361 68.877Z" fill="url(#paint10_linear_437_9524)"/>
<path d="M224.877 77.4651C224.877 77.4651 226.119 76.7901 226.39 76.4387C226.659 76.0873 226.174 74.7642 226.957 73.5492C227.74 72.3336 229.414 72.685 229.819 74.1432C230.225 75.6015 229.172 77.4381 228.685 78.005C228.199 78.572 224.877 80.9486 224.877 80.9486" fill="url(#paint11_linear_437_9524)"/>
<path d="M225.767 80.2827C225.731 80.4983 225.51 80.8674 225.08 81.3711C223.504 83.2137 219.16 86.8204 211.332 90.9426C211.178 91.5728 211.056 92.2156 210.965 92.8577C210.675 94.9093 210.68 96.9826 210.778 98.8463C210.801 99.3255 210.832 99.7923 210.865 100.241C211.008 102.204 211.202 103.826 211.151 104.766C211.126 105.178 211.054 105.456 210.915 105.58C210.739 105.735 210.553 105.874 210.36 105.999C206.45 108.509 199.333 104.76 198.181 103.632C198.09 103.544 198.036 103.471 198.025 103.419C197.824 102.662 198.6 101.852 199.033 100.555C199.106 100.334 199.179 99.8397 199.251 99.164C199.458 97.1665 199.636 93.5934 199.7 90.905C199.737 89.189 199.727 87.835 199.649 87.477C199.646 87.4711 199.646 87.4645 199.646 87.4645C199.431 86.5824 192.875 76.678 190.908 73.1682C190.547 72.5287 190.342 72.1015 190.353 71.9802C190.425 71.1891 191.938 68.3801 192.262 68.4164C192.317 68.4223 192.517 68.6741 192.82 69.0921C194.339 71.2017 198.424 77.5785 199.176 78.3907C199.879 79.1514 203.458 82.919 204.992 84.5341C205.425 84.9857 205.695 85.2705 205.695 85.2705C206.525 85.2553 207.358 85.1795 208.192 85.0497C215.56 83.9131 222.8 78.7546 224.695 77.3207C225.007 77.0847 225.174 76.9509 225.174 76.9509C225.174 76.9509 225.931 79.2741 225.767 80.2827Z" fill="#0DA897"/>
<path d="M207.381 88.5295C204.868 88.9356 204.861 85.6658 204.991 84.5352C205.424 84.9867 205.694 85.2715 205.694 85.2715C206.524 85.2564 207.357 85.1806 208.191 85.0507C208.503 86.3388 208.253 88.3904 207.381 88.5295Z" fill="#C54527"/>
<path d="M209.925 81.5202C209.437 81.8142 208.8 81.9144 207.988 81.7047C207.364 81.5472 206.633 81.205 205.781 80.6256C205.781 80.6256 205.108 81.4351 205.054 82.9197C203.271 81.3804 202.838 79.8404 204.35 79.2735C203.729 76.5732 205.054 76.0063 207.266 75.8731C209.482 75.7366 209.994 78.0064 211.318 77.9523C211.398 79.1627 211.056 80.8504 209.925 81.5202Z" fill="#262166"/>
<path d="M209.925 81.5183C209.901 81.7365 209.865 81.9877 209.813 82.2579C209.516 83.8375 208.74 86.0407 207.57 85.9194C207.51 85.9167 207.446 85.9042 207.379 85.8831C206.328 85.5528 205.694 84.5317 205.364 83.7801C205.146 83.2923 205.055 82.9192 205.055 82.9192C205.072 82.4498 205.151 82.0463 205.252 81.716C205.467 81.0034 205.782 80.625 205.782 80.625C206.634 81.2038 207.364 81.5466 207.989 81.7042C208.801 81.9125 209.437 81.8123 209.925 81.5183Z" fill="url(#paint12_linear_437_9524)"/>
<path d="M207.57 86.8513C207.558 87.4242 207.479 87.8725 207.097 87.8995C206.324 87.9542 205.297 86.9449 205.352 85.848C205.37 85.4755 205.376 85.0786 205.376 84.7147C205.376 84.3475 205.369 84.0146 205.364 83.7812C205.694 84.5328 206.327 85.5539 207.379 85.8842C207.446 85.9053 207.509 85.9178 207.57 85.9205C207.567 86.2396 207.579 86.5606 207.57 86.8513Z" fill="url(#paint13_linear_437_9524)"/>
<path d="M225.767 80.2823C225.731 80.4979 225.51 80.8671 225.08 81.3707C225.1 80.0826 224.819 78.1279 224.695 77.321C225.007 77.085 225.174 76.9512 225.174 76.9512C225.174 76.9512 225.931 79.2737 225.767 80.2823Z" fill="#C54527"/>
<path d="M192.819 69.0934C191.668 70.0783 191.106 72.2248 190.907 73.1701C190.546 72.5307 190.341 72.1035 190.352 71.9822C190.425 71.1911 191.937 68.3821 192.261 68.4183C192.317 68.4236 192.516 68.6748 192.819 69.0934Z" fill="#C54527"/>
<path d="M210.865 100.241C208.289 100.614 203.442 100.945 199.251 99.1652C199.457 97.1677 199.636 93.5946 199.7 90.9062C201.776 91.785 206.258 93.3487 210.966 92.8576C210.598 95.4379 210.701 98.0531 210.865 100.241Z" fill="#FCAF17"/>
<path opacity="0.25" d="M210.359 105.999C206.146 108.702 198.211 104.141 198.024 103.419C197.824 102.662 198.6 101.852 199.033 100.555C199.105 100.334 199.178 99.8393 199.251 99.1636C199.457 97.1661 199.636 93.593 199.7 90.9046C199.736 89.1886 199.727 87.8345 199.649 87.4766C199.739 87.7554 201.164 92.2712 201.894 96.6657C202.651 101.203 202.488 103.364 204.704 104.822C206 105.674 208.368 106.123 210.359 105.999Z" fill="#010101"/>
<path d="M219.987 118.472C219.987 120.345 213.216 130.722 211.814 132.852C211.653 133.098 211.562 133.235 211.562 133.235C211.562 133.235 210.689 133.135 209.971 132.892C209.471 132.719 209.044 132.483 209.044 132.156C209.044 132.088 209.056 131.985 209.077 131.849C209.317 130.403 210.805 125.172 212.714 118.256C211.708 117.032 204.65 112.349 204.65 112.349C204.65 112.349 204.647 112.355 204.643 112.367C204.337 113.073 194.539 135.731 193.426 137.844C193.387 137.92 193.359 137.968 193.341 137.99C192.838 138.639 190.75 138.708 190.605 137.341C190.605 137.338 190.605 137.338 190.605 137.335C190.005 131.608 194.945 114.331 197.245 106.691C197.657 105.321 197.984 104.26 198.181 103.633C199.333 104.76 206.45 108.509 210.36 106C210.553 105.876 210.739 105.736 210.915 105.582C211.054 105.458 211.126 105.179 211.151 104.767C211.223 104.845 211.3 104.93 211.375 105.021C214.101 108.139 219.987 116.668 219.987 118.472Z" fill="#9DC2E7"/>
<path d="M194.116 141.013C193.847 142.362 186.715 146.36 187.365 143.941C187.892 141.98 189.874 138.558 190.604 137.334C190.604 137.337 190.604 137.337 190.604 137.34C190.75 138.707 192.838 138.638 193.341 137.989C193.358 137.968 193.386 137.919 193.426 137.843C193.789 138.886 194.292 140.14 194.116 141.013Z" fill="#262166"/>
<path d="M214.156 139.824C213.614 140.095 206.594 137.394 206.755 136.476C206.919 135.557 209.076 131.848 209.076 131.848C209.055 131.984 209.043 132.087 209.043 132.154C209.043 132.945 211.561 133.233 211.561 133.233C211.561 133.233 211.652 133.097 211.813 132.851C212.126 135.655 214.663 139.571 214.156 139.824Z" fill="#262166"/>
<path opacity="0.25" d="M203.731 111.576C203.731 111.576 195.952 126.851 193.035 137.335" stroke="#010101" stroke-width="0.303053" stroke-miterlimit="10"/>
<path opacity="0.25" d="M205.567 111.576C205.567 111.576 214.209 117.248 214.534 118.166C214.858 119.084 210.05 131.85 210.05 131.85" stroke="#010101" stroke-width="0.303053" stroke-miterlimit="10"/>
<path opacity="0.25" d="M211.374 105.019C210.423 108.82 204.913 107.787 202.094 107.056C200.455 106.632 198.575 106.617 197.246 106.689C197.658 105.319 197.985 104.258 198.182 103.631C199.333 104.758 206.45 108.507 210.36 105.998C210.554 105.874 210.739 105.734 210.915 105.58C211.054 105.456 211.127 105.177 211.151 104.765C211.223 104.844 211.299 104.929 211.374 105.019Z" fill="#010101"/>
<path opacity="0.25" d="M209.971 132.892C209.471 132.719 209.044 132.483 209.044 132.156C209.044 132.089 209.056 131.986 209.077 131.85C209.317 130.404 210.805 125.173 212.714 118.257C211.708 117.032 204.65 112.35 204.65 112.35C204.65 112.35 205.225 110.407 205.874 110.262C206.522 110.12 214.012 116.563 214.839 117.897C215.569 119.068 210.468 128.634 209.971 132.892Z" fill="#010101"/>
<path opacity="0.25" d="M209.925 81.5189C209.9 81.7371 209.864 81.9883 209.813 82.2586C207.925 83.2198 206.072 81.0555 205.851 81.0825C205.724 81.0977 205.463 81.4253 205.251 81.716C205.466 81.0034 205.781 80.625 205.781 80.625C206.633 81.2038 207.364 81.5466 207.989 81.7042C208.8 81.9132 209.437 81.813 209.925 81.5189Z" fill="#010101"/>
<path opacity="0.25" d="M207.57 86.8513C206.324 86.5481 205.636 85.2995 205.376 84.7147C205.376 84.3475 205.37 84.0146 205.364 83.7812C205.694 84.5328 206.328 85.5539 207.379 85.8842C207.446 85.9053 207.51 85.9178 207.57 85.9205C207.567 86.2396 207.579 86.5606 207.57 86.8513Z" fill="#010101"/>
<path opacity="0.25" d="M210.965 92.8565C210.674 94.9081 210.68 96.9814 210.777 98.845C210.286 96.775 209.856 94.5501 210.359 93.2626C211.225 91.0442 211.319 90.9414 211.332 90.9414C211.177 91.5716 211.056 92.2137 210.965 92.8565Z" fill="#010101"/>
<path d="M150.325 113.524L127.006 109.518L126.97 109.727L75.4735 167.705L74.4102 182.199L81.7963 183.469L94.5803 185.666L111.74 188.615L113.371 188.894L112.144 196.044L111.574 199.351L109.698 210.277L124.876 212.886L133.017 214.283L136.69 192.901L146.934 194.659L150.025 176.665L139.781 174.907L150.325 113.524ZM121.215 143.235L116.459 170.9L110.771 169.921L98.3287 167.785L105.218 159.563L106.794 157.68L119.929 142.002L121.787 139.899L121.215 143.235Z" fill="#0A376B"/>
<path opacity="0.25" d="M111.74 188.616L94.5801 185.666C96.6013 178.99 99.1236 169.788 98.3292 167.785L110.771 169.921C111.568 171.249 112.198 173.076 112.368 175.583C112.671 180.021 112.01 184.552 111.74 188.616Z" fill="#010101"/>
<path d="M99.0719 167.913C99.0719 167.913 100.943 165.317 105.156 166.128C109.369 166.938 109.694 172.124 107.857 177.85C106.02 183.575 105.588 203.56 106.452 210.042C107.317 216.523 106.776 219.549 104.724 219.764C102.672 219.98 101.699 211.986 102.888 206.369C104.076 200.752 103.968 195.566 102.023 196.43C100.079 197.295 101.699 199.456 100.727 201.4C99.7542 203.344 96.8377 202.156 96.9458 198.482C97.0539 194.809 102.927 170.939 99.0719 167.913Z" fill="#9DC2E7"/>
<path opacity="0.25" d="M139.781 174.908L150.025 176.665L146.934 194.659L136.69 192.902L133.016 214.284L124.875 212.886L139.184 123.606L150.325 113.525L139.781 174.908Z" fill="#010101"/>
<path d="M132.811 -19.7207V119.436" stroke="#020B15" stroke-width="0.606172" stroke-miterlimit="10"/>
<path d="M172.025 91.6901C174.352 91.6901 176.238 89.8038 176.238 87.4769C176.238 85.15 174.352 83.2637 172.025 83.2637C169.698 83.2637 167.812 85.15 167.812 87.4769C167.812 89.8038 169.698 91.6901 172.025 91.6901Z" fill="#F47920"/>
<path d="M318.614 145.231C320.941 145.231 322.827 143.345 322.827 141.018C322.827 138.691 320.941 136.805 318.614 136.805C316.287 136.805 314.401 138.691 314.401 141.018C314.401 143.345 316.287 145.231 318.614 145.231Z" fill="#6561AB"/>
<path d="M98.3299 114.469C100.657 114.469 102.543 112.583 102.543 110.256C102.543 107.929 100.657 106.043 98.3299 106.043C96.003 106.043 94.1167 107.929 94.1167 110.256C94.1167 112.583 96.003 114.469 98.3299 114.469Z" fill="#9DC2E7"/>
<path d="M167.813 243.315C170.14 243.315 172.026 241.429 172.026 239.102C172.026 236.775 170.14 234.889 167.813 234.889C165.486 234.889 163.6 236.775 163.6 239.102C163.6 241.429 165.486 243.315 167.813 243.315Z" fill="#F26647"/>
<path d="M294.529 101.785C295.427 101.785 296.154 101.058 296.154 100.16C296.154 99.2627 295.427 98.5352 294.529 98.5352C293.632 98.5352 292.904 99.2627 292.904 100.16C292.904 101.058 293.632 101.785 294.529 101.785Z" fill="#F47920"/>
<path d="M170.4 127.088C171.297 127.088 172.025 126.36 172.025 125.463C172.025 124.565 171.297 123.838 170.4 123.838C169.502 123.838 168.775 124.565 168.775 125.463C168.775 126.36 169.502 127.088 170.4 127.088Z" fill="#9DC2E7"/>
<path d="M121.788 105.086C122.685 105.086 123.413 104.358 123.413 103.461C123.413 102.563 122.685 101.836 121.788 101.836C120.89 101.836 120.163 102.563 120.163 103.461C120.163 104.358 120.89 105.086 121.788 105.086Z" fill="#6561AB"/>
<path d="M341.63 14.4054C341.63 14.4054 335.136 7.92372 322.827 10.5165C310.518 13.1093 301.866 32.5543 292.905 36.8749C283.942 41.1963 266.274 53.9558 264.954 64.8603C282.215 50.4869 288.696 56.7523 299.931 55.0238C311.166 53.2953 312.03 40.1158 328.235 40.5482C344.439 40.98 361.724 61.1145 377.928 49.8593C394.132 38.6041 413.145 25.2083 397.804 14.1898C382.464 3.17125 351.352 20.0228 341.63 14.4054Z" fill="url(#paint14_linear_437_9524)"/>
<path d="M78.6925 58.2135C78.6925 58.2135 77.0022 67.2313 86.0845 75.9346C95.1662 84.6379 116.104 80.8169 124.726 85.781C133.348 90.7451 153.849 98.1418 163.599 93.0821C141.995 86.9334 143.514 78.0475 135.751 69.7437C127.989 61.4405 116.617 68.1589 107.836 54.5337C99.0551 40.9078 105.934 15.2798 87.5019 8.24507C69.0689 1.21031 47.2843 -6.93724 46.8353 11.9447C46.3864 30.8267 77.8486 47.0163 78.6925 58.2135Z" fill="url(#paint15_linear_437_9524)"/>
<path d="M392.403 109.914C392.403 109.914 366.044 138.833 360.426 172.741C354.809 206.649 327.789 204.488 318.613 220.476C309.437 236.464 287.568 237.76 277.545 244.242C267.522 250.724 244.687 239.489 240.764 244.242C236.842 248.995 261.247 256.342 292.904 256.773C324.562 257.205 330.61 232.575 358.698 229.118C386.785 225.661 414.872 213.562 424.811 167.757C434.75 121.954 417.897 97.4415 392.403 109.914Z" fill="url(#paint16_linear_437_9524)"/>
<path d="M11.9813 121.558C11.9813 121.558 38.3397 150.479 43.9578 184.385C49.5752 218.293 76.5948 216.132 85.7708 232.12C94.9468 248.108 116.816 249.405 126.839 255.887C136.862 262.368 159.697 251.134 163.62 255.887C167.542 260.64 143.137 267.986 111.48 268.418C79.8225 268.85 73.7739 244.219 45.6863 240.763C17.5994 237.306 -10.4889 225.207 -20.427 179.403C-30.3663 133.599 -13.5135 109.086 11.9813 121.558Z" fill="url(#paint17_linear_437_9524)"/>
</g>
<defs>
<linearGradient id="paint0_linear_437_9524" x1="268.981" y1="157.356" x2="274.166" y2="240.32" gradientUnits="userSpaceOnUse">
<stop stop-color="#FCAF17"/>
<stop offset="1" stop-color="#F47920"/>
</linearGradient>
<linearGradient id="paint1_linear_437_9524" x1="72.5398" y1="134.905" x2="73.1339" y2="129.287" gradientUnits="userSpaceOnUse">
<stop stop-color="#FBC4AF"/>
<stop offset="1" stop-color="#EA8B69"/>
</linearGradient>
<linearGradient id="paint2_linear_437_9524" x1="80.0267" y1="133.025" x2="74.8411" y2="133.403" gradientUnits="userSpaceOnUse">
<stop stop-color="#FBC4AF"/>
<stop offset="1" stop-color="#EA8B69"/>
</linearGradient>
<linearGradient id="paint3_linear_437_9524" x1="73.2382" y1="154.191" x2="77.9914" y2="137.123" gradientUnits="userSpaceOnUse">
<stop stop-color="#FBC4AF"/>
<stop offset="1" stop-color="#EA8B69"/>
</linearGradient>
<linearGradient id="paint4_linear_437_9524" x1="262.887" y1="91.6118" x2="263.103" y2="86.6701" gradientUnits="userSpaceOnUse">
<stop stop-color="#FBC4AF"/>
<stop offset="1" stop-color="#EA8B69"/>
</linearGradient>
<linearGradient id="paint5_linear_437_9524" x1="263.846" y1="93.7152" x2="263.684" y2="90.2046" gradientUnits="userSpaceOnUse">
<stop stop-color="#FBC4AF"/>
<stop offset="1" stop-color="#EA8B69"/>
</linearGradient>
<linearGradient id="paint6_linear_437_9524" x1="253.01" y1="120.216" x2="256.899" y2="94.9381" gradientUnits="userSpaceOnUse">
<stop stop-color="#FBC4AF"/>
<stop offset="1" stop-color="#EA8B69"/>
</linearGradient>
<linearGradient id="paint7_linear_437_9524" x1="274.768" y1="89.7259" x2="277.793" y2="105.678" gradientUnits="userSpaceOnUse">
<stop stop-color="#FBC4AF"/>
<stop offset="1" stop-color="#EA8B69"/>
</linearGradient>
<linearGradient id="paint8_linear_437_9524" x1="188.977" y1="66.1938" x2="190.868" y2="70.2126" gradientUnits="userSpaceOnUse">
<stop stop-color="#FBC4AF"/>
<stop offset="1" stop-color="#EA8B69"/>
</linearGradient>
<linearGradient id="paint9_linear_437_9524" x1="186.11" y1="66.094" x2="190.809" y2="68.0654" gradientUnits="userSpaceOnUse">
<stop stop-color="#FBC4AF"/>
<stop offset="1" stop-color="#EA8B69"/>
</linearGradient>
<linearGradient id="paint10_linear_437_9524" x1="188.806" y1="64.5827" x2="191.831" y2="71.0104" gradientUnits="userSpaceOnUse">
<stop stop-color="#FBC4AF"/>
<stop offset="1" stop-color="#EA8B69"/>
</linearGradient>
<linearGradient id="paint11_linear_437_9524" x1="231.877" y1="70.9442" x2="223.29" y2="81.1522" gradientUnits="userSpaceOnUse">
<stop stop-color="#FBC4AF"/>
<stop offset="1" stop-color="#EA8B69"/>
</linearGradient>
<linearGradient id="paint12_linear_437_9524" x1="207.858" y1="86.5034" x2="206.94" y2="75.8081" gradientUnits="userSpaceOnUse">
<stop stop-color="#FBC4AF"/>
<stop offset="1" stop-color="#EA8B69"/>
</linearGradient>
<linearGradient id="paint13_linear_437_9524" x1="206.287" y1="86.5882" x2="206.719" y2="83.8336" gradientUnits="userSpaceOnUse">
<stop stop-color="#FBC4AF"/>
<stop offset="1" stop-color="#EA8B69"/>
</linearGradient>
<linearGradient id="paint14_linear_437_9524" x1="365.201" y1="27.4732" x2="219.579" y2="61.1781" gradientUnits="userSpaceOnUse">
<stop stop-color="white" stop-opacity="0"/>
<stop offset="1" stop-color="#9DC2E7"/>
</linearGradient>
<linearGradient id="paint15_linear_437_9524" x1="76.1916" y1="31.3775" x2="186.145" y2="132.629" gradientUnits="userSpaceOnUse">
<stop stop-color="white" stop-opacity="0"/>
<stop offset="1" stop-color="#9DC2E7"/>
</linearGradient>
<linearGradient id="paint16_linear_437_9524" x1="380.349" y1="174.945" x2="171.319" y2="223.326" gradientUnits="userSpaceOnUse">
<stop stop-color="white" stop-opacity="0"/>
<stop offset="1" stop-color="#9DC2E7"/>
</linearGradient>
<linearGradient id="paint17_linear_437_9524" x1="24.0355" y1="186.588" x2="233.065" y2="234.969" gradientUnits="userSpaceOnUse">
<stop stop-color="white" stop-opacity="0"/>
<stop offset="1" stop-color="#9DC2E7"/>
</linearGradient>
<clipPath id="clip0_437_9524">
<rect width="390.163" height="277.392" fill="white" transform="translate(0.918457 0.304688)"/>
</clipPath>
</defs>
</svg>
