<svg width="50" height="50" viewBox="0 0 242 149" fill="none" xmlns="http://www.w3.org/2000/svg">
<path d="M228.35 59.2599C219.57 50.77 208.49 47.9499 201.46 47.0099C199.525 39.8485 196.405 33.0614 192.23 26.9299C183.86 14.7899 167.35 0.319946 136.35 0.319946C102.85 0.319946 86.76 16.6399 80.66 25.1299C68.96 24.7599 41.17 26.82 25.41 52.27H46.15C61.31 38.63 82.74 41.32 83.79 41.46L89.69 42.3099L92.21 36.9C92.31 36.7 102.21 16.41 136.37 16.41C181.55 16.41 186.66 53.9499 186.86 55.5099L187.69 62.91L195.13 62.65C195.26 62.65 208.47 62.43 217.13 70.83C222.52 76.03 225.25 83.77 225.25 93.83C225.25 119.55 199.75 126.09 195.42 127.01H136.35V143.1H196.91L197.59 142.98C212.74 140.38 241.35 126.76 241.35 93.8199C241.35 79.2399 236.99 67.6099 228.35 59.2599Z" fill="url(#paint0_linear_249_3069)"/>
<path d="M55.2499 112.5C60.3862 112.5 64.5499 108.336 64.5499 103.2C64.5499 98.0637 60.3862 93.9 55.2499 93.9C50.1137 93.9 45.95 98.0637 45.95 103.2C45.95 108.336 50.1137 112.5 55.2499 112.5Z" fill="url(#paint1_linear_249_3069)"/>
<path d="M28.11 111.58C32.7381 111.58 36.49 107.828 36.49 103.2C36.49 98.5718 32.7381 94.8199 28.11 94.8199C23.4818 94.8199 19.73 98.5718 19.73 103.2C19.73 107.828 23.4818 111.58 28.11 111.58Z" fill="url(#paint2_linear_249_3069)"/>
<path d="M5.32 108.52C8.25815 108.52 10.64 106.138 10.64 103.2C10.64 100.262 8.25815 97.8799 5.32 97.8799C2.38184 97.8799 0 100.262 0 103.2C0 106.138 2.38184 108.52 5.32 108.52Z" fill="url(#paint3_linear_249_3069)"/>
<path d="M28.11 143.08C32.7381 143.08 36.49 139.328 36.49 134.7C36.49 130.072 32.7381 126.32 28.11 126.32C23.4818 126.32 19.73 130.072 19.73 134.7C19.73 139.328 23.4818 143.08 28.11 143.08Z" fill="#069ECC"/>
<path d="M5.32 140.02C8.25815 140.02 10.64 137.638 10.64 134.7C10.64 131.762 8.25815 129.38 5.32 129.38C2.38184 129.38 0 131.762 0 134.7C0 137.638 2.38184 140.02 5.32 140.02Z" fill="#069ECC"/>
<path d="M28.11 79.95C32.7381 79.95 36.49 76.1981 36.49 71.5699C36.49 66.9418 32.7381 63.1899 28.11 63.1899C23.4818 63.1899 19.73 66.9418 19.73 71.5699C19.73 76.1981 23.4818 79.95 28.11 79.95Z" fill="url(#paint4_linear_249_3069)"/>
<path d="M5.32 76.89C8.25815 76.89 10.64 74.5081 10.64 71.5699C10.64 68.6318 8.25815 66.2499 5.32 66.2499C2.38184 66.2499 0 68.6318 0 71.5699C0 74.5081 2.38184 76.89 5.32 76.89Z" fill="url(#paint5_linear_249_3069)"/>
<path d="M107.64 57.83C101.37 57.83 93.64 66.7599 91.15 70.2299H70.42C68.35 67.4499 62.87 61.3199 58.42 61.3199C55.7583 61.4031 53.2334 62.5189 51.38 64.4312C49.5265 66.3434 48.4901 68.9019 48.4901 71.5649C48.4901 74.228 49.5265 76.7865 51.38 78.6987C53.2334 80.611 55.7583 81.7268 58.42 81.8099C63.02 81.8099 68.66 75.4999 70.62 72.8099H91.05C93.35 76.1899 101.28 85.3499 107.69 85.3499C111.334 85.3499 114.829 83.9023 117.406 81.3256C119.982 78.7488 121.43 75.254 121.43 71.6099C121.43 67.9658 119.982 64.471 117.406 61.8943C114.829 59.3175 111.334 57.8699 107.69 57.8699L107.64 57.83Z" fill="url(#paint6_linear_249_3069)"/>
<path d="M134.46 89.46C128.18 89.46 120.46 98.3899 117.96 101.86H97.2299C95.1599 99.0799 89.6799 92.95 85.2299 92.95C82.5682 93.0331 80.0433 94.1489 78.1899 96.0612C76.3365 97.9734 75.3 100.532 75.3 103.195C75.3 105.858 76.3365 108.417 78.1899 110.329C80.0433 112.241 82.5682 113.357 85.2299 113.44C89.8299 113.44 95.4699 107.13 97.4299 104.44H117.86C120.17 107.82 128.09 116.98 134.51 116.98C138.154 116.98 141.649 115.532 144.226 112.956C146.802 110.379 148.25 106.884 148.25 103.24C148.25 99.5959 146.802 96.101 144.226 93.5243C141.649 90.9475 138.154 89.4999 134.51 89.4999L134.46 89.46Z" fill="url(#paint7_linear_249_3069)"/>
<path d="M107.64 120.96C101.37 120.96 93.64 129.89 91.15 133.36H70.42C68.35 130.58 62.87 124.45 58.42 124.45C55.7583 124.533 53.2334 125.649 51.38 127.561C49.5265 129.473 48.4901 132.032 48.4901 134.695C48.4901 137.358 49.5265 139.917 51.38 141.829C53.2334 143.741 55.7583 144.857 58.42 144.94C63.02 144.94 68.66 138.63 70.62 135.94H91.05C93.35 139.31 101.28 148.48 107.69 148.48C111.334 148.48 114.829 147.032 117.406 144.456C119.982 141.879 121.43 138.384 121.43 134.74C121.43 131.096 119.982 127.601 117.406 125.024C114.829 122.448 111.334 121 107.69 121L107.64 120.96Z" fill="#069ECC"/>
<defs>
<linearGradient id="paint0_linear_249_3069" x1="-23.93" y1="73.9899" x2="1016.02" y2="61.4899" gradientUnits="userSpaceOnUse">
<stop stop-color="#243180"/>
<stop offset="1" stop-color="#04A4E0"/>
</linearGradient>
<linearGradient id="paint1_linear_249_3069" x1="-23.57" y1="104.15" x2="1016.39" y2="91.6399" gradientUnits="userSpaceOnUse">
<stop stop-color="#243180"/>
<stop offset="1" stop-color="#04A4E0"/>
</linearGradient>
<linearGradient id="paint2_linear_249_3069" x1="-23.57" y1="103.82" x2="1016.38" y2="91.31" gradientUnits="userSpaceOnUse">
<stop stop-color="#243180"/>
<stop offset="1" stop-color="#04A4E0"/>
</linearGradient>
<linearGradient id="paint3_linear_249_3069" x1="-23.58" y1="103.55" x2="1016.38" y2="91.04" gradientUnits="userSpaceOnUse">
<stop stop-color="#243180"/>
<stop offset="1" stop-color="#04A4E0"/>
</linearGradient>
<linearGradient id="paint4_linear_249_3069" x1="-23.95" y1="72.1899" x2="1016" y2="59.6899" gradientUnits="userSpaceOnUse">
<stop stop-color="#243180"/>
<stop offset="1" stop-color="#04A4E0"/>
</linearGradient>
<linearGradient id="paint5_linear_249_3069" x1="-23.96" y1="71.9199" x2="1016" y2="59.42" gradientUnits="userSpaceOnUse">
<stop stop-color="#243180"/>
<stop offset="1" stop-color="#04A4E0"/>
</linearGradient>
<linearGradient id="paint6_linear_249_3069" x1="-23.94" y1="73.1499" x2="1016.01" y2="60.6499" gradientUnits="userSpaceOnUse">
<stop stop-color="#243180"/>
<stop offset="1" stop-color="#04A4E0"/>
</linearGradient>
<linearGradient id="paint7_linear_249_3069" x1="-23.5601" y1="105.1" x2="1016.4" y2="92.5899" gradientUnits="userSpaceOnUse">
<stop stop-color="#243180"/>
<stop offset="1" stop-color="#04A4E0"/>
</linearGradient>
</defs>
</svg>
