<svg width="215" height="32" viewBox="0 0 215 32" fill="none" xmlns="http://www.w3.org/2000/svg">
        <path
            d="M63.7906 23.1685C64.6092 24.6544 66.3414 25.6933 68.6437 25.6933C69.7582 25.6933 70.6999 25.4773 71.4666 25C72.2334 24.5227 72.607 23.9352 72.607 23.2182C72.607 21.8553 71.5919 21.0886 69.1146 20.4708L66.8144 19.9007C63.5206 19.0367 61.8619 17.3758 61.8619 14.9331C61.8619 11.8121 64.6114 9.58532 68.5725 9.58532C70.0116 9.56333 71.4331 9.90349 72.7064 10.5745C73.8558 11.134 74.8003 12.0406 75.4062 13.1663L72.8813 14.5767C72.1621 13.2657 70.4299 12.324 68.5228 12.324C66.4688 12.324 64.9569 13.3153 64.9569 14.7754C64.9569 16.0864 65.9483 16.8056 68.4234 17.4233L70.7258 17.9935C73.9656 18.8099 75.7042 20.5184 75.7042 23.0691C75.7042 26.2138 72.7323 28.4428 68.5962 28.4428C65.2053 28.4428 62.4083 26.8812 61.2183 24.5788L63.7906 23.1685Z"
            fill="url(#paint0_linear_166_30)" />
        <path
            d="M91.5531 28.4428L83.2766 19.6004V28.4428H80.0649V9.57669H83.2766V18.3413L91.0649 9.57669H95.0757L86.6524 18.9827L95.5984 28.4428H91.5531Z"
            fill="url(#paint1_linear_166_30)" />
        <path d="M129.449 25.5896H139.14V28.4428H126.244V9.57669H129.449V25.5896Z" fill="url(#paint2_linear_166_30)" />
        <path
            d="M156.663 12.4298H146.728V17.5702H155.622V20.3974H146.728V25.581H156.922V28.4341H143.505V9.57669H156.663V12.4298Z"
            fill="url(#paint3_linear_166_30)" />
        <path d="M161.279 9.57669H177.009V12.4298H170.745V28.4428H167.525V12.4298H161.279V9.57669Z"
            fill="url(#paint4_linear_166_30)" />
        <path
            d="M210.372 28.4428L202.095 19.6004V28.4428H198.881V9.57669H202.095V18.3413L209.884 9.57669H213.899L205.475 18.9827L214.419 28.4428H210.372Z"
            fill="url(#paint5_linear_166_30)" />
        <path d="M194.525 9.57669H181.365V12.4298H194.525V9.57669Z" fill="url(#paint6_linear_166_30)" />
        <path d="M194.525 25.5896H181.365V28.4428H194.525V25.5896Z" fill="url(#paint7_linear_166_30)" />
        <path d="M194.525 17.5832H181.365V20.4363H194.525V17.5832Z" fill="url(#paint8_linear_166_30)" />
        <path
            d="M110.916 15.2138L117.004 25.7603H117.002L118.628 28.5788H121.887L110.916 9.57669L99.9458 28.5788H103.203L104.831 25.7603H104.827L110.916 15.2138Z"
            fill="url(#paint9_linear_166_30)" />
        <path d="M108.687 28.5788L110.916 24.7149L113.147 28.5788H116.402L110.916 19.0778L105.43 28.5788H108.687Z"
            fill="url(#paint10_linear_166_30)" />
        <path
            d="M49.3198 12.73C47.4235 10.8963 45.0304 10.2873 43.512 10.0842C43.0942 8.53749 42.4203 7.07159 41.5185 5.7473C39.7108 3.12527 36.1449 0 29.4494 0C22.214 0 18.7388 3.52484 17.4213 5.35853C14.8943 5.27862 8.89217 5.72355 5.48828 11.2203H9.96776C13.2421 8.2743 17.8706 8.8553 18.0974 8.88553L19.3717 9.06911L19.9159 7.90065C19.9375 7.85746 22.0758 3.47517 29.4537 3.47517C39.2118 3.47517 40.3155 11.5832 40.3587 11.9201L40.538 13.5184L42.1449 13.4622C42.173 13.4622 45.0261 13.4147 46.8965 15.2289C48.0606 16.3521 48.6503 18.0238 48.6503 20.1965C48.6503 25.7516 43.1427 27.1642 42.2075 27.3629H29.4494V30.838H42.5293L42.6762 30.8121C45.9483 30.2505 52.1276 27.3089 52.1276 20.1944C52.1276 17.0454 51.1859 14.5335 49.3198 12.73Z"
            fill="url(#paint11_linear_166_30)" />
        <path
            d="M11.933 24.2289C13.0423 24.2289 13.9416 23.3296 13.9416 22.2203C13.9416 21.111 13.0423 20.2117 11.933 20.2117C10.8236 20.2117 9.92432 21.111 9.92432 22.2203C9.92432 23.3296 10.8236 24.2289 11.933 24.2289Z"
            fill="url(#paint12_linear_166_30)" />
        <path
            d="M6.07117 24.0302C7.07077 24.0302 7.8811 23.2199 7.8811 22.2203C7.8811 21.2207 7.07077 20.4104 6.07117 20.4104C5.07157 20.4104 4.26123 21.2207 4.26123 22.2203C4.26123 23.2199 5.07157 24.0302 6.07117 24.0302Z"
            fill="url(#paint13_linear_166_30)" />
        <path
            d="M1.14903 23.3693C1.78362 23.3693 2.29806 22.8549 2.29806 22.2203C2.29806 21.5857 1.78362 21.0713 1.14903 21.0713C0.514437 21.0713 0 21.5857 0 22.2203C0 22.8549 0.514437 23.3693 1.14903 23.3693Z"
            fill="url(#paint14_linear_166_30)" />
        <path
            d="M6.07117 30.8337C7.07077 30.8337 7.8811 30.0234 7.8811 29.0238C7.8811 28.0242 7.07077 27.2138 6.07117 27.2138C5.07157 27.2138 4.26123 28.0242 4.26123 29.0238C4.26123 30.0234 5.07157 30.8337 6.07117 30.8337Z"
            fill="#069ECC" />
        <path
            d="M1.14903 30.1728C1.78362 30.1728 2.29806 29.6583 2.29806 29.0238C2.29806 28.3892 1.78362 27.8747 1.14903 27.8747C0.514437 27.8747 0 28.3892 0 29.0238C0 29.6583 0.514437 30.1728 1.14903 30.1728Z"
            fill="#069ECC" />
        <path
            d="M6.07117 17.1987C7.07077 17.1987 7.8811 16.3884 7.8811 15.3888C7.8811 14.3892 7.07077 13.5788 6.07117 13.5788C5.07157 13.5788 4.26123 14.3892 4.26123 15.3888C4.26123 16.3884 5.07157 17.1987 6.07117 17.1987Z"
            fill="url(#paint15_linear_166_30)" />
        <path
            d="M1.14903 16.5378C1.78362 16.5378 2.29806 16.0234 2.29806 15.3888C2.29806 14.7542 1.78362 14.2397 1.14903 14.2397C0.514437 14.2397 0 14.7542 0 15.3888C0 16.0234 0.514437 16.5378 1.14903 16.5378Z"
            fill="url(#paint16_linear_166_30)" />
        <path
            d="M23.2485 12.4212C21.8943 12.4212 20.2247 14.3499 19.6869 15.0994H15.2096C14.7625 14.4989 13.579 13.175 12.6178 13.175C12.0429 13.1929 11.4976 13.4339 11.0973 13.8469C10.697 14.2599 10.4731 14.8125 10.4731 15.3877C10.4731 15.9629 10.697 16.5155 11.0973 16.9285C11.4976 17.3415 12.0429 17.5825 12.6178 17.6004C13.6113 17.6004 14.8295 16.2376 15.2528 15.6566H19.6653C20.1621 16.3866 21.8748 18.365 23.2593 18.365C24.0464 18.365 24.8012 18.0524 25.3577 17.4958C25.9142 16.9393 26.2269 16.1845 26.2269 15.3974C26.2269 14.6104 25.9142 13.8555 25.3577 13.299C24.8012 12.7425 24.0464 12.4298 23.2593 12.4298L23.2485 12.4212Z"
            fill="url(#paint17_linear_166_30)" />
        <path
            d="M29.0412 19.2527C27.6848 19.2527 26.0174 21.1814 25.4775 21.9309H21.0001C20.5531 21.3305 19.3695 20.0065 18.4084 20.0065C17.8335 20.0245 17.2881 20.2655 16.8878 20.6785C16.4875 21.0915 16.2637 21.6441 16.2637 22.2192C16.2637 22.7944 16.4875 23.347 16.8878 23.76C17.2881 24.173 17.8335 24.414 18.4084 24.432C19.4019 24.432 20.62 23.0691 21.0433 22.4881H25.4559C25.9548 23.2182 27.6654 25.1966 29.052 25.1966C29.839 25.1966 30.5939 24.8839 31.1504 24.3274C31.7069 23.7708 32.0196 23.016 32.0196 22.229C32.0196 21.4419 31.7069 20.6871 31.1504 20.1305C30.5939 19.574 29.839 19.2614 29.052 19.2614L29.0412 19.2527Z"
            fill="url(#paint18_linear_166_30)" />
        <path
            d="M23.2485 26.0562C21.8943 26.0562 20.2247 27.9849 19.6869 28.7343H15.2096C14.7625 28.1339 13.579 26.8099 12.6178 26.8099C12.0429 26.8279 11.4976 27.0689 11.0973 27.4819C10.697 27.8949 10.4731 28.4475 10.4731 29.0227C10.4731 29.5978 10.697 30.1504 11.0973 30.5634C11.4976 30.9765 12.0429 31.2175 12.6178 31.2354C13.6113 31.2354 14.8295 29.8726 15.2528 29.2916H19.6653C20.1621 30.0194 21.8748 32 23.2593 32C24.0464 32 24.8012 31.6873 25.3577 31.1308C25.9142 30.5743 26.2269 29.8194 26.2269 29.0324C26.2269 28.2453 25.9142 27.4905 25.3577 26.934C24.8012 26.3774 24.0464 26.0648 23.2593 26.0648L23.2485 26.0562Z"
            fill="#069ECC" />
        <defs>
            <linearGradient id="paint0_linear_166_30" x1="-5.12084" y1="19.8963" x2="219.493" y2="17.1944"
                gradientUnits="userSpaceOnUse">
                <stop stop-color="#243180" />
                <stop offset="1" stop-color="#04A4E0" />
            </linearGradient>
            <linearGradient id="paint1_linear_166_30" x1="-5.11865" y1="20.1274" x2="219.495" y2="17.4255"
                gradientUnits="userSpaceOnUse">
                <stop stop-color="#243180" />
                <stop offset="1" stop-color="#04A4E0" />
            </linearGradient>
            <linearGradient id="paint2_linear_166_30" x1="-5.11226" y1="20.6652" x2="219.501" y2="17.9655"
                gradientUnits="userSpaceOnUse">
                <stop stop-color="#243180" />
                <stop offset="1" stop-color="#04A4E0" />
            </linearGradient>
            <linearGradient id="paint3_linear_166_30" x1="-5.1101" y1="20.8769" x2="219.503" y2="18.175"
                gradientUnits="userSpaceOnUse">
                <stop stop-color="#243180" />
                <stop offset="1" stop-color="#04A4E0" />
            </linearGradient>
            <linearGradient id="paint4_linear_166_30" x1="-5.10584" y1="21.067" x2="219.506" y2="18.365"
                gradientUnits="userSpaceOnUse">
                <stop stop-color="#243180" />
                <stop offset="1" stop-color="#04A4E0" />
            </linearGradient>
            <linearGradient id="paint5_linear_166_30" x1="-5.10157" y1="21.5551" x2="219.512" y2="18.8553"
                gradientUnits="userSpaceOnUse">
                <stop stop-color="#243180" />
                <stop offset="1" stop-color="#04A4E0" />
            </linearGradient>
            <linearGradient id="paint6_linear_166_30" x1="-5.20076" y1="13.324" x2="219.413" y2="10.6242"
                gradientUnits="userSpaceOnUse">
                <stop stop-color="#243180" />
                <stop offset="1" stop-color="#04A4E0" />
            </linearGradient>
            <linearGradient id="paint7_linear_166_30" x1="-5.00638" y1="29.3348" x2="219.605" y2="26.635"
                gradientUnits="userSpaceOnUse">
                <stop stop-color="#243180" />
                <stop offset="1" stop-color="#04A4E0" />
            </linearGradient>
            <linearGradient id="paint8_linear_166_30" x1="-5.10356" y1="21.3305" x2="219.51" y2="18.6285"
                gradientUnits="userSpaceOnUse">
                <stop stop-color="#243180" />
                <stop offset="1" stop-color="#04A4E0" />
            </linearGradient>
            <linearGradient id="paint9_linear_166_30" x1="-5.1125" y1="20.5378" x2="219.499" y2="17.838"
                gradientUnits="userSpaceOnUse">
                <stop stop-color="#243180" />
                <stop offset="1" stop-color="#04A4E0" />
            </linearGradient>
            <linearGradient id="paint10_linear_166_30" x1="-5.05637" y1="25.2549" x2="219.555" y2="22.5551"
                gradientUnits="userSpaceOnUse">
                <stop stop-color="#243180" />
                <stop offset="1" stop-color="#04A4E0" />
            </linearGradient>
            <linearGradient id="paint11_linear_166_30" x1="-5.16831" y1="15.9114" x2="219.443" y2="13.2117"
                gradientUnits="userSpaceOnUse">
            <stop stop-color="#243180" />
            <stop offset="1" stop-color="#04A4E0" />
        </linearGradient>
        <linearGradient id="paint12_linear_166_30" x1="-5.0908" y1="22.4255" x2="219.523" y2="19.7235"
            gradientUnits="userSpaceOnUse">
            <stop stop-color="#243180" />
            <stop offset="1" stop-color="#04A4E0" />
        </linearGradient>
        <linearGradient id="paint13_linear_166_30" x1="-5.09082" y1="22.3542" x2="219.52" y2="19.6523"
            gradientUnits="userSpaceOnUse">
            <stop stop-color="#243180" />
            <stop offset="1" stop-color="#04A4E0" />
        </linearGradient>
        <linearGradient id="paint14_linear_166_30" x1="-5.09287" y1="22.2959" x2="219.521" y2="19.594"
            gradientUnits="userSpaceOnUse">
            <stop stop-color="#243180" />
            <stop offset="1" stop-color="#04A4E0" />
        </linearGradient>
        <linearGradient id="paint15_linear_166_30" x1="-5.1729" y1="15.5227" x2="219.438" y2="12.8229"
            gradientUnits="userSpaceOnUse">
            <stop stop-color="#243180" />
            <stop offset="1" stop-color="#04A4E0" />
        </linearGradient>
        <linearGradient id="paint16_linear_166_30" x1="-5.17495" y1="15.4644" x2="219.438" y2="12.7646"
            gradientUnits="userSpaceOnUse">
            <stop stop-color="#243180" />
            <stop offset="1" stop-color="#04A4E0" />
        </linearGradient>
        <linearGradient id="paint17_linear_166_30" x1="10.4731" y1="12.4212" x2="26.2121" y2="12.9039"
            gradientUnits="userSpaceOnUse">
            <stop stop-color="#243180" />
            <stop offset="1" stop-color="#04A4E0" />
        </linearGradient>
        <linearGradient id="paint18_linear_166_30" x1="-5.0884" y1="22.6307" x2="219.525" y2="19.9287"
            gradientUnits="userSpaceOnUse">
            <stop stop-color="#243180" />
            <stop offset="1" stop-color="#04A4E0" />
        </linearGradient>
    </defs>
</svg>